<?xml version="1.0" encoding="UTF-8"?>
<svg width="298.672395px" height="298.672395px" viewBox="0 0 298.672395 298.672395" version="1.1" xmlns="http://www.w3.org/2000/svg" xmlns:xlink="http://www.w3.org/1999/xlink">
    <title>btn/check-绿色</title>
    <defs>
        <path d="M240.798385,50.8382941 C238.037156,47.8999904 234.163158,46.2656534 230.132252,46.338535 C226.141957,46.4186019 222.367787,48.220107 219.654226,51.3106888 L137.847184,145.129065 L136.238259,145.849667 L134.677362,145.073018 L114.377689,120.164209 C111.435997,116.581216 107.225576,114.439427 102.714982,114.247266 C98.1640011,114.083819 93.7639899,115.893314 90.644041,119.211413 C85.5611182,124.559881 84.896736,132.982918 89.0751388,139.120045 C105.670353,163.450259 118.116764,181.697919 126.414371,193.863026 C130.979055,200.461756 136.238259,206.336198 143.608468,206.336198 L145.622191,206.336198 C153.757561,206.336198 159.123586,201.813597 164.001724,194.04972 C181.660879,167.238925 208.149611,127.022733 243.46792,73.4011432 C247.910475,66.6475011 247.118019,57.5038624 241.60685,51.6870031 L240.798385,50.8382941 Z" id="path-1"></path>
    </defs>
    <g id="btn/check-绿色" stroke="none" stroke-width="1" fill="none" fill-rule="evenodd">
        <path d="M149.336198,43.3361976 C207.878381,43.3361976 255.336198,90.7940141 255.336198,149.336198 C255.336198,207.878381 207.878381,255.336198 149.336198,255.336198 C90.7940141,255.336198 43.3361976,207.878381 43.3361976,149.336198 C43.3361976,90.7940141 90.7940141,43.3361976 149.336198,43.3361976 Z" id="Path" fill="#29CC96" transform="translate(149.336198, 149.336198) rotate(310.000000) translate(-149.336198, -149.336198) "></path>
        <mask id="mask-2" fill="white">
            <use xlink:href="#path-1"></use>
        </mask>
        <use id="arrow" fill="#000000" xlink:href="#path-1"></use>
    </g>
</svg>