<?xml version="1.0" encoding="UTF-8"?>
<svg width="90px" height="90px" viewBox="0 0 90 90" version="1.1" xmlns="http://www.w3.org/2000/svg" xmlns:xlink="http://www.w3.org/1999/xlink">
    <title>coin_aht</title>
    <g id="首页" stroke="none" stroke-width="1" fill="none" fill-rule="evenodd">
        <g id="litepaper" transform="translate(-120.000000, -3737.000000)">
            <g id="coin_aht" transform="translate(120.000000, 3737.000000)">
                <circle id="Oval-Copy-2" fill="#66F6FF" fill-rule="nonzero" cx="45" cy="45" r="45"></circle>
                <circle id="Oval-Copy-3" fill="#65B2FF" fill-rule="nonzero" cx="45" cy="45" r="39.6"></circle>
                <path d="M45,0 C69.8528137,0 90,20.1471863 90,45 C90,69.8528137 69.8528137,90 45,90 C20.1471863,90 0,69.8528137 0,45 C0,20.1471863 20.1471863,0 45,0 Z M9.14654828,24.3 C-2.78280231,44.9622413 3.59868539,70.9800031 23.4,82.4122974 C43.2013146,93.8445918 68.9241011,86.3622413 80.8534517,65.7 C92.7828023,45.0377587 86.4013146,19.0199969 66.6,7.58770256 C46.7986854,-3.84459176 21.0758989,3.63775867 9.14654828,24.3 Z M5.03242652,53.8570763 C11.4512195,77.3456751 27.7258071,84.6753238 45.0311909,86.13 C18.4204409,85.7497443 8.32809691,70.5413591 5.03242652,53.8570763 Z M64.7966944,10.7111194 C83.7339203,21.6445318 90.222293,45.8594686 79.2888806,64.7966944 C68.3554682,83.7339203 44.1405314,90.222293 25.2033056,79.2888806 C6.26607972,68.3554682 -0.222293033,44.1405314 10.7111194,25.2033056 C21.6445318,6.26607972 45.8594686,-0.222293033 64.7966944,10.7111194 Z M25.515,11.25099 C7.65077051,21.5649077 1.89268282,45.0359365 12.6539512,63.675 C23.4152195,82.3140635 46.6207705,89.0629277 64.485,78.74901 C82.3492295,68.4350923 88.1073172,44.9640635 77.3460488,26.325 C66.5847805,7.68593646 43.3792295,0.937072312 25.515,11.25099 Z M79.2653891,51.4734649 C79.2653891,65.9696006 71.8879043,71.81624 62.0066034,76.8407105 C71.8134843,69.9935382 77.8023612,61.1118818 79.2653891,51.4734649 Z M27.8082513,12.6195438 C17.5517896,18.9761909 12.0213206,27.9018293 10.5496378,37.9867893 C11.0350912,21.3190056 20.5702503,16.0805631 27.8082513,12.6195438 Z M45.3524265,3.81707634 C71.1107917,3.81707634 80.8997175,18.6047348 85.0811909,36.09 C77.6934231,12.24 62.3077623,5.79181467 45.3524265,3.81707634 Z" id="Shape" fill="#000000" fill-rule="nonzero"></path>
                <path d="M33.7325283,59.7066341 C33.1589968,60.4547055 33.091728,62.1850642 33.0828653,64.1184704 L33.0818346,64.4517551 L33.0818346,64.4517551 L33.0809736,65.2966459 C33.0753153,68.5835152 32.9840736,72 30.7691796,72 L29.9256173,72 C27.7356148,72 27.7356148,68.5766139 30.4714535,68.744583 C30.4714535,67.7825778 29.9226211,66.8937157 29.2352615,65.9826701 L29.1428287,65.8610575 L29.1428287,65.8610575 L29.0489702,65.7391318 L29.0489702,65.7391318 L28.9059821,65.5555463 L28.9059821,65.5555463 L28.4679832,64.99819 L28.4679832,64.99819 L28.3701966,64.8726664 L28.3701966,64.8726664 L28.2727133,64.746428 C28.2402934,64.7042239 28.2079601,64.6618922 28.1757494,64.6194246 L28.0795212,64.4916059 C27.5846146,63.8290167 27.1278168,63.1317724 26.8432668,62.3687087 C26.1630735,60.5446679 26.3081413,57.5909957 29.3524338,56.4881072 C32.3967263,55.3852188 32.0544062,50.8737485 29.0032668,49.7425977 C28.3135639,51.1167736 26.6943031,51.5539417 25.8521247,51.3324699 C24.3948092,50.9492325 23.8612656,49.9479728 23.9492337,48.5698527 C24.1481177,45.4541095 28.2737464,43.2380089 33.1683446,46.0494262 C33.1683446,41.8310986 31.5971178,38.6140514 30.1241014,35.7583448 L29.8177967,35.165698 L29.8177967,35.165698 L29.6168668,34.7758189 C27.8904613,31.4135638 26.591564,28.4709173 28.672572,24.8161471 C31.3405309,20.1305442 37.1430069,17.7084952 46.08,17.55 L46.3471694,17.5554339 C55.1327291,17.7571625 60.8461487,20.1774002 63.487428,24.8161471 C65.568436,28.4709173 64.2695387,31.4135638 62.5431332,34.7758189 L62.3422033,35.165698 L62.3422033,35.165698 L62.0358986,35.7583448 C60.5628822,38.6140514 58.9916554,41.8310986 58.9916554,46.0494262 C63.8862536,43.2380089 68.0118823,45.4541095 68.2107663,48.5698527 C68.2987344,49.9479728 67.7651908,50.9492325 66.3078753,51.3324699 C65.4656969,51.5539417 63.8464361,51.1167736 63.1567332,49.7425977 C60.1055938,50.8737485 59.7632737,55.3852188 62.8075662,56.4881072 C65.8518587,57.5909957 65.9969265,60.5446679 65.3167332,62.3687087 C65.0321832,63.1317724 64.5753854,63.8290167 64.0804788,64.4916059 L63.9842506,64.6194246 C63.9681452,64.6406584 63.9520092,64.6618582 63.9358471,64.6830251 L63.8385965,64.8096397 L63.8385965,64.8096397 L63.6920168,64.99819 L63.6920168,64.99819 L63.2540179,65.5555463 L63.2540179,65.5555463 L63.1584261,65.6780359 L63.1584261,65.6780359 L63.0639358,65.800137 C63.0482912,65.8204576 63.0327016,65.8407641 63.0171713,65.8610575 L62.9247385,65.9826701 C62.2373789,66.8937157 61.6885465,67.7825778 61.6885465,68.744583 C64.3970268,68.5782936 64.4241116,71.9318914 62.2994252,71.99898 L62.2343827,72 L61.3908204,72 C59.2141142,72 59.0884622,68.7003094 59.0794058,65.4667538 L59.0781654,64.4517551 L59.0781654,64.4517551 L59.0771347,64.1184704 C59.068272,62.1850642 59.0010032,60.4547055 58.4274717,59.7066341 C57.162185,58.0562892 53.1156131,57.2624924 46.2877561,57.3252436 L46.08,57.3274074 C39.1264196,57.2465435 35.0105957,58.039619 33.7325283,59.7066341 Z" id="Path" fill="#66F6FF"></path>
                <path d="M36.4878606,34.6597419 C35.01,27.1332701 43.7018085,27.1332701 46.08,27.1332701 C39.722053,27.6789118 36.4878606,31.6545841 36.4878606,34.6597419 Z" id="Rectangle" fill="#FFFFFF"></path>
                <path d="M46.08,57.3274074 C39.1264196,57.2465435 35.0105957,58.039619 33.7325283,59.7066341 C33.1146723,60.512519 33.0843542,62.4583871 33.0816503,64.5700094 L33.0812032,65.1239869 L33.0780495,65.9606457 C33.0534298,69.0277063 32.8350785,72 30.7691796,72 L29.9256173,72 C27.7356148,72 27.7356148,68.5766139 30.4714535,68.744583 C30.4714535,66.6067937 27.7611701,64.8302047 26.8432668,62.3687087 C26.1630735,60.5446679 26.3081413,57.5909957 29.3524338,56.4881072 C32.3967263,55.3852188 32.0544062,50.8737485 29.0032668,49.7425977 C28.3135639,51.1167736 26.6943031,51.5539417 25.8521247,51.3324699 C24.3948092,50.9492325 23.8612656,49.9479728 23.9492337,48.5698527 C24.1481177,45.4541095 28.2737464,43.2380089 33.1683446,46.0494262 C33.1683446,36.239362 24.6706336,31.8445514 28.672572,24.8161471 C31.2911243,20.2173146 36.9291754,17.798977 45.5867252,17.561134 L46.08,17.55 L46.08,17.55 L46.08,17.55 L46.5732748,17.561134 C55.2308246,17.798977 60.8688757,20.2173146 63.487428,24.8161471 C67.4893664,31.8445514 58.9916554,36.239362 58.9916554,46.0494262 C63.8862536,43.2380089 68.0118823,45.4541095 68.2107663,48.5698527 C68.2987344,49.9479728 67.7651908,50.9492325 66.3078753,51.3324699 C65.4656969,51.5539417 63.8464361,51.1167736 63.1567332,49.7425977 C60.1055938,50.8737485 59.7632737,55.3852188 62.8075662,56.4881072 C65.8518587,57.5909957 65.9969265,60.5446679 65.3167332,62.3687087 C64.3988299,64.8302047 61.6885465,66.6067937 61.6885465,68.744583 C64.4243852,68.5766139 64.4243852,72 62.2343827,72 L62.2343827,72 L61.3908204,72 C59.3249215,72 59.1065702,69.0277063 59.0819505,65.9606457 L59.0819505,65.9606457 L59.0787968,65.1239869 L59.0783497,64.5700094 C59.0756458,62.4583871 59.0453277,60.512519 58.4274717,59.7066341 C57.1494043,58.039619 53.0335804,57.2465435 46.08,57.3274074 L46.08,57.3274074 L46.08,57.3274074 Z M29.3228069,69.885 C29.1896786,70.1374495 29.2397572,70.5509495 29.622714,70.6847767 C30.0202858,70.8237112 30.5694443,70.772743 30.6436169,70.7314128 C30.7719847,69.1486003 29.6273479,69.3075024 29.3228069,69.885 Z M62.8371931,69.885 C62.5326521,69.3075024 61.3880153,69.1486003 61.5163831,70.7314128 C61.5905557,70.772743 62.1397142,70.8237112 62.537286,70.6847767 C62.9202428,70.5509495 62.9703214,70.1374495 62.8371931,69.885 Z M46.08,20.61 C38.118145,20.7509428 32.950968,22.9047649 30.578469,27.0714663 C27.0197205,33.3215184 34.6231819,38.8414663 34.6231819,47.5651267 C30.2706301,45.0650565 25.2086675,45.5300604 25.0318087,48.3007544 C24.9535826,49.5262563 25.4197921,50.1639277 26.469052,50.1639277 C27.3767908,50.1639277 28.5735513,49.5227489 29.1868739,48.3007544 C34.4077549,49.9435293 33.9781541,55.3248887 30.578469,56.8923698 C27.1787839,58.4598509 27.1839908,60.6794307 28.0703687,62.4514567 C29.0058759,64.3217006 31.7625409,66.7252311 31.7625409,69.9935382 C32.8389992,67.2823224 30.7515608,62.5717577 32.4564207,59.2770319 C33.5707083,57.1236163 37.9574101,56.0257966 45.6165261,55.9835728 L46.08,55.9823061 L46.08,20.61 Z M46.08,55.9823061 L46.5434739,55.9835728 C54.2025899,56.0257966 58.5892917,57.1236163 59.7035793,59.2770319 C61.4084392,62.5717577 59.3210008,67.2823224 60.3974591,69.9935382 C60.3974591,66.7252311 63.1541241,64.3217006 64.0896313,62.4514567 C64.9760092,60.6794307 64.9812161,58.4598509 61.581531,56.8923698 C58.1818459,55.3248887 57.7522451,49.9435293 62.9731261,48.3007544 C63.5864487,49.5227489 64.7832092,50.1639277 65.690948,50.1639277 C66.7402079,50.1639277 67.2064174,49.5262563 67.1281913,48.3007544 C66.9513325,45.5300604 61.8893699,45.0650565 57.5368181,47.5651267 C57.5368181,38.8414663 65.1402795,33.3215184 61.581531,27.0714663 C59.209032,22.9047649 54.041855,20.7509428 46.08,20.61 L46.08,20.61 L46.08,55.9823061 Z" id="Combined-Shape-Copy-3" fill="#000000"></path>
                <path d="M35.01,54.6285632 C38.1000899,52.0495211 41.7900899,50.76 46.08,50.76 L46.5373376,50.7649344 C50.6327163,50.8537534 54.1702704,52.1416297 57.15,54.6285632 C52.0978116,54.1142386 48.4078116,53.8447176 46.08,53.82 L46.08,53.82 C43.7521884,53.8447176 40.0621884,54.1142386 35.01,54.6285632 Z" id="Combined-Shape" fill="#000000"></path>
                <path d="M46.08,23.4752727 L46.5099892,23.4777131 C53.9018063,23.5530692 58.1045477,25.3473421 59.1182132,28.8605318 C60.6679518,34.2316584 55.0579824,42.4591739 54.6168571,50.76 C54.1901726,50.5425256 53.7251039,50.34278 53.2216507,50.1607633 C53.7899618,42.7810478 58.1806002,35.5287248 56.9254739,30.7505004 C56.0843545,27.5483866 52.6035004,25.9091415 46.4829114,25.8327653 L46.4829114,25.8327653 L46.08,25.83 L45.6770886,25.8327653 C39.5564996,25.9091415 36.0756455,27.5483866 35.2345261,30.7505004 C33.9793998,35.5287248 38.3700382,42.7810478 38.9410617,50.1604127 C38.4355158,50.3425138 37.9701116,50.5423807 37.5431429,50.76 C37.1020176,42.4591739 31.4920482,34.2316584 33.0417868,28.8605318 C34.0749459,25.2797808 38.421017,23.4846944 46.08,23.4752727 Z" id="Combined-Shape" fill="#000000"></path>
            </g>
        </g>
    </g>
</svg>