<?xml version="1.0" encoding="UTF-8"?>
<svg width="90px" height="90px" viewBox="0 0 90 90" version="1.1" xmlns="http://www.w3.org/2000/svg" xmlns:xlink="http://www.w3.org/1999/xlink">
    <title>coin_aut</title>
    <g id="首页" stroke="none" stroke-width="1" fill="none" fill-rule="evenodd">
        <g id="litepaper" transform="translate(-600.000000, -4782.000000)">
            <g id="Icon/coin/aut" transform="translate(600.000000, 4782.000000)">
                <circle id="Oval-Copy-3" fill="#FFE666" cx="45" cy="45" r="40.78125"></circle>
                <path d="M45,0 C69.8528137,0 90,20.1471863 90,45 C90,69.8528137 69.8528137,90 45,90 C20.1471863,90 0,69.8528137 0,45 C0,20.1471863 20.1471863,0 45,0 Z M11.2778013,25.9408806 C0.0575724715,44.9652344 6.05972251,68.9205789 24.6839786,79.4466399 C43.3082347,89.9727009 67.5019699,83.0834733 78.7221987,64.0591194 C89.9424275,45.0347656 83.9402775,21.0794211 65.3160214,10.5533601 C46.6917653,0.0272990958 22.4980301,6.91652666 11.2778013,25.9408806 Z M78.0052991,34.6329793 L78.1557282,35.1619288 C83.4153256,54.1678072 72.8343568,73.9795718 54.5224728,79.4127434 C43.0958563,82.8030428 31.3590718,79.7935477 22.8705319,72.4332296 L22.62735,72.22023 L22.7644029,72.3274732 C27.750785,76.2022794 34.0651203,78.5504918 41.1414988,78.7156958 C59.6990204,79.1489367 76.469984,64.4049179 78.6004945,45.7840083 C79.0457623,41.8923158 78.8163064,38.1392817 78.0052991,34.6329793 Z M67.0641467,18.112332 L49.0336654,48.3903342 L77.937232,47.8060473 L15.5944266,71.7611283 L42.2763872,36.4304778 L20.0390625,34.8046875 L67.0641467,18.112332 Z M67.3716823,17.7794031 L67.3845512,17.7895245 C62.3749582,13.8444947 56.0046169,11.4502896 48.8567598,11.2834169 C30.2992383,10.8501761 13.5282746,25.5941948 11.3977641,44.2151044 C10.9524963,48.106797 11.1819522,51.859831 11.9929595,55.3661335 L11.8425304,54.8371839 C6.58293301,35.8313055 17.1639019,16.019541 35.4757858,10.5863693 C47.0122727,7.16347115 58.8649211,10.2640311 67.3716823,17.7794031 Z" id="Shape" fill="#000000"></path>
            </g>
        </g>
    </g>
</svg>