<?xml version="1.0" encoding="UTF-8"?>
<svg width="90px" height="90px" viewBox="0 0 90 90" version="1.1" xmlns="http://www.w3.org/2000/svg" xmlns:xlink="http://www.w3.org/1999/xlink">
    <title>coin_aut</title>
    <g id="首页" stroke="none" stroke-width="1" fill="none" fill-rule="evenodd">
        <g id="litepaper" transform="translate(-600.000000, -3737.000000)">
            <g id="coin_aut" transform="translate(600.000000, 3737.000000)">
                <circle id="Oval-Copy-2" fill="#FFF598" fill-rule="nonzero" cx="45" cy="45" r="45"></circle>
                <circle id="Oval-Copy-3" fill="#FFD633" fill-rule="nonzero" cx="45" cy="45" r="39.6"></circle>
                <path d="M45,0 C69.8528137,0 90,20.1471863 90,45 C90,69.8528137 69.8528137,90 45,90 C20.1471863,90 0,69.8528137 0,45 C0,20.1471863 20.1471863,0 45,0 Z M9.14654828,24.3 C-2.78280231,44.9622413 3.59868539,70.9800031 23.4,82.4122974 C43.2013146,93.8445918 68.9241011,86.3622413 80.8534517,65.7 C92.7828023,45.0377587 86.4013146,19.0199969 66.6,7.58770256 C46.7986854,-3.84459176 21.0758989,3.63775867 9.14654828,24.3 Z M5.03242652,53.8570763 C11.4512195,77.3456751 27.7258071,84.6753238 45.0311909,86.13 C18.4204409,85.7497443 8.32809691,70.5413591 5.03242652,53.8570763 Z M64.7966944,10.7111194 C83.7339203,21.6445318 90.222293,45.8594686 79.2888806,64.7966944 C68.3554682,83.7339203 44.1405314,90.222293 25.2033056,79.2888806 C6.26607972,68.3554682 -0.222293033,44.1405314 10.7111194,25.2033056 C21.6445318,6.26607972 45.8594686,-0.222293033 64.7966944,10.7111194 Z M25.515,11.25099 C7.65077051,21.5649077 1.89268282,45.0359365 12.6539512,63.675 C23.4152195,82.3140635 46.6207705,89.0629277 64.485,78.74901 C82.3492295,68.4350923 88.1073172,44.9640635 77.3460488,26.325 C66.5847805,7.68593646 43.3792295,0.937072312 25.515,11.25099 Z M79.2653891,51.4734649 C79.2653891,65.9696006 71.8879043,71.81624 62.0066034,76.8407105 C71.8134843,69.9935382 77.8023612,61.1118818 79.2653891,51.4734649 Z M27.8082513,12.6195438 C17.5517896,18.9761909 12.0213206,27.9018293 10.5496378,37.9867893 C11.0350912,21.3190056 20.5702503,16.0805631 27.8082513,12.6195438 Z M45.3524265,3.81707634 C71.1107917,3.81707634 80.8997175,18.6047348 85.0811909,36.09 C77.6934231,12.24 62.3077623,5.79181467 45.3524265,3.81707634 Z" id="Shape" fill="#000000" fill-rule="nonzero"></path>
                <path d="M54.99,18.81 C55.1304903,19.5763378 56.9351693,31.5396299 59.8270767,43.2631666 L60.0354827,44.1 L60.0354827,44.1 C62.3008423,53.1092746 65.7398387,61.8880414 66.5656239,64.7449526 C64.5599201,64.9597023 62.5323973,65.131502 60.4854827,65.2603518 C58.7941712,65.4321516 56.92855,65.6254263 54.8865595,65.8401759 C52.8363428,66.0549256 50.9841042,66.2482003 49.3320603,66.42 C49.3345261,65.0026522 49.3370543,63.6067794 49.3397386,62.2323816 C49.3053709,61.0297835 49.2522223,59.8271854 49.1808954,58.6245873 C49.1081476,57.4219892 49.051544,56.3911908 49.0114408,55.5321922 L40.7273381,55.5321922 L37.6880223,64.8093775 C36.1728074,64.9382273 34.3766989,65.0778146 32.2980824,65.2281394 C30.213685,65.3784641 28.2630256,65.5180514 26.4472159,65.6469012 C24.2059824,65.8187009 21.9927069,65.9905007 19.8075471,66.1623004 C20.5675171,64.7629979 22.3488523,61.5397797 24.4310053,57.3942207 L24.8247583,56.6063399 C26.8755445,52.4820516 29.1663776,47.5450497 31.0421725,42.615 C34.8525824,32.6003069 36.9774846,22.621447 37.3215633,20.9711327 L37.346399,20.8516808 C37.3498311,20.8351383 37.3529093,20.8202942 37.3556335,20.8071719 C40.3212195,20.5924222 43.320623,20.3347226 46.3488931,20.0340731 C49.3557642,19.7334235 52.2393858,19.3253992 54.99,18.81 Z M46.7840704,27.3140866 L45.7298621,27.3785115 L44.9426175,32.9190528 L42.1581497,49.0897023 C42.396487,49.0897023 42.827024,49.0789648 43.4495599,49.0574899 C44.0718282,49.0360149 44.7235987,49.0145399 45.4048522,48.993065 C46.0858127,48.97159 46.7218541,48.950115 47.3130054,48.9286401 C47.903902,48.9071651 48.3141168,48.8749526 48.54369,48.8320027 C48.4942359,48.5743031 48.454271,48.1340663 48.4233692,47.5112923 C48.3920146,46.8885183 48.3438188,46.1798444 48.2788689,45.3852706 C48.2135935,44.5906969 48.1478811,43.7209608 48.0814689,42.7760622 C48.0144009,41.8311637 47.9507306,40.9077402 47.8904448,40.0057916 C47.6958852,37.8153451 47.5198837,35.4530988 47.3594219,32.9190528 L46.7840704,27.3140866 Z" id="Shape" fill="#000000" fill-rule="nonzero"></path>
                <path d="M43.8165855,24.9431665 C42.7109617,32.3143888 41.482994,38.6377598 40.1326825,43.9132793 C39.6157001,45.9330732 39.0728188,47.962663 38.5040387,50.002049 C42.1581497,51.4734649 46.6086092,52.4235153 50.715379,53.0037169 L50.5318719,53.0030974 C49.8158564,53.0006801 47.1139112,52.991558 44.3714368,52.9822991 L43.6860996,52.9799853 C41.1783567,52.9715189 38.7727811,52.9633974 37.9678266,52.9606798 L37.7891042,52.9600764 C37.7663066,52.9599995 37.7470974,52.9599346 37.7316175,52.9598824 L37.6846149,52.9597237 L37.6846149,52.9597237 C37.2171236,54.5800688 36.5061508,56.9069362 35.5516966,59.9403259 L27.8082513,60.4700916 C30.5265017,54.4416863 32.6439913,49.2635424 34.1607201,44.93566 C35.6774489,40.6077776 37.6681031,34.0036131 40.1326825,25.1231665 L43.8165855,24.9431665 Z M52.0512572,21.946908 C54.3540852,37.4685485 57.8137552,49.0897023 60.708565,59.6703259 L60.6479257,59.6705794 C60.1030202,59.6740438 55.9901111,59.7248554 52.56,60.4700916 C51.3999654,49.77841 50.715379,38.2018945 49.77,24.66 L44.5855522,24.66 L44.5855522,24.66 C49.5626889,22.851272 52.0512572,21.946908 52.0512572,21.946908 Z" id="Combined-Shape" fill="#FFAE22"></path>
            </g>
        </g>
    </g>
</svg>