<?xml version="1.0" encoding="UTF-8"?>
<svg width="80px" height="80px" viewBox="0 0 80 80" version="1.1" xmlns="http://www.w3.org/2000/svg" xmlns:xlink="http://www.w3.org/1999/xlink">
    <title>icon_tel</title>
    <g id="首页" stroke="none" stroke-width="1" fill="none" fill-rule="evenodd">
        <g id="zclub-home" transform="translate(-510.000000, -6053.000000)">
            <g id="foot" transform="translate(0.000000, 5973.000000)">
                <g id="icon_tel" transform="translate(510.000000, 80.000000)">
                    <rect id="Rectangle-Copy-52" x="0" y="0" width="80" height="80"></rect>
                    <path d="M64.4661786,17.3160654 L13.6771786,36.9010654 C10.2111786,38.2930654 10.2311786,40.2270654 13.0411786,41.0890654 L26.0811786,45.1570654 L56.2501786,26.1220654 C57.6761786,25.2540654 58.9801786,25.7210654 57.9081786,26.6720654 L33.4651786,48.7320654 L33.4591786,48.7320654 L33.4651786,48.7350654 L32.5651786,62.1750654 C33.8831786,62.1750654 34.4651786,61.5710654 35.2041786,60.8580654 L41.5371786,54.6990654 L54.7111786,64.4300654 C57.1411786,65.7680654 58.8851786,65.0800654 59.4901786,62.1810654 L68.1381786,21.4240654 C69.0231786,17.8740654 66.7831786,16.2680654 64.4651786,17.3160654 L64.4661786,17.3160654 Z" id="discord" fill="#000000" fill-rule="nonzero"></path>
                </g>
            </g>
        </g>
    </g>
</svg>