<?xml version="1.0" encoding="UTF-8"?>
<svg width="80px" height="80px" viewBox="0 0 80 80" version="1.1" xmlns="http://www.w3.org/2000/svg" xmlns:xlink="http://www.w3.org/1999/xlink">
    <title>icon_discord</title>
    <g id="首页" stroke="none" stroke-width="1" fill="none" fill-rule="evenodd">
        <g id="zclub-home" transform="translate(-370.000000, -6053.000000)">
            <g id="foot" transform="translate(0.000000, 5973.000000)">
                <g id="icon_discord" transform="translate(370.000000, 80.000000)">
                    <rect id="Rectangle-Copy-51" x="0" y="0" width="80" height="80"></rect>
                    <path d="M61.4961786,21.7150654 C57.3430747,19.8324937 52.9615813,18.5012029 48.4631786,17.7550654 C47.8556947,18.8450072 47.2990965,19.9625416 46.7951786,21.1040654 C42.0029362,20.3949398 37.132421,20.3949398 32.3401786,21.1040654 C31.8466386,19.9575472 31.2901236,18.8391758 30.6731786,17.7540654 C26.1751876,18.5100489 21.7940697,19.8454932 17.6391786,21.7270654 C10.2811786,32.0310654 6.95717859,44.6300654 8.28717859,57.1770654 C13.1203925,60.7162407 18.5227929,63.4035747 24.2611786,65.1230654 C25.5476991,63.3972482 26.692118,61.5699236 27.6831786,59.6590654 C25.8154682,58.9740323 24.012922,58.1229601 22.2971786,57.1160654 C22.7411786,56.7860654 23.1861786,56.4560654 23.6071786,56.1260654 C33.7361249,60.8326786 45.4252323,60.8326786 55.5541786,56.1260654 C55.9861786,56.4800654 56.4191786,56.8100654 56.8641786,57.1160654 C55.1468871,58.1206866 53.3442157,58.9716599 51.4771786,59.6590654 C52.4567041,61.5738813 53.5974912,63.4018169 54.8871786,65.1230654 C60.6287789,63.4080448 66.0352076,60.7247841 70.8731786,57.1890654 C72.1991786,44.6310654 68.8661786,32.0230654 61.4961786,21.7150654 L61.4961786,21.7150654 Z M29.0911786,50.0260654 C26.4751786,50.2990654 23.9601786,48.9490654 22.7661786,46.6290654 C21.5722074,44.3102595 21.948478,41.4932176 23.7091786,39.5690654 C25.4821155,37.633679 28.2574977,36.9778959 30.7091786,37.9150654 C33.1631786,38.8520654 34.7801786,41.1890654 34.7741952,43.7920654 C34.7241786,47.2270654 32.2661786,50.0260654 29.0911786,50.0260654 L29.0911786,50.0260654 Z M50.0931786,50.0260654 C46.8701786,49.6800654 44.4281786,46.9870654 44.4281786,43.7800654 C44.4281786,40.5720654 46.8701786,37.8800654 50.0931786,37.5330654 C51.6853285,37.603458 53.1835147,38.3064753 54.2551786,39.4860654 C55.3198658,40.6582287 55.8642716,42.2117151 55.7641786,43.7920654 C55.6901786,47.2270654 53.2441786,50.0260654 50.0691786,50.0260654 L50.0931786,50.0260654 L50.0931786,50.0260654 Z" id="discord" fill="#000000" fill-rule="nonzero"></path>
                </g>
            </g>
        </g>
    </g>
</svg>