<svg width="120" height="400" viewBox="0 0 120 400" fill="none" xmlns="http://www.w3.org/2000/svg">
<path fill-rule="evenodd" clip-rule="evenodd" d="M35.4352 174.372L34.1084 368H65.1779L66.1728 174.372H35.4352ZM68.8384 368H108L109.327 174.372H71.3022L68.8384 368ZM109.364 168.947L110 76.1256C110 76.1256 108.019 19.1481 72.9954 17.0589L71.0768 169.839L109.364 168.947ZM68.7871 17.0727C34.1355 19.3861 36.1084 76.1256 36.1084 76.1256L35.4597 170.794L66.1728 169.839L68.7871 17.0727Z" fill="url(#paint0_linear_52_24539)"/>
<path fill-rule="evenodd" clip-rule="evenodd" d="M9.41638 66.931C9.41638 13.144 46.3352 3.04828 70.926 3.04828C95.5168 3.04828 111 20.2653 111 24.1814V26.1228C107.741 18.6675 92.3902 5.29101 70.926 5.29101C40.0051 5.29101 25 32.9744 25 62.2395C25 108.047 25 273.849 25 273.849H9.41638C9.41638 273.849 9.41638 120.718 9.41638 66.931Z" fill="url(#paint1_linear_52_24539)"/>
<defs>
<linearGradient id="paint0_linear_52_24539" x1="52.1596" y1="-70.9036" x2="-134.837" y2="20.2744" gradientUnits="userSpaceOnUse">
<stop stop-color="#FFD200"/>
<stop offset="1" stop-opacity="0.01"/>
</linearGradient>
<linearGradient id="paint1_linear_52_24539" x1="28.4952" y1="-185.036" x2="-189.207" y2="-58.175" gradientUnits="userSpaceOnUse">
<stop stop-color="#FFD200"/>
<stop offset="1" stop-opacity="0.01"/>
</linearGradient>
</defs>
</svg>
