<?xml version="1.0" encoding="UTF-8"?>
<svg width="104px" height="372px" viewBox="0 0 104 372" version="1.1" xmlns="http://www.w3.org/2000/svg" xmlns:xlink="http://www.w3.org/1999/xlink">
    <title>icon_window</title>
    <defs>
        <linearGradient x1="51.4168615%" y1="0%" x2="49.0727473%" y2="113.028951%" id="linearGradient-1">
            <stop stop-color="#FFD200" offset="0%"></stop>
            <stop stop-color="#000000" stop-opacity="0" offset="100%"></stop>
        </linearGradient>
        <linearGradient x1="54.8000787%" y1="-27.3994377%" x2="42.9640362%" y2="103.260103%" id="linearGradient-2">
            <stop stop-color="#FFD200" offset="0%"></stop>
            <stop stop-color="#000000" stop-opacity="0" offset="100%"></stop>
        </linearGradient>
    </defs>
    <g id="首页" stroke="none" stroke-width="1" fill="none" fill-rule="evenodd">
        <g id="litepaper" transform="translate(-1015.000000, -561.000000)">
            <g id="icon_window" transform="translate(1015.000000, 561.000000)">
                <rect id="Rectangle" x="0" y="0" width="104" height="372"></rect>
                <path d="M27.4353733,174.371143 L58.1727532,174.371644 L57.1773733,367.999143 L26.1083733,368 L27.4353733,174.371143 Z M101.326373,174.371143 L100,368 L60.8383733,367.999143 L63.3021504,174.371644 L101.326373,174.371143 Z M60.7874982,17.0546678 L58.1727532,169.839235 L27.4593733,170.794143 L28.1083733,76.1256049 C26.7794466,37.9071018 37.6724882,18.2167894 60.7874982,17.0546678 Z M102,76.1256049 L101.363373,168.947143 L63.076731,169.839235 L64.9954426,17.0443317 C88.3320748,18.0941061 100.666927,37.7878639 102,76.1256049 Z" id="Combined-Shape-Copy-6" fill="url(#linearGradient-1)"></path>
                <path d="M1.41638501,66.9310135 C1.41638501,13.1440341 38.3351991,3.04828867 62.9260258,3.04828867 C87.5168524,3.04828867 103.000656,20.2653544 103.000656,24.1813754 C103.000656,24.1813754 103.000656,26.1228358 103.000656,26.1228358 C99.7408323,18.6675186 84.3902047,5.29101743 62.9260258,5.29101743 C32.0051316,5.29101743 17,32.9743965 17,62.2394967 C17,92.7777623 17,163.314236 17,273.848918 L1.41638501,273.848918 C1.41638501,171.761635 1.41638501,102.789 1.41638501,66.9310135 Z" id="Rectangle" fill="url(#linearGradient-2)"></path>
            </g>
        </g>
    </g>
</svg>