<?xml version="1.0" encoding="UTF-8"?>
<svg width="80px" height="80px" viewBox="0 0 80 80" version="1.1" xmlns="http://www.w3.org/2000/svg" xmlns:xlink="http://www.w3.org/1999/xlink">
    <title>icon_tw</title>
    <g id="首页" stroke="none" stroke-width="1" fill="none" fill-rule="evenodd">
        <g id="zclub-home" transform="translate(-230.000000, -6053.000000)">
            <g id="foot" transform="translate(0.000000, 5973.000000)">
                <g id="icon_tw" transform="translate(230.000000, 80.000000)">
                    <rect id="Rectangle" x="0" y="0" width="80" height="80"></rect>
                    <path d="M10.7901786,60.4300654 C16.4698699,64.0693766 23.0745523,66.0025391 29.8201786,66.0000678 C52.8831786,66.0000678 65.9041786,46.5720654 65.1231786,29.1430654 C67.5525791,27.3920357 69.6498214,25.2213069 71.3161786,22.7330654 C69.04844,23.7343792 66.6439517,24.3916195 64.1821786,24.6830654 C66.775871,23.1351047 68.716872,20.6953447 69.6421786,17.8200654 C67.2068121,19.2648345 64.5424674,20.2828185 61.7641786,20.8300654 C57.9158376,16.709801 51.7796538,15.688471 46.8041786,18.3400654 C41.8317169,20.9845259 39.2663875,26.6482936 40.5581786,32.1300654 C30.5804695,31.6314547 21.281527,26.9274761 14.9681786,19.1850654 C11.6701786,24.8470654 13.3541786,32.0900654 18.8141786,35.7250654 C16.8405321,35.6658788 14.9097291,35.1350879 13.1831786,34.1770654 C13.1111786,40.1370654 17.2961786,45.3050654 23.1501786,46.4870654 C21.3217376,46.9848361 19.4033457,47.0556596 17.5431786,46.6940654 C19.1687167,51.7477029 23.829354,55.207203 29.1371786,55.3000654 C23.9394732,59.3676575 17.3427994,61.2120513 10.7891786,60.4300654 L10.7901786,60.4300654 Z" id="Path" fill="#000000" fill-rule="nonzero"></path>
                </g>
            </g>
        </g>
    </g>
</svg>