<?xml version="1.0" encoding="UTF-8"?>
<svg width="320px" height="80px" viewBox="0 0 320 80" version="1.1" xmlns="http://www.w3.org/2000/svg" xmlns:xlink="http://www.w3.org/1999/xlink">
    <title>icon_medium</title>
    <g id="首页" stroke="none" stroke-width="1" fill="none" fill-rule="evenodd">
        <g id="zclub-home" transform="translate(-650.000000, -6053.000000)">
            <g id="foot" transform="translate(0.000000, 5973.000000)">
                <g id="icon_medium" transform="translate(650.000000, 80.000000)">
                    <rect id="Rectangle-Copy-52" x="0" y="0" width="320" height="80"></rect>
                    <path d="M207.468,59.2520654 C207.468,60.0380654 207.468,60.2180654 208,60.7030654 L210.977,63.6400654 L210.977,63.7660654 L197.774,63.7660654 L197.774,58.1220654 C196.466978,61.8267837 192.948314,64.2899286 189.02,64.2500654 C182.236,64.2500654 177.31,58.8760654 177.31,48.9870654 C177.31,39.7230654 182.626,33.5410654 190.086,33.5410654 C193.405827,33.3405912 196.486773,35.2698985 197.756,38.3440654 L197.756,25.8900654 C197.854979,25.3154792 197.623143,24.7339552 197.156,24.3850654 L194.319,21.6250654 L194.319,21.5020654 L207.469,19.9420654 L207.469,59.2520654 L207.468,59.2520654 Z M197.774,57.4590654 L197.774,38.8790654 C196.823872,37.681802 195.37127,36.9941161 193.843,37.0180654 C190.633,37.0180654 187.533,39.9540654 187.533,48.6800654 C187.533,56.8500654 190.208,59.7350654 193.539,59.7350654 C195.233372,59.6971547 196.807431,58.8512137 197.774,57.4590654 L197.774,57.4590654 Z M216.221,63.7660654 L216.221,38.6820654 C216.305771,38.1230684 216.10624,37.5586072 215.689,37.1770654 L212.765,34.1320654 L212.765,34.0060654 L225.965,34.0060654 L225.965,59.4490654 C225.965,60.2360654 225.965,60.4150654 226.497,60.8990654 L229.405,63.6580654 L229.405,63.7840654 L216.221,63.7660654 L216.221,63.7660654 Z M215.741,24.8330654 C215.741,21.8630654 218.122,19.4580654 221.059,19.4580654 C223.995,19.4580654 226.373,21.8650654 226.373,24.8330654 C226.373,27.8030654 223.995,30.2070654 221.059,30.2070654 C218.122,30.2070654 215.742,27.8020654 215.742,24.8330654 L215.741,24.8330654 Z M261.581,59.1980654 C261.581,59.9850654 261.581,60.2180654 262.113,60.7030654 L265.09,63.6400654 L265.09,63.7660654 L251.818,63.7660654 L251.818,57.3340654 C250.632537,61.3828015 246.947256,64.1865995 242.729,64.2490654 C236.845,64.2490654 233.691,59.9140654 233.691,51.7070654 C233.691,47.7490654 233.691,43.4120654 233.816,38.5400654 C233.913707,37.9958165 233.71035,37.4411724 233.284,37.0890654 L230.363,34.1300654 L230.363,34.0040654 L243.459,34.0040654 L243.459,50.3620654 C243.459,55.7370654 244.237,59.3200654 247.568,59.3200654 C249.363081,59.2032451 250.976958,58.1855388 251.856,56.6160654 L251.856,38.6980654 C251.940771,38.1390684 251.74124,37.5746072 251.324,37.1930654 L248.384,34.1300654 L248.384,34.0040654 L261.584,34.0040654 L261.584,59.1960654 L261.581,59.1980654 L261.581,59.1980654 Z M306.519,63.7640654 C306.519,62.7980654 306.696,50.4730654 306.696,47.6400654 C306.696,42.2660654 305.863,38.5580654 302.124,38.5580654 C300.2363,38.6191437 298.491172,39.5777191 297.427,41.1380654 C297.803,42.8140654 297.981,44.5280654 297.959,46.2440654 C297.959,49.9700654 297.835,54.7170654 297.782,59.4670654 C297.684,60.0110654 297.887,60.5660654 298.314,60.9180654 L301.29,63.6780654 L301.29,63.8020654 L287.966,63.8020654 C287.966,62.9060654 288.143,50.5080654 288.143,47.6760654 C288.143,42.2130654 287.31,38.5940654 283.624,38.5940654 C281.800717,38.6626619 280.140685,39.6635912 279.229,41.2440654 L279.229,59.5200654 C279.229,60.3090654 279.229,60.4880654 279.761,60.9710654 L282.667,63.7310654 L282.667,63.8550654 L269.484,63.8550654 L269.484,38.7720654 C269.569719,38.212582 269.370514,37.6472319 268.953,37.2650654 L266.029,34.1310654 L266.029,34.0050654 L279.232,34.0050654 L279.232,40.3830654 C280.457,36.1730654 284.358,33.3440654 288.695,33.5220654 C293.088,33.5220654 296.067,35.9950654 297.323,40.6890654 C298.694551,36.3777679 302.722107,33.4688194 307.246,33.5220654 C313.13,33.5220654 316.461,37.9100654 316.461,46.2060654 C316.461,50.1660654 316.337,54.6810654 316.284,59.4280654 C316.17952,59.9885631 316.415577,60.5579231 316.886,60.8800654 L319.792,63.6390654 L319.792,63.7650654 L306.521,63.7650654 L306.519,63.7630654 L306.519,63.7640654 Z M140.685,59.8610654 L144.599,63.6400654 L144.599,63.7660654 L124.737,63.7660654 L124.737,63.6400654 L128.724,59.8610654 C129.15,59.5090654 129.354,58.9540654 129.256,58.4090654 L129.256,34.2390654 C129.256,33.2190654 129.256,31.8390654 129.433,30.6570654 L116.038,64.2490654 L115.878,64.2490654 L102.004,33.3430654 C101.701,32.5740654 101.612,32.5190654 101.417,32.0000654 L101.417,52.2640654 C101.25079,53.6196737 101.478534,54.9944681 102.073,56.2240654 L107.656,63.6400654 L107.656,63.7660654 L92.842,63.7660654 L92.842,63.6400654 L98.422,56.2040654 C99.0120289,54.9801888 99.2399804,53.6131738 99.079,52.2640654 L99.079,29.8680654 C99.1711453,28.7677352 98.843147,27.6733355 98.161,26.8050654 L94.207,21.6250654 L94.207,21.5020654 L108.383,21.5020654 L120.253,47.6760654 L130.707,21.5020654 L144.581,21.5020654 L144.581,21.6260654 L140.685,26.0140654 C140.21602,26.3625884 139.982886,26.9452296 140.082,27.5210654 L140.082,58.4090654 C139.97773,58.9697709 140.214199,59.5391807 140.685,59.8610654 L140.685,59.8610654 Z M156.223,47.7490654 L156.223,47.8730654 C156.223,55.5420654 160.14,58.6230654 164.73,58.6230654 C168.561,58.7550654 172.108,56.5830654 173.765,53.0880654 L173.889,53.0880654 C172.294,60.6680654 167.653,64.2490654 160.707,64.2490654 C153.212,64.2490654 146.142,59.6820654 146.142,49.0920654 C146.142,37.9660654 153.229,33.5220654 161.062,33.5220654 C167.369,33.5220654 174.084,36.5320654 174.084,46.2090654 L174.084,47.7490654 L156.224,47.7490654 L156.223,47.7490654 Z M156.223,46.2090654 L164.96,46.2090654 L164.96,44.6490654 C164.96,36.7650654 163.347,34.6690654 160.92,34.6690654 C157.979,34.6690654 156.188,37.8050654 156.188,46.2090654 L156.223,46.2090654 Z M23.211,65.0540654 C36.0300813,65.0540654 46.422,54.6621467 46.422,41.8430654 C46.422,29.0239841 36.0300813,18.6320654 23.211,18.6320654 C10.3919187,18.6320654 -2.84217094e-14,29.0239841 -2.84217094e-14,41.8430654 C-2.84217094e-14,54.6621467 10.3919187,65.0540654 23.211,65.0540654 Z M60.605,65.0540654 C67.0142645,65.0540654 72.21,54.6621467 72.21,41.8430654 C72.21,29.0239841 67.0142645,18.6320654 60.605,18.6320654 C54.1957355,18.6320654 49,29.0239841 49,41.8430654 C49,54.6621467 54.1957355,65.0540654 60.605,65.0540654 Z M78.658,65.0540654 C80.7942374,65.0540654 82.526,54.6621467 82.526,41.8430654 C82.526,29.0239841 80.7942374,18.6320654 78.658,18.6320654 C76.5217626,18.6320654 74.79,29.0239841 74.79,41.8430654 C74.79,54.6621467 76.5217626,65.0540654 78.658,65.0540654 Z" id="medium" fill="#000000"></path>
                </g>
            </g>
        </g>
    </g>
</svg>