<?xml version="1.0" encoding="UTF-8"?>
<svg width="128px" height="225px" viewBox="0 0 128 225" version="1.1" xmlns="http://www.w3.org/2000/svg" xmlns:xlink="http://www.w3.org/1999/xlink">
    <title>img_foot_l</title>
    <defs>
        <linearGradient x1="50%" y1="0%" x2="50%" y2="100%" id="linearGradient-1">
            <stop stop-color="#967D25" offset="0%"></stop>
            <stop stop-color="#967D25" stop-opacity="0.21" offset="100%"></stop>
        </linearGradient>
        <linearGradient x1="50%" y1="0%" x2="50%" y2="100%" id="linearGradient-2">
            <stop stop-color="#000000" offset="0%"></stop>
            <stop stop-color="#000000" stop-opacity="0.41" offset="100%"></stop>
        </linearGradient>
        <linearGradient x1="50%" y1="0%" x2="50%" y2="100%" id="linearGradient-3">
            <stop stop-color="#000000" offset="0%"></stop>
            <stop stop-color="#000000" stop-opacity="0.41" offset="100%"></stop>
        </linearGradient>
    </defs>
    <g id="首页" stroke="none" stroke-width="1" fill="none" fill-rule="evenodd" opacity="0.495348249">
        <g id="zclub-home" transform="translate(-21.000000, -5986.000000)">
            <g id="foot" transform="translate(0.000000, 5973.000000)">
                <g id="img_foot_l" transform="translate(21.823430, 13.000000)">
                    <path d="M60.904737,208.727555 L70.3973751,209.892951 L70.3189865,218.727555 L58.3973751,218.023459 L60.904737,208.727555 Z M9.98765385,166.980339 L14.7339729,167.563038 L14.6947786,171.980339 L8.73397288,171.628292 L9.98765385,166.980339 Z M46.3482537,175.021342 L55.8408918,176.186738 L55.7625032,185.021342 L43.8408918,184.317246 L46.3482537,175.021342 Z M8.71251481,122.047151 L13.4588338,122.62985 L13.4196395,127.047151 L7.45883384,126.695104 L8.71251481,122.047151 Z M70.8491868,106.041434 L76.386559,106.740672 L76.3408323,112.041434 L69.386559,111.618977 L70.8491868,106.041434 Z M24.1140113,128.244748 L28.8603304,128.827446 L28.8211361,133.244748 L22.8603304,132.8927 L24.1140113,128.244748 Z M39.9174826,122.900547 L45.4548548,123.599785 L45.4091281,128.900547 L38.4548548,128.47809 L39.9174826,122.900547 Z M33.4784716,117.196238 L39.0158438,117.895476 L38.9701171,123.196238 L32.0158438,122.773781 L33.4784716,117.196238 Z M26.5735871,144.624737 L32.1109592,145.323975 L32.0652326,150.624737 L25.1109592,150.20228 L26.5735871,144.624737 Z M64.3654191,148.596819 L69.9027913,149.296057 L69.8570646,154.596819 L62.9027913,154.174362 L64.3654191,148.596819 Z M76.978963,122.740487 L81.725282,123.323186 L81.6860877,127.740487 L75.725282,127.38844 L76.978963,122.740487 Z M59.1777467,111.853275 L64.7151189,112.552513 L64.6693922,117.853275 L57.7151189,117.430817 L59.1777467,111.853275 Z M101.527077,139.431059 L107.06445,140.130297 L107.018723,145.431059 L100.06445,145.008602 L101.527077,139.431059 Z M26.9676645,104.079834 L31.7139836,104.662532 L31.6747893,109.079834 L25.7139836,108.727786 L26.9676645,104.079834 Z M109.845945,97.0352062 L114.592264,97.6179046 L114.55307,102.035206 L108.592264,101.683159 L109.845945,97.0352062 Z M35.6743385,200.042683 L45.1669766,201.20808 L45.088588,210.042683 L33.1669766,209.338588 L35.6743385,200.042683 Z M60.3690428,190.666629 L72.2348403,191.948565 L72.1368546,201.666629 L57.2348403,200.892124 L60.3690428,190.666629 Z M9.23331525,208.418738 L21.0991128,209.700674 L21.001127,219.418738 L6.09911282,218.644233 L9.23331525,208.418738 Z M96.7642747,198.492759 L108.630072,199.774695 L108.532086,209.492759 L93.6300723,208.718254 L96.7642747,198.492759 Z" id="Combined-Shape" fill="url(#linearGradient-1)" transform="translate(60.345689, 158.226972) rotate(-6.000000) translate(-60.345689, -158.226972) "></path>
                    <path d="M15.708485,12 C18.7636773,12 21.2403999,14.4767227 21.2403999,17.5319149 L21.2403999,32 L21.2403999,32 L10.1765701,34 L10.1765701,17.5319149 C10.1765701,14.4767227 12.6532928,12 15.708485,12 Z M36.708485,8 C39.7636773,8 42.2403999,10.4767227 42.2403999,13.5319149 L42.2403999,28 L42.2403999,28 L31.1765701,30 L31.1765701,13.5319149 C31.1765701,10.4767227 33.6532928,8 36.708485,8 Z M74.708485,1 C77.7636773,1 80.2403999,3.47672266 80.2403999,6.53191489 L80.2403999,21 L80.2403999,21 L69.1765701,23 L69.1765701,6.53191489 C69.1765701,3.47672266 71.6532928,1 74.708485,1 Z" id="Combined-Shape" fill="url(#linearGradient-2)"></path>
                    <path d="M49.708485,51 C52.7636773,51 55.2403999,53.4767227 55.2403999,56.5319149 L55.2403999,71 L55.2403999,71 L44.1765701,73 L44.1765701,56.5319149 C44.1765701,53.4767227 46.6532928,51 49.708485,51 Z M74.708485,46 C77.7636773,46 80.2403999,48.4767227 80.2403999,51.5319149 L80.2403999,66 L80.2403999,66 L69.1765701,68 L69.1765701,51.5319149 C69.1765701,48.4767227 71.6532928,46 74.708485,46 Z M112.708485,39 C115.763677,39 118.2404,41.4767227 118.2404,44.5319149 L118.2404,59 L118.2404,59 L107.17657,61 L107.17657,44.5319149 C107.17657,41.4767227 109.653293,39 112.708485,39 Z" id="Combined-Shape-Copy-4" fill="url(#linearGradient-3)"></path>
                    <line x1="14.6765701" y1="11.5" x2="14.6765701" y2="34.5" id="Line" stroke="#FFD53F" stroke-linecap="square"></line>
                    <line x1="48.6765701" y1="50.5" x2="48.6765701" y2="73.5" id="Line-Copy-4" stroke="#FFD53F" stroke-linecap="square"></line>
                    <line x1="35.6765701" y1="8.5" x2="35.6765701" y2="31.5" id="Line-Copy-2" stroke="#FFD53F" stroke-linecap="square"></line>
                    <line x1="73.6765701" y1="46.5" x2="73.6765701" y2="69.5" id="Line-Copy-5" stroke="#FFD53F" stroke-linecap="square"></line>
                    <line x1="73.6765701" y1="0.5" x2="73.6765701" y2="23.5" id="Line-Copy-3" stroke="#FFD53F" stroke-linecap="square"></line>
                    <line x1="111.67657" y1="38.5" x2="111.67657" y2="61.5" id="Line-Copy-6" stroke="#FFD53F" stroke-linecap="square"></line>
                    <line x1="8.67657014" y1="24.5" x2="87.6765701" y2="9.5" id="Line-Copy" stroke="#FFD53F" stroke-linecap="square"></line>
                    <line x1="37.6765701" y1="65.5" x2="125.67657" y2="47.5" id="Line-Copy-7" stroke="#FFD53F" stroke-linecap="square"></line>
                </g>
            </g>
        </g>
    </g>
</svg>