<?xml version="1.0" encoding="UTF-8"?>
<svg width="388px" height="337px" viewBox="0 0 388 337" version="1.1" xmlns="http://www.w3.org/2000/svg" xmlns:xlink="http://www.w3.org/1999/xlink">
    <title>img_hdiw</title>
    <defs>
        <linearGradient x1="89.9404753%" y1="45.978818%" x2="24.6897673%" y2="61.8080484%" id="linearGradient-1">
            <stop stop-color="#2A42A3" offset="0%"></stop>
            <stop stop-color="#000000" offset="100%"></stop>
        </linearGradient>
        <linearGradient x1="76.0544009%" y1="97.6492027%" x2="64.1504819%" y2="10.195805%" id="linearGradient-2">
            <stop stop-color="#D5B613" offset="0%"></stop>
            <stop stop-color="#000000" offset="100%"></stop>
        </linearGradient>
    </defs>
    <g id="首页" stroke="none" stroke-width="1" fill="none" fill-rule="evenodd">
        <g id="litepaper" transform="translate(-682.000000, -1885.000000)">
            <g id="img_hdiw" transform="translate(682.000000, 1885.744889)">
                <rect id="Rectangle" x="0" y="0.255110705" width="388" height="336"></rect>
                <g id="Group-3" transform="translate(54.756318, 20.447323)">
                    <path d="M127.157415,131.129168 L105.336221,147.379536 L112.990452,152.187803 L105.962386,150.970301 L115.909142,155.908385 L106.759793,154.690883 L117.348576,160.259305 L107.495039,158.25093 L119.861151,164.807788 L104.460201,162.00788 L102.086292,142.544505 L127.157415,131.129168 Z M85.8189072,129.925487 L112.538352,137.447215 L85.2265851,135.728767 L88.0572983,144.36623 L83.4044865,138.880097 L87.9246276,149.102716 L81.6314289,142.241674 L86.2431897,153.362376 L79.9134125,145.440217 L85.2647186,158.468647 L75.1535221,146.345733 L85.8189072,129.925487 Z M133.893141,117.519375 L127.456267,144.08772 L136.463582,142.80301 L130.246793,146.427352 L141.110296,143.756001 L133.253119,148.755251 L145.017961,146.149724 L136.108266,151.000696 L149.882379,147.998947 L136.174478,155.84027 L121.837607,142.49732 L133.893141,117.519375 Z M82.035952,110.001882 L97.6639462,132.919574 L77.8477529,114.067141 L74.4579329,122.501333 L74.4240401,115.311287 L71.3083374,126.044508 L70.9025991,116.74798 L67.2791582,128.227998 L67.528236,118.095122 L63.2436817,131.511384 L63.2992417,115.732612 L82.035952,110.001882 Z M130.381382,102.388351 L142.547379,126.873799 L148.620663,120.10634 L146.190617,126.874353 L152.793508,117.852866 L149.991617,126.727359 L157.327332,117.177575 L153.623747,126.614269 L162.243682,115.470871 L156.788771,130.279086 L137.219802,129.263047 L130.381382,102.388351 Z M73.9181092,84.6703397 L91.9590296,92.3105979 L89.1830612,119.900812 L86.1346584,92.7356561 L78.1104396,97.0201255 L82.7113248,91.4904692 L73.4176501,97.7120985 L79.0892218,90.3300334 L68.9260274,96.7977401 L75.6374139,89.1954314 L63.7217897,96.7219069 L73.9181092,84.6703397 Z M150.780929,82.6161171 L156.131421,97.4622941 L140.486893,109.248582 L117.954291,93.0521054 L143.030555,103.997642 L143.32805,94.9140043 L145.821793,101.658859 L145.074507,90.5084893 L148.638937,99.1057524 L148.113063,87.0801607 L151.348535,96.6870441 L150.780929,82.6161171 Z M102.041438,67.6932994 L110.945022,85.1295841 L91.0639972,104.482552 L106.209767,81.7155521 L97.3057701,79.8455477 L104.388628,78.5636688 L93.265595,77.3625373 L102.360685,75.349085 L90.4132089,73.7781684 L100.446572,72.2636322 L86.4753307,70.3785996 L102.041438,67.6932994 Z M120.85767,64.8077881 L134.510011,72.7452367 L130.110172,91.8189166 L102.426643,93.8791699 L128.679711,86.1632579 L123.062216,79.0137754 L129.312898,82.5794793 L121.565098,74.5176098 L129.828013,78.8148871 L121.686612,69.9403966 L130.347229,75.2223011 L120.85767,64.8077881 Z" id="Combined-Shape-Copy-2" fill="#3CB9DB"></path>
                    <path d="M112.233625,152.126004 L135.755753,142.116089 L147.3405,119.328317 L141.784196,94.6511063 L121.137328,79.0595358 L95.6101653,80.4207372 L76.9301875,97.8720218 L73.8379639,123.24774 L87.7803802,144.674311 L112.233625,152.126004 Z M98.5492998,191.806758 L53.9029478,217.890042 L52.3638651,166.205753 L1.39676344,157.488586 L33.4397779,116.906821 L-1.42108547e-14,77.4680618 L50.6318291,66.9774787 L50.3662186,15.2709617 L95.8956667,39.7802212 L128.928506,3.55271368e-15 L148.051838,48.0409472 L198.926694,38.8006295 L182.695891,87.8943712 L227.607854,113.517604 L183.617488,140.692633 L201.551751,189.190022 L150.385404,181.73084 L132.950326,230.409916 L98.5492998,191.806758 Z" id="Combined-Shape" fill="#2A42A3"></path>
                    <path d="M122.150181,77.8077881 L143.498586,93.8119528 L149.243682,119.142188 L137.265309,142.532985 L112.943948,152.807788 L87.6598325,145.158904 L73.2436817,123.165329 L76.4409727,97.1181024 L95.7556576,79.2050105 L122.150181,77.8077881 Z M120.114301,84.8077881 L98.6467554,85.9441956 L82.9374784,100.51351 L80.337015,121.698588 L92.062151,139.586695 L112.626565,145.807788 L132.407939,137.450948 L142.150348,118.426433 L137.477671,97.8245088 L120.114301,84.8077881 Z" id="Combined-Shape" fill="#000000"></path>
                    <path d="M135.755753,142.116089 L99.5423616,168.810702 L112.244952,176.709281 L100.581515,174.709281 L117.088667,182.821112 L101.904853,180.821112 L119.477481,189.968404 L103.125031,186.66923 L123.647229,197.440235 L98.0885615,192.840803 L94.1489373,160.868157 L135.755753,142.116089 Z M68.3073576,139.746576 L112.233625,152.126004 L67.3335913,149.297744 L71.9872308,163.513475 L64.3380952,154.484273 L71.7691226,171.308888 L61.4232216,160.016832 L69.0048702,178.319532 L58.5988349,165.281066 L67.396282,186.723549 L50.7736641,166.771385 L68.3073576,139.746576 Z M147.3405,119.328317 L136.758399,163.055096 L151.566256,160.940691 L141.34597,166.905715 L159.205366,162.509145 L146.288315,170.737024 L165.629495,166.448788 L150.982123,174.432626 L173.626508,169.49228 L151.090975,182.397706 L127.521427,160.43758 L147.3405,119.328317 Z M62.0882501,106.955858 L87.7803802,144.674311 L55.2029291,113.646553 L49.6301284,127.527736 L49.5744093,115.694197 L44.4522523,133.359172 L43.7852262,118.058738 L37.8283571,136.95281 L38.2378363,120.275894 L31.1941092,142.35668 L31.2854489,116.387622 L62.0882501,106.955858 Z M141.567233,94.4253391 L161.567905,134.724039 L171.552269,123.586003 L167.557319,134.72495 L178.412349,119.877184 L173.806092,134.483025 L185.865871,118.765775 L179.777246,134.296899 L193.948257,115.956844 L184.980486,140.328536 L152.809467,138.656316 L141.567233,94.4253391 Z M48.7426683,65.2646377 L78.4016041,77.8391461 L73.8379639,123.24774 L68.8264468,78.5387164 L55.6347811,85.5901924 L63.1985503,76.48936 L47.919923,86.7290571 L57.2438808,74.5794886 L40.5357793,85.2241855 L51.5691731,72.7121353 L31.9801099,85.0993776 L48.7426683,65.2646377 Z M175.103706,61.8837521 L183.899815,86.3179235 L158.180504,105.716061 L121.137328,79.0595358 L162.362237,97.0739465 L162.851312,82.1238909 L166.95098,93.2247233 L165.722455,74.8731954 L171.582311,89.0227639 L170.717784,69.2307752 L176.036841,85.0419996 L175.103706,61.8837521 Z M94.9768954,37.3234437 L109.61422,66.0204724 L76.9301875,97.8720218 L101.829549,60.4015819 L87.1915454,57.3238867 L98.8356311,55.2141416 L80.5495731,53.2372924 L95.5017312,49.9235075 L75.8603037,47.3380577 L92.3549645,44.8454001 L69.3865056,41.7429711 L94.9768954,37.3234437 Z M125.910428,32.5744045 L148.354621,45.6380356 L141.121368,77.029926 L95.6101653,80.4207372 L138.769717,67.7217159 L129.53466,55.9549372 L139.810665,61.8234528 L127.073427,48.555047 L140.657504,55.6276024 L127.273193,41.0217667 L141.511086,49.7148438 L125.910428,32.5744045 Z" id="Combined-Shape" fill="#000000"></path>
                </g>
                <g id="Group-3-Copy" transform="translate(231.000000, 168.255111)">
                    <path d="M81.0900026,85.7928279 L68.0854526,95.5430486 L72.6470654,98.4280088 L68.4586219,97.6975078 L74.3864863,100.660358 L68.9338442,99.929857 L75.2443309,103.27091 L69.372021,102.065885 L76.7417243,106 L67.5633801,104.320055 L66.1486261,92.6420303 L81.0900026,85.7928279 Z M56.4539223,85.0706196 L72.3776317,89.583656 L56.1009223,88.5525875 L57.787913,93.7350653 L55.0150251,90.4433853 L57.7088465,96.5769565 L53.9583544,92.4603315 L56.7067775,99.1327524 L52.9344861,94.3794573 L56.1236483,102.196516 L50.0977837,94.9227672 L56.4539223,85.0706196 Z M85.1042235,77.6269519 L81.2681065,93.5679591 L86.6361024,92.797133 L82.9311469,94.9717384 L89.4053558,93.3689277 L84.722796,96.3684779 L91.7341666,94.8051614 L86.4243483,97.7157445 L94.6331633,95.914695 L86.4638081,100.619489 L77.9196122,92.6137192 L85.1042235,77.6269519 Z M54.1994338,73.1164562 L63.5130869,86.8670715 L51.7034364,75.5556115 L49.6832406,80.616127 L49.6630419,76.3020994 L47.806209,82.7420317 L47.5644053,77.1641151 L45.404981,84.052126 L45.5534213,77.9724002 L43,86.0221574 L43.0331116,76.5548942 L54.1994338,73.1164562 Z M83.0113567,68.5483379 L90.2617996,83.2396066 L93.881231,79.1791314 L92.4330219,83.2399388 L96.3680786,77.8270464 L94.6982645,83.1517428 L99.0700545,77.4218718 L96.8628671,83.0838887 L102,76.39785 L98.7490934,85.2827785 L87.0867788,84.6731553 L83.0113567,68.5483379 Z M49.3615275,57.9175309 L60.1131872,62.5016858 L58.4588221,79.0558143 L56.6420973,62.7567207 L51.859987,65.3274024 L54.6019287,62.0096086 L49.0632741,65.7425862 L52.4433017,61.3133472 L46.3864485,65.1939712 L50.3861636,60.632586 L43.2849331,65.1484713 L49.3615275,57.9175309 Z M95.1686623,56.6849974 L98.3573396,65.5927036 L89.0338329,72.6644765 L75.6053128,62.9465904 L90.5497528,69.5139126 L90.7270475,64.0637297 L92.2132179,68.1106422 L91.7678656,61.4204207 L93.8921218,66.5787785 L93.5787221,59.3634235 L95.506933,65.1275536 L95.1686623,56.6849974 Z M66.1218954,47.7313067 L71.4280714,58.1930776 L59.579784,69.8048585 L68.6060506,56.1446583 L63.2996284,55.0226557 L67.5207255,54.2535284 L60.8918473,53.5328495 L66.3121536,52.3247781 L59.1919404,51.3822282 L65.1714193,50.4735064 L56.8451242,49.3424869 L66.1218954,47.7313067 Z M77.3356091,46 L85.4718528,50.7624692 L82.8497264,62.2066771 L66.351462,63.4428291 L81.9972296,58.8132818 L78.6494294,54.5235924 L82.3745836,56.6630147 L77.7572076,51.825893 L82.6815711,54.4042594 L77.8296249,49.0795651 L82.9910028,52.2487078 L77.3356091,46 Z" id="Combined-Shape-Copy-2" fill="#DC551C"></path>
                    <path d="M72.8003221,98.7300581 L87.7612374,92.3652053 L95.1295507,77.8754897 L91.5955426,62.1843656 L78.463396,52.2703898 L62.227207,53.1359163 L50.3460726,64.2324004 L48.3793077,80.3676739 L57.2471834,93.991863 L72.8003221,98.7300581 Z M63.4958493,125.753181 L34.6100689,142.916368 L33.6952437,109.045857 L0.779252931,103.411231 L21.5444433,76.7654165 L1.03028697e-13,50.9694817 L32.7289426,44.0162363 L32.6369312,10.1291968 L62.01539,26.1220217 L83.4188637,1.79412041e-13 L95.7003314,31.4556747 L128.584367,25.3214549 L118.022208,57.5215196 L147,74.2453714 L118.536366,92.123058 L130.048883,123.879705 L97.0022254,119.069845 L85.6626331,151 L63.4958493,125.753181 Z" id="Combined-Shape" fill="#D5B613"></path>
                    <path d="M78.6706539,52.1772635 L92.2256498,62.2338989 L95.8734514,78.1508141 L88.2678817,92.8490329 L72.8252316,99.3054744 L56.7712888,94.4990978 L47.6178715,80.6788602 L49.6479653,64.3114043 L61.9116669,53.0552447 L78.6706539,52.1772635 Z M77.3779886,56.5758965 L63.7473459,57.2899879 L53.7728686,66.4449977 L52.1217256,79.7571952 L59.566505,90.9976551 L72.6237118,94.9068414 L85.1837339,89.6556023 L91.3695972,77.701051 L88.4027186,64.7552933 L77.3779886,56.5758965 Z" id="Combined-Shape" fill="#000000"></path>
                    <path d="M87.5443327,92.9245054 L64.4711137,109.845125 L72.5645188,114.851711 L65.1332063,113.583993 L75.6506725,118.725749 L65.9763656,117.458031 L77.1726964,123.256124 L66.7537975,121.164913 L79.8294347,127.992211 L63.5448307,125.076821 L61.0347148,104.810672 L87.5443327,92.9245054 Z M44.5698546,91.4225683 L72.5573019,99.2693796 L43.9494233,97.4766619 L46.9144713,106.48743 L42.0408548,100.76419 L46.7755045,111.428623 L40.1836546,104.271052 L45.014272,115.872383 L38.3841078,107.607834 L43.9893664,121.199344 L33.3983312,108.552486 L44.5698546,91.4225683 Z M94.925508,78.4802717 L88.1831643,106.196883 L97.6179322,104.856648 L91.1061174,108.637632 L102.485161,105.850827 L94.2551127,111.066142 L106.578269,108.348005 L97.2457541,113.408633 L111.673534,110.27715 L97.3151084,118.45737 L82.2978643,104.537747 L94.925508,78.4802717 Z M40.6073749,70.637878 L56.9770138,94.5460572 L36.2204199,74.8788346 L32.669732,83.6775471 L32.6342308,76.1767522 L29.3706687,87.3738552 L28.9456757,77.675538 L25.1502802,89.6517146 L25.4111782,79.0809023 L20.9232953,93.077006 L20.9814921,76.6162862 L40.6073749,70.637878 Z M91.2470939,62.695296 L103.990443,88.2389881 L110.351941,81.1790445 L107.806574,88.2395656 L114.722814,78.8281759 L111.787956,88.0862193 L119.471796,78.1236993 L115.592452,87.9682416 L124.621456,76.3432337 L118.907676,91.7914488 L98.4100391,90.7314976 L91.2470939,62.695296 Z M32.1042903,44.2115239 L51.0013638,52.1819889 L48.0936585,80.9646332 L44.9005902,52.6254178 L36.4955727,57.0950591 L41.3147983,51.3264148 L31.5800814,57.8169387 L37.5208041,50.1158257 L26.8753034,56.8630623 L33.9051866,48.9321871 L21.4240926,56.7839517 L32.1042903,44.2115239 Z M112.614725,42.0685193 L118.219131,57.5563379 L101.832174,69.8520214 L78.2302611,52.9555438 L104.496548,64.3741396 L104.808161,54.8979127 L107.420248,61.9342749 L106.637498,50.3019944 L110.371083,59.2708253 L109.820252,46.7254957 L113.209268,56.7475821 L112.614725,42.0685193 Z M61.562245,26.5007475 L70.8883585,44.6906166 L50.0638565,64.8800068 L65.9283861,41.1290324 L56.6018401,39.1782077 L64.0208231,37.8409269 L52.3699337,36.5878833 L61.896642,34.487411 L49.3821843,32.8486005 L59.8916921,31.268607 L45.2574295,29.3021046 L61.562245,26.5007475 Z M81.2714229,23.4905265 L95.5716518,31.7710262 L90.9630131,51.6690574 L61.9657304,53.8183535 L89.4646681,45.768965 L83.5805881,38.3104868 L90.1279041,42.030298 L82.0124227,33.62 L90.6674639,38.1030027 L82.139703,28.8449628 L91.21132,34.3551476 L81.2714229,23.4905265 Z" id="Combined-Shape" fill="#000000"></path>
                </g>
                <polygon id="Rectangle" fill="url(#linearGradient-1)" points="80.6821663 288.401269 196.906667 267.151525 219.952901 229 199.512269 271.035739 103.99196 290.625571 66.441724 335.428903 0.94714611 335.428903"></polygon>
                <polygon id="Rectangle-Copy-352" fill="url(#linearGradient-2)" transform="translate(318.090290, 82.727157) scale(-1, 1) translate(-318.090290, -82.727157) " points="274.005854 61.6255713 364.04988 39.1499153 387.9156 4.96246996e-14 371.553247 39.1499153 287.678284 65.7963191 265.495932 79.0004299 364.04988 165.454314 248.26498 80.0004299"></polygon>
            </g>
        </g>
    </g>
</svg>