<?xml version="1.0" encoding="UTF-8"?>
<svg width="960px" height="484px" viewBox="0 0 960 484" version="1.1" xmlns="http://www.w3.org/2000/svg" xmlns:xlink="http://www.w3.org/1999/xlink">
    <title>img_dual_token_system</title>
    <defs>
        <polygon id="path-1" points="192.73302 0 192.73302 243.769764 2.67470795e-15 243.769764 2.46073132e-13 1.95029088e-12"></polygon>
    </defs>
    <g id="首页" stroke="none" stroke-width="1" fill="none" fill-rule="evenodd">
        <g id="litepaper" transform="translate(-120.000000, -4948.000000)">
            <g id="img_dual_token_system" transform="translate(120.000000, 4948.972069)">
                <g id="Group" transform="translate(27.596912, 241.027931) rotate(90.000000) translate(-27.596912, -241.027931) translate(-213.431019, 213.877645)">
                    <polygon id="Rectangle" fill="#6583FF" points="40.8095634 1.45773348 40.8095634 54.3005723 -5.66346461e-15 54.3005723"></polygon>
                    <polygon id="Rectangle-Copy" fill="#CC980A" transform="translate(451.799881, 27.150286) scale(-1, 1) translate(-451.799881, -27.150286) " points="482.055862 1.65077746e-13 482.055862 54.3005723 421.5439 54.3005723"></polygon>
                    <polygon id="Rectangle" fill="#65B2FF" points="40.8095634 1.45773348 167.921698 1.45773348 421.523984 0 421.523984 54.3005723 40.756183 54.3005723"></polygon>
                    <polygon id="Rectangle-Copy-2" fill="#FFF598" points="167.95725 1.45773348 421.523984 0 421.523984 54.3005723 167.921698 54.3005723"></polygon>
                </g>
                <g id="LA-Copy-3" transform="translate(0.000000, 55.418240)">
                    <mask id="mask-2" fill="white">
                        <use xlink:href="#path-1" transform="translate(96.366510, 121.884882) scale(-1, -1) translate(-96.366510, -121.884882) "></use>
                    </mask>
                    <g id="Mask" transform="translate(96.366510, 121.884882) scale(-1, -1) translate(-96.366510, -121.884882) "></g>
                    <g mask="url(#mask-2)">
                        <g transform="translate(72.253652, 136.508283) rotate(-40.000000) translate(-72.253652, -136.508283) translate(-18.941900, 46.670609)">
                            <path d="M5.48988815,96.0072945 C19.9107208,126.801781 47.8088176,142.638297 89.1841784,143.516842 C130.559539,144.395387 160.157446,128.133699 177.9779,94.7317777 L176.579044,116.91833 C160.633812,148.357037 132.172649,164.076391 91.1955527,164.076391 C50.2184568,164.076391 22.1786013,149.096827 7.0759862,119.137699 L5.48988815,96.0072945 Z" id="Rectangle" fill="#6583FF" fill-rule="evenodd"></path>
                            <path d="M50.1517527,22.7240881 C63.7745474,22.7281472 75.5941734,23.6842414 83.5856459,24.5629892 L84.4577306,24.6602572 C84.6004182,24.6763981 84.7417672,24.6924993 84.8817648,24.7085545 L85.7054311,24.8042793 C85.8399717,24.8201237 85.9731352,24.8359089 86.1049088,24.8516284 L86.8787676,24.9451039 L87.6186499,25.0366877 L88.3239383,25.1260659 L88.9940156,25.2129248 L89.6282645,25.2969506 L90.2260678,25.3778296 L90.7868081,25.4552478 L91.3098681,25.5288915 L91.7946307,25.598447 L92.2404785,25.6636004 L92.6467942,25.724038 L93.1807948,25.8051658 L93.7486722,25.893902 L94.3322549,25.9886994 L94.4228415,26.0039884 C106.960227,28.1145897 143.481314,53.1587673 143.481314,113.832431 C143.481314,174.506094 108.697917,198.611277 94.4228415,201.660873 L94.0006789,201.736049 L93.4902393,201.824216 L92.9840706,201.90963 L92.3765444,202.009954 L91.9171557,202.084398 L91.4156268,202.164386 L90.873121,202.249486 L90.2908011,202.339264 C90.1904946,202.354593 90.0885777,202.370098 89.9850745,202.385772 L89.3452145,202.481756 L88.6684483,202.581337 C88.4368378,202.615082 88.1992701,202.649354 87.955939,202.684081 L87.2088496,202.789556 C78.6776081,203.98099 63.8959955,205.602187 50.1517527,204.940774 C35.3655295,145.425072 34.9607778,83.8689469 50.1517527,22.7240881 Z M53.0091618,27.2941113 L52.8121145,28.1128214 C39.0869727,85.7121184 39.1784034,141.440975 52.8178265,198.664906 L53.0379471,199.579258 L53.2533716,199.585022 C59.8413313,199.750543 66.978003,199.446522 74.3557048,198.779338 L75.2421663,198.69754 C76.425605,198.586169 77.614899,198.46561 78.808788,198.336299 L79.2287019,198.290478 C79.4795098,198.262908 79.7293611,198.235074 79.9782242,198.206989 L80.721818,198.121991 C81.2155291,198.064838 81.7051621,198.006724 82.1904656,197.947742 L82.9151423,197.858631 C83.0353701,197.843674 83.1553194,197.828666 83.2749863,197.813608 L83.989568,197.722672 C84.1080897,197.70742 84.2263211,197.692121 84.3442584,197.676777 L85.0483207,197.584173 L85.7451344,197.490544 L86.4345108,197.395958 L87.1162615,197.300485 L87.7901977,197.204193 L88.456131,197.107152 L89.1138727,197.009431 L89.8320722,196.900557 L90.58919,196.783182 L91.3084633,196.669009 L91.8225223,196.585687 L92.4733258,196.477944 L93.1713338,196.359137 L93.7108713,196.264008 L93.7798025,196.249092 C96.0979845,195.736307 98.8850832,194.608341 101.847448,192.938659 L102.154513,192.764004 L102.462756,192.585502 C102.720096,192.435153 102.978588,192.280815 103.238043,192.122536 L103.549841,191.930713 L103.862492,191.735125 C103.914667,191.702214 103.966875,191.669147 104.019114,191.635924 L104.332909,191.434722 C104.804124,191.130123 105.277608,190.812969 105.752265,190.483533 L105.908641,190.374585 C111.263989,186.629243 116.440115,181.577245 121.006481,175.373037 C126.305259,168.173719 130.635574,161.458702 133.733277,151.628043 C137.242139,140.492557 139.108861,127.895946 139.108861,113.832431 C139.108861,99.8137086 137.157409,87.1781191 133.499321,75.9372666 C130.28679,66.0655533 125.811004,57.4385598 120.367835,50.1350699 C115.713158,43.889557 110.476199,39.7035576 105.170489,35.9795068 L105.030673,35.8817102 L104.751518,35.6884774 L104.473054,35.498406 C104.380354,35.4355776 104.287781,35.373279 104.195345,35.3115129 L103.918457,35.1278151 C103.826305,35.067117 103.734301,35.0069542 103.642455,34.9473296 L103.367406,34.7700733 L103.093373,34.5960632 L102.820423,34.4253162 L102.54862,34.2578492 L102.278031,34.0936793 L102.008721,33.9328233 L101.740754,33.7752983 L101.474197,33.6211212 L101.209114,33.4703089 C101.121006,33.4206008 101.033155,33.3714563 100.945571,33.3228784 L100.683634,33.1788466 L100.423367,33.0382306 C100.336897,32.9919297 100.250717,32.946201 100.164837,32.9010472 L99.9081075,32.7673134 C99.7802043,32.7013117 99.653001,32.63661 99.5265346,32.5732178 L99.2745951,32.4481822 C99.19095,32.4070876 99.1076433,32.3665778 99.0246858,32.3266556 L98.7768721,32.2086549 L98.5312193,32.094197 C98.4904609,32.0754169 98.4497953,32.0567851 98.4092237,32.0383019 L98.1669349,31.9291901 C98.1267453,31.9113031 98.0866526,31.8935655 98.0466581,31.8759777 L97.8078803,31.7722501 C97.7286878,31.7382751 97.649899,31.7049018 97.5715249,31.6721332 L97.3376573,31.5756439 C97.2601233,31.5440873 97.1830148,31.5131382 97.1063428,31.4827992 L96.8776467,31.3936161 C96.6881758,31.3208272 96.5015007,31.25187 96.3177913,31.1867887 L96.0987747,31.1105545 L95.8826706,31.038058 C95.1672507,30.8026519 94.5014635,30.6298254 93.8962027,30.5224044 L93.4740935,30.4518818 L92.9883093,30.3743914 L92.6086946,30.3154143 L92.0669527,30.2332032 L91.4849914,30.1471355 L91.0224242,30.080204 L90.299598,29.9779704 L89.8172511,29.9112188 L89.3268215,29.8445006 L88.5761573,29.7445545 L87.8076553,29.6448592 L87.0215246,29.54552 L86.4877472,29.4795437 L85.9462896,29.4138037 L85.3972141,29.3483311 L84.8405824,29.2831571 L84.2764567,29.218313 L83.4163521,29.1217334 L82.5397343,29.0260713 L81.6468126,28.9314321 C81.546701,28.9209773 81.4462914,28.9105435 81.345585,28.9001311 C72.5878914,27.9946482 63.2151531,27.4127315 53.5193584,27.2996859 L53.0091618,27.2941113 Z" id="Rectangle" fill="#000000" fill-rule="nonzero" transform="translate(91.195553, 113.909073) rotate(90.000000) translate(-91.195553, -113.909073) "></path>
                            <g id="LA" stroke-width="1" fill="none" fill-rule="evenodd" transform="translate(91.264666, 72.865775) rotate(90.000000) translate(-91.264666, -72.865775) translate(18.390446, -18.242567)">
                                <g id="Icon/coin/aht">
                                    <ellipse id="Oval-Copy-3" fill="#80D4FF" cx="72.8742203" cy="91.1083427" rx="66.0422622" ry="82.5669356"></ellipse>
                                    <path d="M72.8742203,0 C113.121541,0 145.748441,40.7905945 145.748441,91.1083427 C145.748441,141.426091 113.121541,182.216685 72.8742203,182.216685 C32.6268998,182.216685 0,141.426091 0,91.1083427 C0,40.7905945 32.6268998,0 72.8742203,0 Z M18.2635772,52.5206808 C0.0932344217,91.0379554 9.81327896,139.53866 39.9739043,160.850038 C70.1345297,182.161415 109.314521,168.213279 127.484863,129.696005 C145.655206,91.1787301 135.935162,42.678025 105.774536,21.3666478 C75.613911,0.0552705638 36.43392,14.0034063 18.2635772,52.5206808 Z M126.323897,70.1189632 L126.567506,71.1898903 C135.08504,109.669759 117.949933,149.781248 88.2951711,160.78141 C69.7905985,167.645511 50.7837312,161.552398 37.0371596,146.650478 L36.6433442,146.219233 L36.8652914,146.43636 C44.9403739,154.281409 55.1659797,159.03567 66.6256589,159.370146 C96.6782126,160.247299 123.837566,130.396119 127.287772,92.6956694 C128.008851,84.8164325 127.637264,77.2179277 126.323897,70.1189632 Z M109.103529,35.99671 L109.12437,36.017202 C101.011699,28.0299772 90.6953954,23.182598 79.1199618,22.8447426 C49.0674082,21.9675903 21.9080548,51.8187705 18.4578483,89.5192197 C17.7367695,97.3984565 18.1083567,104.996961 19.4217239,112.095926 L19.1781149,111.024999 C10.6605802,72.5451303 27.7956882,32.4336406 57.4504496,21.4334792 C76.1329493,14.5033774 95.3274495,20.7808636 109.103529,35.99671 Z" id="Shape" fill="#000000"></path>
                                    <path d="M102.479372,130.968243 L75.8790694,130.968243 L74.2875983,108.155288 L53.2574442,108.155288 L45.1864121,130.968243 L34.1597908,130.968243 L67.6943608,39.8598999 L94.6356933,39.8598999 L102.479372,130.968243 Z M56.9329846,96.8026141 L73.7851481,96.8026141 L69.4954717,58.7933196 L56.9329846,96.8026141 Z" id="Shape" fill="#000000"></path>
                                </g>
                            </g>
                            <path d="M25.6778676,127.348564 C27.8882857,129.417637 30.1352408,131.203639 32.418733,132.706572 C34.7022252,134.209504 36.9771507,135.581924 39.2435095,136.823832 L39.2435095,140.103732 L32.0543619,136.425992 L32.0543619,147.3924 L25.6778676,142.290333 L25.6778676,127.348564 Z" id="Rectangle" fill="#000000" fill-rule="evenodd"></path>
                            <path d="M164.432864,124.615314 L170.991543,127.712998 L170.991543,143.565849 L170.991543,143.565849 C166.383881,141.267281 159.899984,136.09734 157.243594,133.361715 C157.243594,133.361715 157.304322,132.025459 157.425779,129.352948 L164.432864,134.123988 L164.432864,124.615314 Z M148.106558,113.544501 C151.402852,117.602669 155.322031,121.388993 159.864094,124.903473 L159.864094,128.183373 L152.674825,123.13752 L152.674825,135.107607 L148.106558,128.48627 L148.106558,113.544501 L148.106558,113.544501 Z" id="Combined-Shape" fill="#000000" fill-rule="evenodd" transform="translate(159.549051, 128.555175) scale(-1, 1) translate(-159.549051, -128.555175) "></path>
                            <path d="M132.999287,134.863854 C136.044799,137.349951 139.963977,139.435585 144.756824,141.120758 L144.756824,146.222825 L137.567554,143.363572 L137.385369,153.511492 L132.817102,150.716705 C132.938559,140.148138 132.999287,134.863854 132.999287,134.863854 Z" id="Combined-Shape-Copy" fill="#000000" fill-rule="evenodd" transform="translate(138.786963, 144.187673) scale(-1, 1) translate(-138.786963, -144.187673) "></path>
                            <path d="M35.3335795,133.543932 C39.2630133,135.080501 45.1715992,138.158291 49.0815292,141.014816 C49.0815292,141.014816 49.0208007,142.108116 48.8993437,144.294716 L41.8922593,140.616976 L41.8922593,151.583384 L35.3335795,148.4857 C35.3335795,138.524521 35.3335795,133.543932 35.3335795,133.543932 Z" id="Rectangle-Copy-5" fill="#000000" fill-rule="evenodd" transform="translate(42.207554, 142.563658) rotate(180.000000) translate(-42.207554, -142.563658) "></path>
                            <path d="M12.6390647,113.706833 C16.1260699,116.682691 20.3352407,123.094935 22.3002532,127.575213 C20.9944177,126.1058 19.3842196,124.739918 17.4696589,123.477568 L17.4696589,133.543932 L12.6390647,128.648601 C12.6390647,118.687422 12.6390647,113.706833 12.6390647,113.706833 Z" id="Rectangle-Copy-6" fill="#000000" fill-rule="evenodd" transform="translate(17.469659, 123.625382) rotate(180.000000) translate(-17.469659, -123.625382) "></path>
                            <path d="M107.869376,133.647494 C95.9173162,142.102467 82.6693925,157.890728 73.254007,173.546034 C77.4225736,159.064112 92.5632097,141.020205 107.869376,133.647494 Z" id="Path-Copy-2" fill="#000000" fill-rule="nonzero" transform="translate(90.561691, 153.596764) rotate(-130.000000) translate(-90.561691, -153.596764) "></path>
                            <path d="M107.869376,128.545426 C95.9173162,137.0004 82.6693925,152.78866 73.254007,168.443966 C77.4225736,153.962045 92.5632097,135.918137 107.869376,128.545426 Z" id="Path-Copy-3" fill="#000000" fill-rule="nonzero" transform="translate(90.561691, 148.494696) rotate(-130.000000) translate(-90.561691, -148.494696) "></path>
                        </g>
                    </g>
                </g>
                <g id="AUT/透视-02" transform="translate(166.374547, 286.551388) rotate(-29.000000) translate(-166.374547, -286.551388) translate(75.204027, 190.456454)">
                    <path d="M5.46380659,103.832179 C19.8848158,137.129262 47.7832542,154.252774 89.1591216,155.202716 C130.534989,156.152658 160.133259,138.569421 177.953931,102.453004 L176.555057,126.442606 C160.60963,160.436263 132.148118,177.433092 91.1705205,177.433092 C50.1929229,177.433092 22.1527241,161.236174 7.04992406,128.842338 L5.46380659,103.832179 Z" id="Rectangle" fill="#CC980A"></path>
                    <path d="M182.341041,78.8018755 L182.341041,79.2432604 L182.341041,79.2432604 L182.338133,80.1224677 L182.338133,80.1224677 L182.333422,80.9968371 C182.332455,81.1421564 182.331398,81.2872697 182.330252,81.4321749 L182.322318,82.2990906 C182.319322,82.5872182 182.315979,82.8744958 182.312296,83.1609057 L182.300237,84.0175152 C182.295883,84.3021724 182.291198,84.5859444 182.28619,84.8688138 L182.270204,85.7146966 L182.270204,85.7146966 L182.252329,86.5550583 L182.252329,86.5550583 L182.232614,87.3897939 L182.232614,87.3897939 L182.211108,88.2187982 L182.211108,88.2187982 L182.187861,89.0419661 C182.183844,89.1786686 182.179757,89.3151235 182.1756,89.4513286 L182.149835,90.2655449 L182.149835,90.2655449 L182.122451,91.073662 C182.117755,91.2078341 182.112994,91.3417476 182.108169,91.4754005 L182.078452,92.2741718 C182.073373,92.4067731 182.068232,92.5391093 182.06303,92.6711782 L182.03109,93.4603671 C182.025647,93.5913582 182.020145,93.7220777 182.014585,93.8525233 L181.980533,94.6318933 L181.980533,94.6318933 L181.945136,95.404586 L181.945136,95.404586 L181.908443,96.1704963 L181.908443,96.1704963 L181.870503,96.929519 L181.870503,96.929519 L181.831364,97.6815491 L181.831364,97.6815491 L181.791078,98.4264814 L181.791078,98.4264814 L181.749693,99.1642108 L181.749693,99.1642108 L181.707258,99.8946322 L181.707258,99.8946322 L181.663823,100.617641 L181.663823,100.617641 L181.619437,101.333131 L181.619437,101.333131 L181.574151,102.040997 L181.574151,102.040997 L181.528012,102.741135 L181.528012,102.741135 L181.481071,103.43344 L181.481071,103.43344 L181.433377,104.117806 L181.433377,104.117806 L181.384979,104.794128 L181.384979,104.794128 L181.335927,105.462301 L181.335927,105.462301 L181.261231,106.449052 L181.261231,106.449052 L181.210759,107.096393 L181.210759,107.096393 L181.159807,107.735217 L181.159807,107.735217 L181.108422,108.365419 L181.108422,108.365419 L181.056655,108.986894 L181.056655,108.986894 L181.004554,109.599537 L181.004554,109.599537 L180.925887,110.501711 L180.925887,110.501711 L180.87317,111.091813 L180.87317,111.091813 L180.820293,111.672715 L180.820293,111.672715 L180.767305,112.244313 L180.767305,112.244313 L180.714256,112.806499 L180.714256,112.806499 L180.634674,113.631905 L180.634674,113.631905 L180.555233,114.435546 L180.555233,114.435546 L180.502432,114.959041 L180.502432,114.959041 L180.405179,115.902159 L180.356889,116.360732 L180.356889,116.360732 L180.26118,117.251488 L180.213838,117.683504 L180.213838,117.683504 L180.120378,118.520395 L180.028808,119.320543 L179.939444,120.083279 L179.852599,120.807935 L179.768587,121.493845 L179.687721,122.140341 L179.610315,122.746755 L179.536683,123.31242 L179.467138,123.836667 L179.401995,124.318831 L179.341567,124.758242 L179.260452,125.335738 L179.17173,125.94987 L179.076948,126.580987 L179.061661,126.678952 C176.951394,140.237539 151.911189,179.733357 91.2471503,179.733357 C30.5831111,179.733357 6.4817523,142.116768 3.43263959,126.678952 L3.35747602,126.222404 L3.26932249,125.670387 L3.18392207,125.12299 L3.08361445,124.465979 L3.00918228,123.969172 L2.92920672,123.426793 L2.84412057,122.840099 L2.73123549,122.046329 L2.73123549,122.046329 L2.61188671,121.18774 L2.51232189,120.45585 L2.40959414,119.685305 L2.40959414,119.685305 L2.30413625,118.877363 L2.19583722,118.028974 L2.19583722,118.028974 L2.08565718,117.14536 L2.08565718,117.14536 L2.01137577,116.537345 L2.01137577,116.537345 L1.93658378,115.914621 L1.93658378,115.914621 L1.86141139,115.277565 L1.86141139,115.277565 L1.78598877,114.626557 C1.77340471,114.516914 1.76081566,114.406705 1.74822431,114.295939 L1.63491355,113.284195 C1.62233286,113.170153 1.60975803,113.055577 1.59719175,112.940475 L1.52191845,112.24361 L1.52191845,112.24361 L1.4469807,111.534495 L1.4469807,111.534495 L1.37250868,110.813508 L1.37250868,110.813508 L1.29863256,110.081027 C1.28637676,109.95801 1.27415122,109.83453 1.26195864,109.710594 L1.18922044,108.961582 C1.17717057,108.835857 1.16515909,108.709692 1.15318871,108.583096 L1.08188132,107.818403 C1.07008619,107.690112 1.05833758,107.561405 1.04663821,107.43229 L0.977054529,106.652767 C0.965562954,106.522052 0.954126039,106.390944 0.942746496,106.259453 L0.875179405,105.465952 C0.830622585,104.933961 0.787070505,104.396073 0.744696731,103.852792 L0.682041494,103.033889 C0.671753474,102.896752 0.661544523,102.759294 0.651417351,102.621523 L0.591657376,101.791195 C0.581868172,101.652201 0.572166171,101.51291 0.562554087,101.373329 L0.505982263,100.532428 C0.450532819,99.6881765 0.398515602,98.8340607 0.350516391,97.9717834 L0.303878211,97.1068486 C-0.00536739161,91.178732 -0.117876885,84.8960109 0.153259528,78.8018755 C1.9485044,78.319455 3.74560612,77.8511903 5.54449735,77.3971174 L5.57248196,79.6946275 L5.57248196,79.6946275 L5.59970437,81.679922 L5.59970437,81.679922 L5.63520195,83.9986842 L5.63520195,83.9986842 L5.65727861,85.3183322 L5.65727861,85.3183322 L5.68669295,86.9560493 L5.68669295,86.9560493 L5.71811373,88.5744229 L5.71811373,88.5744229 L5.74468481,89.8507409 L5.74468481,89.8507409 L5.77967899,91.4175961 L5.77967899,91.4175961 L5.8166372,92.9465523 L5.8166372,92.9465523 L5.84760767,94.1379767 L5.84760767,94.1379767 L5.88806293,95.5820149 L5.88806293,95.5820149 L5.92181142,96.6969166 L5.92181142,96.6969166 L5.95678197,97.7722945 L5.95678197,97.7722945 L5.99296684,98.8047558 L5.99296684,98.8047558 L6.02089771,99.5488966 L6.02089771,99.5488966 L6.049504,100.265557 L6.049504,100.265557 L6.07878243,100.953305 L6.07878243,100.953305 L6.10872973,101.61071 L6.10872973,101.61071 L6.13934263,102.23634 L6.13934263,102.23634 L6.16011939,102.635067 L6.16011939,102.635067 L6.18118955,103.018612 L6.18118955,103.018612 L6.20255213,103.38655 L6.20255213,103.38655 L6.22420617,103.738458 L6.22420617,103.738458 L6.2572316,104.235334 L6.2572316,104.235334 L6.27961005,104.545309 C6.28336382,104.595524 6.2871296,104.645009 6.29090736,104.693755 L6.31371754,104.977299 L6.31371754,104.977299 L6.39550302,105.935964 C6.50685606,107.215797 6.6273957,108.501962 6.75668628,109.793096 L6.80249983,110.247213 C6.83006587,110.51845 6.85789495,110.788652 6.88597556,111.057786 L6.97096045,111.861947 C7.02810474,112.395872 7.08620907,112.925387 7.14518132,113.45022 L7.23427912,114.233923 L7.27929463,114.623077 L7.27929463,114.623077 L7.37021569,115.395863 L7.41610398,115.779444 L7.41610398,115.779444 L7.50869285,116.540854 L7.60230723,117.294425 L7.69687803,118.039953 L7.79233615,118.777234 L7.8886125,119.506064 L7.98563799,120.226239 L8.08334352,120.937555 L8.19220088,121.714254 L8.30955721,122.533041 L8.42371233,123.310901 L8.50702106,123.866831 L8.61474678,124.570644 L8.7335351,125.325506 L8.82864862,125.908991 L8.843562,125.983536 C9.35626635,128.49054 10.4840533,131.504655 12.1534705,134.708311 L12.3280979,135.040387 L12.5065714,135.373737 C12.6568969,135.652038 12.8112099,135.931585 12.9694634,136.212174 L13.161256,136.549368 L13.3568134,136.887485 L13.4559983,137.056865 L13.4559983,137.056865 L13.6571691,137.396219 C13.9617194,137.905815 14.2788235,138.417866 14.6082069,138.931185 L14.7171379,139.100298 C18.4162178,144.821224 23.3900765,150.353028 29.4898732,155.246931 L29.9321097,155.599491 L29.9321097,155.599491 L30.3629317,155.940793 L30.3629317,155.940793 L30.7928507,156.27956 L30.7928507,156.27956 L31.2220395,156.615779 L31.2220395,156.615779 L31.6506708,156.949437 L31.6506708,156.949437 L32.0789175,157.28052 C32.2216215,157.39045 32.3642901,157.499948 32.5069523,157.609013 L32.9349479,157.934904 L32.9349479,157.934904 L33.3630772,158.258178 L33.3630772,158.258178 L33.7915129,158.578822 C34.0058361,158.738484 34.220339,158.897155 34.4351188,159.054826 L34.8650764,159.368835 L34.8650764,159.368835 L35.2959451,159.680165 C40.6163207,163.503334 46.1839996,166.712305 53.4575332,169.191319 C64.5912526,172.985986 77.1858655,175.004757 91.2471503,175.004757 C105.263649,175.004757 117.897234,172.894354 129.136303,168.938307 C139.006451,165.464107 147.632076,160.623757 154.934407,154.737229 C158.914432,151.528866 162.057952,148.064694 164.778536,144.488506 L165.058484,144.118162 C165.104896,144.056373 165.151187,143.994553 165.197358,143.932701 L165.472971,143.561225 C165.65578,143.313333 165.836748,143.064967 166.016009,142.816175 L166.283638,142.442672 C166.328035,142.38037 166.37233,142.318043 166.416524,142.255692 L166.680504,141.881296 L166.680504,141.881296 L166.94218,141.506348 L166.94218,141.506348 L167.201651,141.130884 L167.201651,141.130884 L167.459021,140.754939 L167.459021,140.754939 L167.714392,140.378549 L167.714392,140.378549 L167.967863,140.001749 L167.967863,140.001749 L168.219539,139.624574 L168.219539,139.624574 L168.46952,139.24706 L168.46952,139.24706 L168.717908,138.869241 L168.717908,138.869241 L168.964804,138.491155 L168.964804,138.491155 L169.185506,138.150818 L169.378708,137.848925 L169.568749,137.547779 C169.631568,137.447529 169.693857,137.347415 169.755613,137.24745 L169.939282,136.948009 C169.99997,136.848351 170.060123,136.748853 170.119738,136.649526 L170.296967,136.352073 L170.470949,136.05572 L170.641669,135.760537 L170.809109,135.466596 L170.973253,135.173967 L171.134084,134.88272 L171.291584,134.592927 L171.445737,134.304658 L171.596525,134.017983 C171.646225,133.922699 171.695362,133.827692 171.743932,133.732974 L171.887941,133.449702 L172.028535,133.168236 C172.074828,133.074723 172.12055,132.981522 172.165696,132.888647 L172.299409,132.611007 C172.3654,132.472685 172.430091,132.335121 172.493474,132.198354 L172.618489,131.925893 C172.659578,131.835435 172.700081,131.745343 172.739997,131.655628 L172.857979,131.387629 L172.972418,131.121968 L173.028305,130.990035 L173.028305,130.990035 L173.164113,130.662895 L173.164113,130.662895 L173.294314,130.339711 C173.328284,130.254068 173.361652,130.168862 173.394415,130.084104 L173.490889,129.831187 C173.522441,129.747338 173.553385,129.663949 173.583719,129.581031 L173.672888,129.333708 C173.745666,129.128804 173.814612,128.926923 173.879683,128.728251 L173.955905,128.491394 L174.02839,128.257688 C174.263759,127.483996 174.436558,126.763978 174.543962,126.109418 L174.614473,125.652927 L174.691951,125.127574 L174.750919,124.717039 L174.833117,124.131171 L174.919171,123.501807 L174.986092,123.001563 L175.088309,122.219861 L175.15505,121.698226 L175.221758,121.167849 L175.321688,120.356042 L175.421368,119.524943 L175.520691,118.67478 L175.586657,118.097525 L175.652387,117.511965 L175.717849,116.918166 L175.783012,116.316195 L175.847846,115.70612 L175.944411,114.775958 L176.040057,113.827937 L176.165978,112.536522 L176.165978,112.536522 L176.183194,112.353126 L176.183194,112.353126 L176.21739,111.969243 L176.21739,111.969243 L176.251269,111.563052 L176.251269,111.563052 L176.284831,111.13513 C176.295966,110.988931 176.307046,110.839207 176.318074,110.686052 L176.350995,110.216396 L176.350995,110.216396 L176.383592,109.726738 L176.383592,109.726738 L176.415865,109.217653 L176.415865,109.217653 L176.447811,108.689718 L176.447811,108.689718 L176.479428,108.143511 L176.479428,108.143511 L176.510715,107.579606 L176.510715,107.579606 L176.54167,106.998581 L176.54167,106.998581 L176.572291,106.401012 L176.572291,106.401012 L176.617592,105.474899 L176.617592,105.474899 L176.662132,104.514804 L176.662132,104.514804 L176.691399,103.856822 L176.691399,103.856822 L176.720323,103.185178 L176.720323,103.185178 L176.763063,102.153356 L176.763063,102.153356 L176.818832,100.735156 L176.818832,100.735156 L176.859739,99.6421983 L176.859739,99.6421983 L176.89985,98.5262821 L176.89985,98.5262821 L176.952083,97.0060424 L176.952083,97.0060424 L177.015348,95.0602336 L177.015348,95.0602336 L177.064322,93.4727991 L177.064322,93.4727991 L177.13502,91.0511418 L177.13502,91.0511418 L177.19137,89.0058707 L177.19137,89.0058707 L177.255871,86.5323501 L177.255871,86.5323501 L177.30699,84.4656541 L177.30699,84.4656541 L177.365133,81.9925771 L177.365133,81.9925771 L177.428493,79.1365835 L177.428493,79.1365835 L177.462507,77.5277183 L177.462507,77.5277183 C179.088991,77.9399878 180.715161,78.3649671 182.341041,78.8018755 Z" id="Path" fill="#000000" fill-rule="nonzero"></path>
                    <g id="Icon/coin/aut" transform="translate(0.145744, 0.000000)">
                        <ellipse id="Oval-Copy-3" fill="#FFE666" cx="91.0938908" cy="78.8100033" rx="82.5538385" ry="71.4215655"></ellipse>
                        <path d="M91.0938908,0 C141.403657,0 182.187782,35.2844403 182.187782,78.8100033 C182.187782,122.335566 141.403657,157.620007 91.0938908,157.620007 C40.7841241,157.620007 0,122.335566 0,78.8100033 C0,35.2844403 40.7841241,0 91.0938908,0 Z M22.829751,45.4311307 C0.116544454,78.7491172 12.2667489,120.702912 49.9679922,139.137554 C87.6692355,157.572197 136.644824,145.506862 159.35803,112.188876 C182.071237,78.8708893 169.921033,36.9170944 132.219789,18.4824521 C94.518546,0.0478098184 45.5429576,12.1131442 22.829751,45.4311307 Z M157.906804,60.6538935 L158.211319,61.5802606 C168.858368,94.8658903 147.439221,129.562895 110.370315,139.07819 C87.2393162,145.015735 63.4804413,139.745106 46.2970163,126.854735 L45.8047411,126.481701 L46.0821785,126.66952 C56.1761551,133.455597 68.9583189,137.5681 83.2830933,137.857428 C120.849245,138.616177 154.798853,112.794484 159.111664,80.1830632 C160.013023,73.3674121 159.548533,66.7945981 157.906804,60.6538935 Z M135.758535,31.7207322 L99.2592747,84.7476088 L157.769016,83.7243276 L31.5679333,125.677661 L85.5804577,63.8019127 L40.5652482,60.9546119 L135.758535,31.7207322 Z M136.381082,31.1376626 L136.407132,31.1553885 C126.266169,24.2463261 113.370632,20.0532747 98.9011632,19.761025 C61.3350112,19.0022758 27.3854038,44.8239683 23.0725929,77.4353894 C22.1712334,84.2510406 22.635723,90.8238545 24.2774521,96.9645591 L23.9729371,96.0381921 C13.3258885,62.7525623 34.7450356,28.0555572 71.8139413,18.5402622 C95.1673518,12.5456263 119.160771,17.9757406 136.381082,31.1376626 Z" id="Shape" fill="#000000"></path>
                    </g>
                    <path d="M25.6520332,137.720481 C27.8624784,139.957702 30.109461,141.888849 32.3929812,143.513921 C34.6765013,145.138993 36.9514546,146.622947 39.2178412,147.965781 L39.2178412,151.512231 L32.0286056,147.53561 L32.0286056,159.393232 L25.6520332,153.876531 L25.6520332,137.720481 Z" id="Rectangle" fill="#000000"></path>
                    <path d="M164.408728,134.765106 L170.967488,138.114531 L170.967488,155.255706 L170.967488,155.255706 C166.359769,152.770339 159.875793,147.180249 157.21937,144.222306 C157.21937,144.222306 157.280099,142.777456 157.401558,139.887756 L164.408728,145.046527 L164.408728,134.765106 Z M148.082222,122.794594 C151.378557,127.18256 155.297784,131.276589 159.839903,135.076682 L159.839903,138.623132 L152.650545,133.167214 L152.650545,146.110083 L148.082222,138.950645 L148.082222,122.794594 L148.082222,122.794594 Z" id="Combined-Shape" fill="#000000" transform="translate(159.524855, 139.025150) scale(-1, 1) translate(-159.524855, -139.025150) "></path>
                    <path d="M132.974767,145.84652 C136.020316,148.534656 139.939542,150.789786 144.732448,152.611908 L144.732448,158.128608 L137.54309,155.03699 L137.360902,166.009609 L132.792579,162.987696 C132.914038,151.560245 132.974767,145.84652 132.974767,145.84652 Z" id="Combined-Shape-Copy" fill="#000000" transform="translate(138.762513, 155.928064) scale(-1, 1) translate(-138.762513, -155.928064) "></path>
                    <path d="M35.3078633,144.419331 C39.2373453,146.080773 45.1460035,149.408688 49.0559814,152.497356 C49.0559814,152.497356 48.9952521,153.679506 48.8737936,156.043806 L41.8666234,152.067185 L41.8666234,163.924807 L35.3078633,160.575382 C35.3078633,149.804681 35.3078633,144.419331 35.3078633,144.419331 Z" id="Rectangle-Copy-5" fill="#000000" transform="translate(42.181922, 154.172069) rotate(180.000000) translate(-42.181922, -154.172069) "></path>
                    <path d="M12.6130706,122.970118 C16.1001186,126.187817 20.3093409,133.121169 22.2743775,137.965548 C20.9685259,136.37672 19.3583081,134.899836 17.4437241,133.534897 L17.4437241,144.419331 L12.6130706,139.126168 C12.6130706,128.355468 12.6130706,122.970118 12.6130706,122.970118 Z" id="Rectangle-Copy-6" fill="#000000" transform="translate(17.443724, 133.694724) rotate(180.000000) translate(-17.443724, -133.694724) "></path>
                    <path d="M107.871644,146.175032 C95.6878198,154.435758 82.4397339,170.224212 73.201659,186.028587 C76.9896163,171.227077 92.1304378,153.182948 107.871644,146.175032 Z" id="Path-Copy-2" fill="#000000" fill-rule="nonzero" transform="translate(90.536651, 166.101809) rotate(-130.000000) translate(-90.536651, -166.101809) "></path>
                    <path d="M107.871644,140.658331 C95.6878198,148.919057 82.4397339,164.707511 73.201659,180.511887 C76.9896163,165.710376 92.1304378,147.666248 107.871644,140.658331 Z" id="Path-Copy-3" fill="#000000" fill-rule="nonzero" transform="translate(90.536651, 160.585109) rotate(-130.000000) translate(-90.536651, -160.585109) "></path>
                </g>
                <text id="unlimited-supply" font-family="Copperplate-Bold, Copperplate" font-size="29.1350903" font-weight="bold" fill="#FFFFFF">
                    <tspan x="475.954246" y="185.361176">unlimited supply</tspan>
                </text>
                <text id="total-supply-1-billi" font-family="Copperplate-Bold, Copperplate" font-size="29.1350903" font-weight="bold" fill="#FFFFFF">
                    <tspan x="475.954246" y="351.360577">total supply 1 billion</tspan>
                </text>
                <text id="Ave-hamilton-token" font-family="Copperplate-Bold, Copperplate" font-size="43.7026354" font-weight="bold" fill="#FFFFFF">
                    <tspan x="475.954246" y="149.261025">Ave hamilton token</tspan>
                </text>
                <text id="Ave-university-token" font-family="Copperplate-Bold, Copperplate" font-size="43.7026354" font-weight="bold" fill="#FFFFFF">
                    <tspan x="475.954246" y="315.260426">Ave university token</tspan>
                </text>
                <g id="标签-la" transform="translate(373.201596, 120.348156)">
                    <rect id="Rectangle" stroke="#000000" stroke-width="1.45675451" fill="#65B2FF" x="0.728377257" y="0.728377257" width="83.9882688" height="31.3422489"></rect>
                    <g id="AHT" transform="translate(8.661830, 6.753679)" fill="#000000" fill-rule="nonzero">
                        <path d="M5.33002048,17.8368269 C5.33002048,17.9485865 5.36912964,18.0324061 5.44734797,18.0882859 C5.5255663,18.1441657 5.68758998,18.1721056 5.93341902,18.1721056 L5.93341902,18.57444 L0,18.57444 L0,18.1721056 C0.245829037,18.1274018 0.424613791,18.0547581 0.536354262,17.9541745 C0.648094733,17.8535908 0.759835204,17.6691876 0.871575675,17.4009646 C0.916271864,17.289205 1.02801234,16.9874542 1.20679709,16.4957121 C1.38558184,16.00397 1.62023683,15.3837044 1.91076206,14.6349153 C2.20128728,13.8861262 2.52533465,13.0535174 2.88290416,12.137089 C3.24047366,11.2206605 3.59804317,10.2874681 3.95561268,9.33751183 C4.31318219,8.38755551 4.66516467,7.4599511 5.01156013,6.55469861 C5.35795559,5.64944612 5.66524189,4.83918925 5.93341902,4.12392803 C6.20159615,3.4086668 6.41949007,2.82751705 6.58710078,2.38047878 C6.75471148,1.93344051 6.83851684,1.69874542 6.83851684,1.67639351 C6.83851684,1.56463394 6.76588553,1.48640224 6.62062292,1.44169842 C6.47536031,1.39699459 6.32451067,1.36346672 6.16807401,1.3411148 L6.16807401,0.938780363 L14.9173529,0.938780363 L14.9173529,1.3411148 C14.7385682,1.36346672 14.5933055,1.39699459 14.4815651,1.44169842 C14.3698246,1.48640224 14.3139544,1.59816181 14.3139544,1.77697712 C14.3139544,1.82168094 14.4201078,2.11225582 14.6324147,2.64870174 C14.8447216,3.18514766 15.1184858,3.88364496 15.4537072,4.74419362 C15.7889286,5.60474229 16.1744332,6.57705052 16.610221,7.66111832 C17.0460089,8.74518612 17.4985578,9.85160584 17.9678678,10.9803775 C18.4371777,12.1091491 18.8897267,13.2099808 19.3255145,14.2828727 C19.7613023,15.3557645 20.157981,16.3168968 20.5155505,17.1662695 C20.6943353,17.5686039 20.8451849,17.8368269 20.9680994,17.9709384 C21.0910139,18.1050499 21.2530376,18.1721056 21.4541705,18.1721056 L21.4541705,18.57444 L14.8503086,18.57444 L14.8503086,18.1721056 C15.2749224,18.1497537 15.4872293,18.0156422 15.4872293,17.7697712 C15.4872293,17.7474193 15.4313591,17.5965438 15.3196186,17.3171449 C15.2078781,17.037746 15.0849636,16.7248192 14.950875,16.3783646 C14.8167865,16.0319099 14.6882849,15.7022192 14.5653704,15.3892924 C14.4424559,15.0763656 14.3698246,14.8640224 14.3474765,14.7522629 L6.402729,14.7522629 C6.17924806,15.3557645 6.0004633,15.8475066 5.86637474,16.2274891 C5.73228617,16.6074717 5.62613272,16.9092225 5.5479144,17.1327416 C5.46969607,17.3562608 5.41382583,17.5183121 5.38030369,17.6188957 C5.34678155,17.7194794 5.33002048,17.7921231 5.33002048,17.8368269 Z M13.4759008,12.0700332 L10.2242531,4.09040016 L7.24078253,12.0700332 L13.4759008,12.0700332 Z" id="Shape"></path>
                        <path d="M45.2548908,17.5686039 C45.2548908,17.7250673 45.305174,17.8535908 45.4057405,17.9541745 C45.5063069,18.0547581 45.768897,18.1274018 46.1935108,18.1721056 L46.1935108,18.57444 L39.2879497,18.57444 L39.2879497,18.1721056 C39.7125635,18.1274018 39.9751536,18.0547581 40.07572,17.9541745 C40.1762864,17.8535908 40.2265696,17.7250673 40.2265696,17.5686039 L40.2265696,11.365948 L31.5108129,11.365948 L31.5108129,17.5686039 C31.5108129,17.7250673 31.5610961,17.8535908 31.6616625,17.9541745 C31.7622289,18.0547581 32.024819,18.1274018 32.4494328,18.1721056 L32.4494328,18.57444 L25.5438717,18.57444 L25.5438717,18.1721056 C25.9684855,18.1274018 26.2310756,18.0547581 26.331642,17.9541745 C26.4322085,17.8535908 26.4824917,17.7250673 26.4824917,17.5686039 L26.4824917,1.94461647 C26.4824917,1.78815307 26.4322085,1.65962957 26.331642,1.55904596 C26.2310756,1.45846235 25.9684855,1.38581863 25.5438717,1.3411148 L25.5438717,0.938780363 L32.4494328,0.938780363 L32.4494328,1.3411148 C32.024819,1.38581863 31.7622289,1.45846235 31.6616625,1.55904596 C31.5610961,1.65962957 31.5108129,1.78815307 31.5108129,1.94461647 L31.5108129,7.27554782 L40.2265696,7.27554782 L40.2265696,1.94461647 C40.2265696,1.78815307 40.1762864,1.65962957 40.07572,1.55904596 C39.9751536,1.45846235 39.7125635,1.38581863 39.2879497,1.3411148 L39.2879497,0.938780363 L46.1935108,0.938780363 L46.1935108,1.3411148 C45.768897,1.38581863 45.5063069,1.45846235 45.4057405,1.55904596 C45.305174,1.65962957 45.2548908,1.78815307 45.2548908,1.94461647 L45.2548908,17.5686039 Z" id="Path"></path>
                        <path d="M55.6802768,18.1721056 C56.1048906,18.1274018 56.3674807,18.0547581 56.4680471,17.9541745 C56.5686135,17.8535908 56.6188968,17.7250673 56.6188968,17.5686039 L56.6188968,5.02918052 L50.8530884,5.02918052 C50.6743037,5.02918052 50.5402151,5.09064828 50.4508227,5.2135838 C50.3614304,5.33651933 50.2943861,5.58797835 50.2496899,5.96796088 L49.8474242,5.96796088 L49.8474242,0 L50.2496899,0 C50.2943861,0.379982528 50.3614304,0.631441554 50.4508227,0.754377078 C50.5402151,0.877312602 50.6743037,0.938780363 50.8530884,0.938780363 L67.4130263,0.938780363 C67.591811,0.938780363 67.7258996,0.877312602 67.815292,0.754377078 C67.9046843,0.631441554 67.9717286,0.379982528 68.0164248,0 L68.4186905,0 L68.4186905,5.96796088 L68.0164248,5.96796088 C67.9717286,5.58797835 67.9046843,5.33651933 67.815292,5.2135838 C67.7258996,5.09064828 67.591811,5.02918052 67.4130263,5.02918052 L61.647218,5.02918052 L61.647218,17.5686039 C61.647218,17.7250673 61.6975012,17.8535908 61.7980676,17.9541745 C61.898634,18.0547581 62.1612241,18.1274018 62.5858379,18.1721056 L62.5858379,18.57444 L55.6802768,18.57444 L55.6802768,18.1721056 Z" id="Path"></path>
                    </g>
                </g>
                <path id="Line-2" d="M211.087127,131.743529 L211.087,136.657 L373.929973,136.657038 L373.929973,138.113793 L211.087,138.113 L211.087127,143.027302 L200.087127,143.027302 L200.087127,131.743529 L211.087127,131.743529 Z" fill="#FFFFFF" fill-rule="nonzero"></path>
                <path id="Line-2-Copy" d="M288.24647,297.925147 L288.246,302.838 L373.929973,302.838656 L373.929973,304.29541 L288.246,304.295 L288.24647,309.208919 L277.24647,309.208919 L277.24647,297.925147 L288.24647,297.925147 Z" fill="#FFFFFF" fill-rule="nonzero"></path>
                <g id="标签-lb-copy" transform="translate(373.201596, 286.529773)">
                    <rect id="Rectangle-Copy" stroke="#000000" stroke-width="1.45675451" fill="#FFD633" x="0.728377257" y="0.728377257" width="87.8141654" height="32.6177657"></rect>
                    <g id="AUT" transform="translate(8.859330, 7.394928)" fill="#000000" fill-rule="nonzero">
                        <path d="M5.56867811,18.5304813 C5.56867811,18.6465871 5.60953843,18.7336664 5.69125907,18.7917193 C5.77297972,18.8497722 5.94225819,18.8787986 6.1990945,18.8787986 L6.1990945,19.2967794 L0,19.2967794 L0,18.8787986 C0.256836307,18.8323563 0.443626348,18.7568875 0.560370124,18.6523923 C0.6771139,18.5478972 0.793857676,18.3563226 0.910601452,18.0776688 C0.957298962,17.961563 1.07404274,17.6480774 1.26083278,17.137212 C1.44762282,16.6263466 1.69278475,15.9819596 1.99631857,15.2040509 C2.29985238,14.4261422 2.63840933,13.5611542 3.01198942,12.6090869 C3.3855695,11.6570196 3.75914958,10.6875364 4.13272967,9.70063729 C4.50630975,8.71373822 4.87405264,7.75006031 5.23595835,6.80960356 C5.59786405,5.8691468 5.91890944,5.02737995 6.1990945,4.284303 C6.47927956,3.54122606 6.70692992,2.93747604 6.88204559,2.47305295 C7.05716125,2.00862986 7.14471908,1.76480774 7.14471908,1.74158659 C7.14471908,1.62548081 7.06883563,1.54420677 6.91706872,1.49776446 C6.76530181,1.45132216 6.60769771,1.41649042 6.44425643,1.39326927 L6.44425643,0.975288489 L15.5852941,0.975288489 L15.5852941,1.39326927 C15.398504,1.41649042 15.2467371,1.45132216 15.1299934,1.49776446 C15.0132496,1.54420677 14.9548777,1.66031255 14.9548777,1.84608178 C14.9548777,1.89252409 15.0657843,2.1943991 15.2875975,2.75170681 C15.5094106,3.30901452 15.7954329,4.03467559 16.1456642,4.92869004 C16.4958955,5.82270449 16.8986616,6.83282471 17.3539623,7.9590507 C17.809263,9.0852767 18.2820753,10.2347238 18.7723992,11.4073921 C19.262723,12.5800604 19.7355353,13.7237023 20.190836,14.8383177 C20.6461368,15.9529331 21.0605772,16.9514428 21.4341573,17.8338467 C21.6209473,18.2518274 21.7785514,18.5304813 21.9069695,18.6698082 C22.0353877,18.8091351 22.2046662,18.8787986 22.414805,18.8787986 L22.414805,19.2967794 L15.5152478,19.2967794 L15.5152478,18.8787986 C15.9588742,18.8555774 16.1806873,18.7162505 16.1806873,18.4608178 C16.1806873,18.4375967 16.1223154,18.2808539 16.0055717,17.9905894 C15.8888279,17.700325 15.7604097,17.3752288 15.6203172,17.015301 C15.4802247,16.6553731 15.3459693,16.312861 15.2175512,15.9877649 C15.089133,15.6626687 15.0132496,15.4420677 14.9899008,15.325962 L6.68941836,15.325962 C6.45593081,15.9529331 6.26914076,16.4637985 6.12904823,16.8585582 C5.9889557,17.2533178 5.87804912,17.5668034 5.79632847,17.7990149 C5.71460783,18.0312265 5.65623594,18.1995798 5.62121281,18.304075 C5.58618968,18.4085702 5.56867811,18.484039 5.56867811,18.5304813 Z M14.0792994,12.5394234 L10.6820555,4.24947127 L7.56499668,12.5394234 L14.0792994,12.5394234 Z" id="Shape"></path>
                        <path d="M41.8876668,2.02024044 C41.8876668,1.85769236 41.8351321,1.72417072 41.7300627,1.61967553 C41.6249933,1.51518033 41.3506454,1.43971158 40.9070191,1.39326927 L40.9070191,0.975288489 L48.1217844,0.975288489 L48.1217844,1.39326927 C47.6781581,1.43971158 47.4038102,1.51518033 47.2987408,1.61967553 C47.1936714,1.72417072 47.1411367,1.85769236 47.1411367,2.02024044 L47.1411367,11.3551445 C47.1411367,12.8877407 46.8901376,14.1765148 46.3881393,15.2214668 C45.8861411,16.2664187 45.1973528,17.1023803 44.3217745,17.7293515 C43.4461962,18.3563226 42.418851,18.7917193 41.2397388,19.0355414 C40.0606267,19.2793635 38.8056311,19.4012746 37.4747521,19.4012746 C36.143873,19.4012746 34.8888774,19.2793635 33.7097653,19.0355414 C32.5306531,18.7917193 31.5033079,18.3563226 30.6277296,17.7293515 C29.7521513,17.1023803 29.063363,16.2664187 28.5613648,15.2214668 C28.0593665,14.1765148 27.8083674,12.8877407 27.8083674,11.3551445 L27.8083674,2.02024044 C27.8083674,1.85769236 27.7558327,1.72417072 27.6507633,1.61967553 C27.5456939,1.51518033 27.271346,1.43971158 26.8277197,1.39326927 L26.8277197,0.975288489 L34.042485,0.975288489 L34.042485,1.39326927 C33.5988587,1.43971158 33.3245108,1.51518033 33.2194414,1.61967553 C33.114372,1.72417072 33.0618373,1.85769236 33.0618373,2.02024044 L33.0618373,11.3551445 C33.0618373,12.7019715 33.4470918,13.6656494 34.2176007,14.2461783 C34.9881096,14.8267071 36.0738267,15.1169716 37.4747521,15.1169716 C38.8756774,15.1169716 39.9613945,14.8267071 40.7319034,14.2461783 C41.5024123,13.6656494 41.8876668,12.7019715 41.8876668,11.3551445 L41.8876668,2.02024044 Z" id="Path"></path>
                        <path d="M58.1734235,18.8787986 C58.6170499,18.8323563 58.8913977,18.7568875 58.9964671,18.6523923 C59.1015365,18.5478972 59.1540712,18.4143755 59.1540712,18.2518274 L59.1540712,5.22475976 L53.1300924,5.22475976 C52.9433024,5.22475976 52.8032098,5.28861794 52.7098148,5.41633429 C52.6164198,5.54405064 52.5463735,5.80528862 52.499676,6.20004825 L52.0793984,6.20004825 L52.0793984,0 L52.499676,0 C52.5463735,0.394759626 52.6164198,0.655997614 52.7098148,0.783713964 C52.8032098,0.911430314 52.9433024,0.975288489 53.1300924,0.975288489 L70.43152,0.975288489 C70.61831,0.975288489 70.7584026,0.911430314 70.8517976,0.783713964 C70.9451926,0.655997614 71.0152389,0.394759626 71.0619364,0 L71.482214,0 L71.482214,6.20004825 L71.0619364,6.20004825 C71.0152389,5.80528862 70.9451926,5.54405064 70.8517976,5.41633429 C70.7584026,5.28861794 70.61831,5.22475976 70.43152,5.22475976 L64.4075412,5.22475976 L64.4075412,18.2518274 C64.4075412,18.4143755 64.4600759,18.5478972 64.5651453,18.6523923 C64.6702146,18.7568875 64.9445625,18.8323563 65.3881889,18.8787986 L65.3881889,19.2967794 L58.1734235,19.2967794 L58.1734235,18.8787986 Z" id="Path"></path>
                    </g>
                </g>
            </g>
        </g>
    </g>
</svg>