<svg width="1280" height="520" viewBox="0 0 1280 520" fill="none" xmlns="http://www.w3.org/2000/svg">
<path fill-rule="evenodd" clip-rule="evenodd" d="M0 0H1280V520H0V0Z" fill="url(#paint0_linear_52_24526)"/>
<path fill-rule="evenodd" clip-rule="evenodd" d="M0 0H1280V520H0V0Z" fill="url(#paint1_radial_52_24526)" style="mix-blend-mode:screen"/>
<path fill-rule="evenodd" clip-rule="evenodd" d="M694 350.787H896.689V360.131L694 364.803V350.787Z" fill="url(#paint2_linear_52_24526)" fill-opacity="0.69"/>
<path fill-rule="evenodd" clip-rule="evenodd" d="M0 0H514L514.178 224.531L559.422 233.723V259.062L532.912 281.883L544.835 368.434H700V383.176L640.272 385.531L633.828 520H625.828L620.407 386.617L582.144 385.531L559.422 384.924L573.337 414.117L582.144 452.317L605.321 484.024V520H0V0Z" fill="url(#paint3_linear_52_24526)"/>
<path fill-rule="evenodd" clip-rule="evenodd" d="M960 3H1280V520H678L720.963 470.512L757.662 468.466L784.826 447.547L801.789 409.166L829.321 364.004L849.956 358.588L875.249 309.573L901.05 302.377L908.046 213.174L875.249 211.388L869.105 299.067L856.605 329.657V209.947L833.398 207.616L805.322 202.857L798.141 398.622L790.064 416.203L783.826 380.675L781.826 202.472L747.149 203.211L709.105 198.539L702.499 427.916L701.007 478.745L691.902 487.155L686.244 271.009L671.956 197.605L437.905 192.869L311 184.563V182.936L975.133 176.049V144.217L901.806 143.292L960 3Z" fill="black"/>
<path fill-rule="evenodd" clip-rule="evenodd" d="M960 3H1280V520H678L720.963 470.512L757.662 468.466L784.826 447.547L801.789 409.166L829.321 364.004L849.956 358.588L875.249 309.573L901.05 302.377L908.046 213.174L875.249 211.388L869.105 299.067L856.605 329.657V209.947L833.398 207.616L805.322 202.857L798.141 398.622L790.064 416.203L783.826 380.675L781.826 202.472L747.149 203.211L709.105 198.539L702.499 427.916L701.007 478.745L691.902 487.155L686.244 271.009L671.956 197.605L437.905 192.869L311 184.563V182.936L975.133 176.049V144.217L901.806 143.292L960 3Z" fill="url(#paint4_linear_52_24526)"/>
<path opacity="0.793996" fill-rule="evenodd" clip-rule="evenodd" d="M340.901 93.0624L437.905 173.136L347.706 173.83L340.901 93.0624Z" fill="url(#paint5_linear_52_24526)"/>
<path fill-rule="evenodd" clip-rule="evenodd" d="M311.765 115.086C311.765 115.086 310.765 88.1031 328.735 88.1031C346.706 88.1031 347.706 115.086 347.706 115.086V173.136H311.765V115.086Z" fill="#FFD53F"/>
<path fill-rule="evenodd" clip-rule="evenodd" d="M33.9983 168.408L33 197.541L40.8479 196.72L41.6224 167.186L33.9983 168.408ZM44.4506 196.344L62.3659 194.47L63.4057 163.432L46.0445 166.415L44.4506 196.344ZM63.4976 160.691L64 145.693C64 145.693 64 125.435 49.3171 127.684C48.7027 127.778 48.114 127.903 47.55 128.056L45.9543 163.69L63.4976 160.691ZM42.971 130.22C34.6341 136.193 34.6341 149.851 34.6341 149.851L34.0921 165.668L41.6224 164.461L42.971 130.22Z" fill="#FFD53F"/>
<path fill-rule="evenodd" clip-rule="evenodd" d="M109.159 159.074L108 192.869L117.227 191.905L118.126 157.637L109.159 159.074ZM121.389 191.47L142.102 189.307L143.31 153.299L123.239 156.746L121.389 191.47ZM143.416 150.131L144 132.726C144 132.726 144 109.226 126.949 111.834C126.268 111.939 125.615 112.075 124.987 112.242L123.135 153.597L143.416 150.131ZM119.694 114.695C109.898 121.581 109.898 137.549 109.898 137.549L109.268 155.907L118.126 154.488L119.694 114.695Z" fill="#FFD53F"/>
<defs>
<linearGradient id="paint0_linear_52_24526" x1="202.171" y1="136.786" x2="202.171" y2="521.337" gradientUnits="userSpaceOnUse">
<stop stop-color="#00041A"/>
<stop offset="1" stop-color="#000E34"/>
</linearGradient>
<radialGradient id="paint1_radial_52_24526" cx="0" cy="0" r="1" gradientUnits="userSpaceOnUse" gradientTransform="translate(640 521.337) rotate(90) scale(519.156 640)">
<stop stop-color="#0088FF" stop-opacity="0.99"/>
<stop offset="1" stop-opacity="0.01"/>
</radialGradient>
<linearGradient id="paint2_linear_52_24526" x1="896.689" y1="352.391" x2="740.404" y2="352.391" gradientUnits="userSpaceOnUse">
<stop stop-color="#001E42"/>
<stop offset="1" stop-color="#000D1F"/>
</linearGradient>
<linearGradient id="paint3_linear_52_24526" x1="-135.313" y1="130.768" x2="123.874" y2="732.507" gradientUnits="userSpaceOnUse">
<stop/>
<stop offset="1" stop-opacity="0.29"/>
</linearGradient>
<linearGradient id="paint4_linear_52_24526" x1="305.089" y1="307.327" x2="739.165" y2="328.637" gradientUnits="userSpaceOnUse">
<stop stop-color="#FFD53F"/>
<stop offset="1" stop-opacity="0.01"/>
</linearGradient>
<linearGradient id="paint5_linear_52_24526" x1="292.399" y1="129.619" x2="363.032" y2="223.333" gradientUnits="userSpaceOnUse">
<stop stop-color="#FFD200"/>
<stop offset="1" stop-opacity="0.01"/>
</linearGradient>
</defs>
</svg>
