<?xml version="1.0" encoding="UTF-8"?>
<svg width="430px" height="501px" viewBox="0 0 430 501" version="1.1" xmlns="http://www.w3.org/2000/svg" xmlns:xlink="http://www.w3.org/1999/xlink">
    <title>img_what_is_gifting</title>
    <g id="首页" stroke="none" stroke-width="1" fill="none" fill-rule="evenodd">
        <g id="litepaper" transform="translate(-685.000000, -1758.000000)">
            <g id="img_what_is_gifting" transform="translate(685.006193, 1758.704894)">
                <polygon id="Rectangle" fill="#CE71DE" points="107.968461 365.001213 148.213807 311.358952 119.155398 365.737201 257.993807 374.334607 369.047604 396.109705 260.464706 388.021293 257.993807 374.334607 254.922179 387.608427 183.59349 382.295106 363.497634 437.271238 292.799804 432.136849 361.107216 460.754834 313.278917 455.751229 358.345557 478.879948 356.093807 496.295106 260.703291 496.295106 256.767189 407.908024 248.979725 496.295106 133.993807 496.295106"></polygon>
                <polygon id="Rectangle" fill="#6200FF" points="292.799804 368.627278 134.868852 355.871513 148.620162 328.296428"></polygon>
                <polygon id="Rectangle" fill="#FFDE00" points="215.261008 368.335985 257.993807 371.335985 253.531788 500.185176 226.531788 500.185176"></polygon>
                <path d="M107.691533,253.395571 L176.993807,238.871813 L359.853807,286.995829 L387.700133,319.712962 C340.023997,308.69077 316.185929,303.179674 316.185929,303.179674 C342.237855,306.109659 398.406309,290.400949 311.330705,274.224372 C311.330705,274.224372 288.77219,268.287924 288.77219,268.287924 C268.556844,264.893465 250.765655,266.799731 237.142916,267.170528 C235.571665,252.63405 218.749283,245.12952 222.536064,266.319517 C214.079026,265.236892 202.416225,248.710869 180.353875,256.080859 C168.979367,259.578689 180.095112,266.866312 213.70111,277.94373 L139.357847,263.295106 L404.573807,338.800748 L383.433807,382.295106 L267.459523,350.655943 L265.068228,298.9902 L256.862707,347.765005 L104.173807,306.109659 L107.691533,253.395571 Z" id="Rectangle" fill="#F3ACFF"></path>
                <path d="M240.243088,195.614716 C251.306654,201.724771 249.15731,220.433574 233.795053,251.741126 C282.568441,213.963819 320.653366,198.310043 348.049829,204.779798 C389.144523,214.484431 387.602872,263.640799 360.373804,285.013577 C342.221092,299.262095 306.659069,298.701026 253.687736,283.330369 C247.774817,281.423961 243.773128,280.127414 241.68267,279.440727 C240.973298,279.141126 240.374062,278.168751 239.86294,276.933041 C242.954259,278.604832 247.562524,279.440727 253.687736,279.440727 C244.98085,277.039535 239.939774,274.498406 238.564506,271.81734 C237.916404,269.358054 237.486831,268.392352 237.142916,269.390509 C237.142916,269.390509 236.831647,270.645642 237.142916,278.287702 C237.454185,285.929761 219.158685,284.840424 219.158685,271.910864 C197.675051,261.059912 186.055792,247.613141 188.259294,231.224242 C193.047025,195.614716 223.647738,186.449635 240.243088,195.614716 Z M328.39664,244.577747 C333.560696,213.493037 302.063991,219.339042 240.243088,263.419802 C238.36866,264.905767 237.357063,266.755083 237.173488,267.110086 L237.14631,267.163623 L237.14631,267.163623 C257.158111,276.107458 320.427758,292.545939 328.39664,244.577747 Z M204.108556,225.687699 C192.94623,241.565778 198.580226,253.663198 221.010544,261.979962 C220.904878,221.907042 215.270882,209.809621 204.108556,225.687699 Z" id="Combined-Shape" fill="#FFDE00"></path>
                <polygon id="Rectangle" fill="#FFDE00" points="215.261008 282.850483 265.993807 295.795106 257.993807 351.364704 218.298478 340.36427"></polygon>
                <path d="M212.313458,263.53815 C215.047786,264.633232 217.494697,265.514106 219.654191,266.180773 L219.37969,269.496559 C216.633902,267.5794 214.278491,265.593264 212.313458,263.53815 Z" id="Rectangle" fill="#000000"></path>
                <path d="M317.043182,277.277457 C323.559411,274.177731 328.891978,269.748412 333.040883,263.989498 C331.165493,271.502709 327.64088,277.166211 322.467043,280.980002 C327.792187,279.860741 332.376604,277.109206 336.220293,272.725395 C333.361969,278.859829 329.319973,283.067065 324.094302,285.347103 C329.184141,284.919735 333.961185,283.220677 338.425433,280.249929 C333.74072,285.696139 328.651816,289.095885 323.158722,290.449168 C317.665628,291.802451 311.252887,292.057527 303.920498,291.214395 C311.162723,290.366441 316.142249,288.967216 318.859077,287.016722 C312.892258,288.525621 306.107341,288.525621 298.504324,287.016722 C309.014258,286.274318 315.465221,284.885571 317.857213,282.850483 C307.280924,284.514896 295.125941,284.207084 281.392264,281.927045 C298.643313,281.927045 310.526952,280.377183 317.043182,277.277457 Z" id="Rectangle" fill="#000000"></path>
                <path d="M58.708792,135.853318 L70.621492,155.23904 L102.224711,132.306986 L149.282782,146.290729 L152.708553,182.579815 L123.603869,223.046429 L66.3505861,257.708226 L76.3766847,258.385744 L85.2501349,284.502781 L49.1859075,251.915513 L54.093184,242.2287 L68.1311946,243.458037 L9.92538955,202.494943 L21.8413778,160.220513 L58.708792,135.853318 Z M145.20834,183.027017 L115.539238,211.570881 L88.7792745,231.563195 L121.045485,216.37092 L145.20834,183.027017 Z M58.5850814,143.565563 L58.791058,163.837776 L65.9579445,158.413045 L58.5850814,143.565563 Z" id="Shape" fill="#D54413"></path>
                <g id="Group-5" transform="translate(262.993807, 98.295106) rotate(-10.000000) translate(-262.993807, -98.295106) translate(178.993807, 13.295106)">
                    <g id="Group-4">
                        <polygon id="Rectangle" fill="#FF4C87" points="83.2576921 7.37948268 79.472273 13.899423 84.9804127 22.4769894 97.1972737 21.0814285 81.4863858 28.2425867 69.848763 8.53187754"></polygon>
                        <polygon id="Rectangle" fill="#FF4C87" points="68.6738386 12.907108 75.6753234 24.6582526 64.241356 20.2403526"></polygon>
                        <polygon id="Rectangle-Copy-354" fill="#FF4C87" points="106.350004 17.2823384 104.833213 8.53187754 97.1972737 9.80043668 101.732465 13.262794 91.0263474 19.2669685"></polygon>
                        <polygon id="Rectangle-Copy-358" fill="#FF4C87" points="106.350004 17.2823384 104.833213 8.53187754 97.1972737 9.80043668 101.732465 13.262794 91.0263474 19.2669685"></polygon>
                        <polygon id="Rectangle-Copy-353" fill="#FF4C87" points="83.2576921 12.094578 86.182079 17.2823384 97.1972737 14.0813823 87.7509402 8.53187754"></polygon>
                        <polygon id="Rectangle" fill="#FF4C87" points="85.4251648 -8.90705232e-14 92.8574637 5.60287429 78.3046067 4.69320364"></polygon>
                        <polygon id="Rectangle" fill="#FF4C87" points="100.647218 21.0739185 106.350004 21.0739185 101.878119 25.3357839 90.2274829 28.2425867"></polygon>
                        <polygon id="Rectangle" fill="#FF4C87" points="76.1972933 27.4027252 80.8256784 32.3897445 101.402944 29.3063837 79.9504043 36.9312405 69.848763 26.3295023"></polygon>
                        <polygon id="Rectangle" fill="#FF4C87" transform="translate(126.569356, 38.407395) rotate(40.000000) translate(-126.569356, -38.407395) " points="126.306632 27.9725634 122.520075 34.4956523 128.023724 43.0737948 140.237575 41.6736815 124.528733 48.8422262 112.901137 29.1298465"></polygon>
                        <polygon id="Rectangle" fill="#FF4C87" transform="translate(115.552213, 30.436196) rotate(40.000000) translate(-115.552213, -30.436196) " points="114.271325 24.5601365 121.266814 36.3122555 109.837612 31.896982"></polygon>
                        <polygon id="Rectangle-Copy-354" fill="#FF4C87" transform="translate(143.129642, 45.172014) rotate(40.000000) translate(-143.129642, -45.172014) " points="148.915144 50.0977614 147.401763 41.3453179 137.870837 39.0869612 144.30029 46.0786394 137.344139 51.2570664"></polygon>
                        <polygon id="Rectangle-Copy-353" fill="#FF4C87" transform="translate(133.498170, 40.481638) rotate(40.000000) translate(-133.498170, -40.481638) " points="127.220235 40.0927975 133.300702 45.0289177 139.776104 37.317364 130.467849 35.9343582"></polygon>
                        <polygon id="Rectangle" fill="#FF4C87" transform="translate(137.800173, 28.228933) rotate(40.000000) translate(-137.800173, -28.228933) " points="137.646099 25.4279594 145.074371 31.0299062 130.525976 30.1249241"></polygon>
                        <polygon id="Rectangle" fill="#FF4C87" transform="translate(134.003698, 53.483343) rotate(40.000000) translate(-134.003698, -53.483343) " points="136.74938 51.1794422 142.691388 49.8216269 140.551343 55.7104445 125.316009 57.1450592"></polygon>
                        <polygon id="Rectangle" fill="#FF4C87" transform="translate(118.062800, 51.808723) rotate(40.000000) translate(-118.062800, -51.808723) " points="108.637071 45.6713302 118.916407 52.8255984 133.834883 47.5669617 117.759927 59.0174869 102.290717 44.5999594"></polygon>
                        <polygon id="Rectangle" fill="#FF4C87" transform="translate(39.739484, 41.200874) rotate(-50.000000) translate(-39.739484, -41.200874) " points="39.4717381 30.4269234 35.6900715 36.9482205 41.1988977 45.5311379 53.4103333 44.1391651 41.7489029 51.9748245 26.0686347 31.5752263"></polygon>
                        <polygon id="Rectangle" fill="#FF4C87" transform="translate(33.110971, 50.893967) rotate(-50.000000) translate(-33.110971, -50.893967) " points="29.9532285 44.4920599 40.6969049 57.2958749 25.5250372 51.8267711"></polygon>
                        <polygon id="Rectangle-Copy-354" fill="#FF4C87" transform="translate(46.231354, 26.857974) rotate(-50.000000) translate(-46.231354, -26.857974) " points="53.8897399 30.2451242 52.370586 21.4905993 44.7381724 22.7570765 49.2727037 26.2223798 38.5729678 32.2253487"></polygon>
                        <polygon id="Rectangle-Copy-358" fill="#FF4C87" transform="translate(46.231354, 26.857974) rotate(-50.000000) translate(-46.231354, -26.857974) " points="53.8897399 30.2451242 52.370586 21.4905993 44.7381724 22.7570765 49.2727037 26.2223798 38.5729678 32.2253487"></polygon>
                        <polygon id="Rectangle-Copy-353" fill="#FF4C87" transform="translate(40.030673, 32.697464) rotate(-50.000000) translate(-40.030673, -32.697464) " points="33.0633688 31.8833433 35.9883358 37.0742017 46.9979778 33.875693 37.5535839 28.320726"></polygon>
                        <polygon id="Rectangle" fill="#FF4C87" transform="translate(29.299502, 29.759518) rotate(-50.000000) translate(-29.299502, -29.759518) " points="29.1419435 26.9556811 36.5731371 32.5633544 22.0258677 31.6483667"></polygon>
                        <polygon id="Rectangle" fill="#FF4C87" transform="translate(55.919823, 34.146543) rotate(-50.000000) translate(-55.919823, -34.146543) " points="57.2347637 29.2180717 62.9352391 29.2200108 64.4358089 32.9585312 47.4038374 39.0750142"></polygon>
                        <polygon id="Rectangle" fill="#FF4C87" transform="translate(52.709803, 49.334541) rotate(-50.000000) translate(-52.709803, -49.334541) " points="43.2849223 43.4254902 56.5256625 50.7767075 68.4810073 45.338491 65.1760619 51.1982135 51.7472358 56.3194078 36.9385993 42.3496734"></polygon>
                        <polygon id="Rectangle" fill="#FF4C87" transform="translate(82.269861, 61.585963) rotate(-10.000000) translate(-82.269861, -61.585963) " points="82.0036623 50.816407 78.2190925 57.3360362 83.7281311 65.9144317 95.9445728 64.5202844 84.2769165 72.3555191 68.5951486 51.9672424"></polygon>
                        <polygon id="Rectangle" fill="#FF4C87" transform="translate(70.955634, 64.753496) rotate(-10.000000) translate(-70.955634, -64.753496) " points="67.7989135 58.3552421 78.5438782 71.1517509 63.3673898 65.6881161"></polygon>
                        <polygon id="Rectangle-Copy-354" fill="#FF4C87" transform="translate(96.467104, 54.769330) rotate(-10.000000) translate(-96.467104, -54.769330) " points="104.128656 58.1533105 102.610862 49.4024882 94.9752319 50.6701721 99.5107376 54.133137 88.8055528 60.1361724"></polygon>
                        <polygon id="Rectangle-Copy-358" fill="#FF4C87" transform="translate(96.467104, 54.769330) rotate(-10.000000) translate(-96.467104, -54.769330) " points="104.128656 58.1533105 102.610862 49.4024882 94.9752319 50.6701721 99.5107376 54.133137 88.8055528 60.1361724"></polygon>
                        <polygon id="Rectangle-Copy-353" fill="#FF4C87" transform="translate(87.961976, 55.260055) rotate(-10.000000) translate(-87.961976, -55.260055) " points="80.9922131 54.4470703 83.9171522 59.6352842 94.9317393 56.4355622 85.4849467 50.8848262"></polygon>
                        <polygon id="Rectangle" fill="#FF4C87" transform="translate(81.630466, 46.114951) rotate(-10.000000) translate(-81.630466, -46.114951) " points="81.473991 43.3130167 88.9067972 48.9168854 74.3541357 48.0054773"></polygon>
                        <polygon id="Rectangle" fill="#FF4C87" transform="translate(99.201321, 66.576550) rotate(-10.000000) translate(-99.201321, -66.576550) " points="100.518278 61.6488826 106.220945 61.649556 107.721262 65.3863062 90.6813807 71.5042171"></polygon>
                        <polygon id="Rectangle" fill="#FF4C87" transform="translate(86.974694, 76.150052) rotate(-10.000000) translate(-86.974694, -76.150052) " points="77.5462813 70.2435085 90.7904814 77.5889617 102.751633 72.150183 99.4441143 78.0083862 86.0089855 83.1305915 71.1977563 69.1695134"></polygon>
                        <polygon id="Rectangle" fill="#2CBB64" points="18.4197795 63.3247958 25.4078407 62.7761144 30.2048032 65.5036992 28.8361057 61.6888513 32.3134069 59.6330122 35.5546574 64.5117491 27.2893078 70.1914514 31.0514042 77.0622862 23.5195774 71.9209717 27.2893078 68.4615883 22.0855054 68.4615883"></polygon>
                        <polygon id="Rectangle-Copy-359" fill="#2CBB64" transform="translate(46.889782, 71.404601) rotate(-20.000000) translate(-46.889782, -71.404601) " points="31.847665 65.7517275 41.5790056 64.9896752 48.2600556 68.7901816 46.35284 63.4763775 51.1946621 60.6140466 61.9318994 76.7753507 44.2029403 82.1951557 38.9522558 77.7261948 44.2008781 72.9090756 36.9541102 72.9074672"></polygon>
                        <polygon id="Rectangle-Copy-360" fill="#2CBB64" transform="translate(128.904192, 75.449898) scale(-1, 1) rotate(20.000000) translate(-128.904192, -75.449898) " points="111.813657 69.0341733 122.872385 68.163296 130.46257 72.4786835 128.297961 66.4412312 133.801477 63.1861398 145.994727 81.5458436 125.845445 87.7136567 119.881013 82.6379401 125.847789 77.1612929 117.612825 77.1631207"></polygon>
                        <polygon id="Rectangle-Copy-361" fill="#2CBB64" transform="translate(104.633832, 89.652870) scale(-1, 1) rotate(50.000000) translate(-104.633832, -89.652870) " points="92.5166184 83.0882878 100.552834 82.3647227 108.140046 86.6806152 105.976853 80.6414585 111.478968 77.3846609 116.751046 90.648962 103.522618 101.921079 97.3453836 99.5451924 101.169792 91.9825751 95.2939168 91.3680896"></polygon>
                        <path d="M64.241356,80.2715101 L99.2011776,109.339709 L133.498059,96.9894267 L134.038754,96.9891268 L85.5810352,142.985813 L96.4666108,160.461186 L83.5230183,170 L56.7850148,153.686316 L73.9774366,141.118528 L62.3706828,124.162998 L65.1749984,116.934346 L36.1867542,92.3891268 L58.11259,89.6527712 L75.6753234,100.022857 L64.241356,80.2715101 Z M120.321925,103.829279 L98.6881759,117.471539 L78.3046067,103.829279 L91.0263474,131.513353 L120.321925,103.829279 Z M155.305754,76.8031268 L156.473569,96.9894267 L134.038754,96.9891268 L155.305754,76.8031268 Z M16.1797542,75.4500778 L36.1867542,92.3891268 L23.3279227,93.9942795 L16.1797542,75.4500778 Z M153.399046,43.8381268 L168,64.753314 L155.305754,76.8031268 L153.399046,43.8381268 Z" id="Combined-Shape" fill="#FFFFFF"></path>
                        <polygon id="Rectangle" fill="#FFFFFF" points="0 61.8665931 13.4336721 48.6073342 9.83394258 37.1302989 22.4733554 32.9645958 13.4336721 48.6073342 16.1797542 75.4500778"></polygon>
                    </g>
                    <g id="Group-3-Copy-3" transform="translate(126.569398, 41.555140) rotate(40.000000) translate(-126.569398, -41.555140) translate(104.902382, 21.181052)"></g>
                    <g id="Group-3-Copy" transform="translate(42.759629, 40.194908) rotate(-50.000000) translate(-42.759629, -40.194908) translate(20.970409, 20.050638)"></g>
                    <g id="Group-3-Copy-2" transform="translate(84.940514, 62.756776) rotate(-10.000000) translate(-84.940514, -62.756776) translate(63.151293, 42.612506)"></g>
                </g>
                <polygon id="Rectangle" fill="#FFDE00" points="54.7538073 295.295106 117.375205 328.296428 74.9938073 395.188415 79.7938073 351.364704 21.4830198 339.906313 79.7714572 332.668515"></polygon>
                <polygon id="Rectangle" fill="#FFDE00" points="342.178795 134.269316 361.833807 134.269316 377.233807 116.744387 377.233807 139.258703 395.730181 152.534662 371.876301 152.534662 354.473215 181.620161 358.012914 146.882268"></polygon>
                <polygon id="Rectangle-Copy-366" fill="#FFDE00" points="411.358099 188.226139 417.689259 193.538613 429.388782 191.8232 423.117922 202.209983 424.98512 212.346109 415.131179 206.46081 401.743193 212.542394 410.715756 198.092676"></polygon>
            </g>
        </g>
    </g>
</svg>