<svg width="420" height="512" viewBox="0 0 420 512" fill="none" xmlns="http://www.w3.org/2000/svg">
<g clip-path="url(#clip0_52_25488)">
<path fill-rule="evenodd" clip-rule="evenodd" d="M98.0431 375.879L138.288 322.237L109.23 376.615L248.068 385.212L359.122 406.987L250.539 398.899L248.068 385.212L244.997 398.486L173.668 393.173L353.572 448.149L282.874 443.014L351.182 471.632L303.354 466.629L348.42 489.758L346.168 507.173H250.778L246.842 418.786L239.054 507.173H124.068L98.0431 375.879Z" fill="#CE71DE"/>
<path fill-rule="evenodd" clip-rule="evenodd" d="M282.874 379.505L124.943 366.749L138.695 339.174L282.874 379.505Z" fill="#6200FF"/>
<path fill-rule="evenodd" clip-rule="evenodd" d="M205.336 379.214L248.068 382.214L243.606 512H216.606L205.336 379.214Z" fill="#FFDE00"/>
<path fill-rule="evenodd" clip-rule="evenodd" d="M97.7661 264.273L167.068 249.75L349.928 297.874L377.775 330.591L306.261 314.057C332.312 316.987 388.481 301.279 301.405 285.102L278.847 279.166C258.631 275.771 240.84 277.677 227.218 278.048C225.646 263.512 208.824 256.007 212.611 277.197C204.154 276.115 192.491 259.589 170.428 266.959C153.367 272.205 203.776 288.821 203.776 288.821L129.432 274.173L394.648 349.678L373.508 393.173L257.534 361.534L255.143 309.868L246.937 358.643L94.2484 316.987L97.7661 264.273Z" fill="#F3ACFF"/>
<path fill-rule="evenodd" clip-rule="evenodd" d="M178.334 242.102C183.122 206.492 213.722 197.327 230.318 206.492C246.913 215.658 223.87 262.619 223.87 262.619C223.87 262.619 297.03 205.953 338.124 215.658C379.219 225.362 377.677 274.519 350.448 295.891C323.219 317.264 243.762 294.208 243.762 294.208C243.762 294.208 234.893 291.349 231.757 290.318C231.048 290.019 230.449 289.046 229.938 287.811C234.575 290.318 243.762 290.318 243.762 290.318C243.762 290.318 230.702 286.717 228.639 282.695C227.991 280.236 227.561 279.27 227.218 280.268C227.218 280.268 226.906 281.523 227.218 289.165C227.529 296.808 209.233 295.718 209.233 282.789C187.75 271.938 176.13 258.491 178.334 242.102ZM318.471 255.455C310.502 303.424 247.233 286.985 227.218 278.048C227.218 278.048 228.235 275.949 230.318 274.298C292.139 230.217 323.635 224.371 318.471 255.455ZM194.183 236.565C177.44 260.383 211.085 272.858 211.085 272.858C211.085 272.858 210.927 212.748 194.183 236.565Z" fill="#FFDE00"/>
<path fill-rule="evenodd" clip-rule="evenodd" d="M205.336 293.728L256.068 306.673L248.068 362.242L208.373 351.242L205.336 293.728Z" fill="#FFDE00"/>
<path fill-rule="evenodd" clip-rule="evenodd" d="M202.388 274.416C206.49 276.059 209.729 277.059 209.729 277.059L209.454 280.374C209.454 280.374 205.336 277.499 202.388 274.416Z" fill="black"/>
<path fill-rule="evenodd" clip-rule="evenodd" d="M307.118 288.155C316.892 283.506 323.116 274.867 323.116 274.867C323.116 274.867 320.302 286.137 312.542 291.858C320.529 290.179 326.295 283.603 326.295 283.603C326.295 283.603 322.007 292.805 314.169 296.225C321.804 295.584 328.5 291.128 328.5 291.128C328.5 291.128 321.473 299.297 313.233 301.327C304.994 303.357 293.995 302.092 293.995 302.092C293.995 302.092 304.858 300.82 308.934 297.894C299.984 300.158 288.579 297.894 288.579 297.894C288.579 297.894 304.344 296.781 307.932 293.728C292.067 296.225 271.467 292.805 271.467 292.805C271.467 292.805 297.343 292.805 307.118 288.155Z" fill="black"/>
<path fill-rule="evenodd" clip-rule="evenodd" d="M48.7834 146.731L60.6961 166.117L92.2993 143.185L139.357 157.168L142.783 193.458L113.678 233.924L56.4252 268.586L66.4513 269.263L75.3247 295.38L39.2605 262.793L44.1678 253.106L58.2058 254.336L0 213.373L11.916 171.098L48.7834 146.731ZM135.283 193.905L105.614 222.449L78.8539 242.441L111.12 227.249L135.283 193.905ZM48.6597 154.443L48.8657 174.715L56.0326 169.291L48.6597 154.443Z" fill="#D54413"/>
<path fill-rule="evenodd" clip-rule="evenodd" d="M238.859 31.9827L236.263 39.0609L243.177 46.5517L254.966 43.0559L240.737 52.8365L225.854 35.446L238.859 31.9827Z" fill="#FF4C87"/>
<path fill-rule="evenodd" clip-rule="evenodd" d="M225.456 39.9588L234.392 50.3156L222.365 47.9504L225.456 39.9588Z" fill="#FF4C87"/>
<path fill-rule="evenodd" clip-rule="evenodd" d="M263.32 37.7252L260.307 29.371L253.007 31.9463L258.074 34.5685L248.574 42.3406L263.32 37.7252Z" fill="#FF4C87"/>
<path fill-rule="evenodd" clip-rule="evenodd" d="M263.32 37.7252L260.307 29.371L253.007 31.9463L258.074 34.5685L248.574 42.3406L263.32 37.7252Z" fill="#FF4C87"/>
<path fill-rule="evenodd" clip-rule="evenodd" d="M239.677 36.6261L243.458 41.2273L253.75 36.1622L243.484 32.3373L239.677 36.6261Z" fill="#FF4C87"/>
<path fill-rule="evenodd" clip-rule="evenodd" d="M239.712 24.339L248.004 28.5661L233.514 30.1973L239.712 24.339Z" fill="#FF4C87"/>
<path fill-rule="evenodd" clip-rule="evenodd" d="M258.362 42.4494L263.978 41.4591L260.314 46.4328L249.345 51.3185L258.362 42.4494Z" fill="#FF4C87"/>
<path fill-rule="evenodd" clip-rule="evenodd" d="M235.383 52.9278L240.807 57.0353L260.536 50.4256L240.733 61.6598L228.944 52.9733L235.383 52.9278Z" fill="#FF4C87"/>
<path fill-rule="evenodd" clip-rule="evenodd" d="M291.89 45.85L285.349 49.6058L285.827 59.7866L297.104 64.681L279.916 63.0347L279.702 40.1495L291.89 45.85Z" fill="#FF4C87"/>
<path fill-rule="evenodd" clip-rule="evenodd" d="M276.495 43.352L276.677 57.0274L268.987 47.489L276.495 43.352Z" fill="#FF4C87"/>
<path fill-rule="evenodd" clip-rule="evenodd" d="M306.931 65.963L309.997 57.6265L302.872 50.9052L304.944 60.1749L296.331 61.1815L306.931 65.963Z" fill="#FF4C87"/>
<path fill-rule="evenodd" clip-rule="evenodd" d="M288.842 52.3821L291.639 59.6971L301.103 56.2564L293.733 50.4046L288.842 52.3821Z" fill="#FF4C87"/>
<path fill-rule="evenodd" clip-rule="evenodd" d="M297.46 40.5414L301.092 49.1069L288.945 41.049L297.46 40.5414Z" fill="#FF4C87"/>
<path fill-rule="evenodd" clip-rule="evenodd" d="M300.369 67.9518L306.194 69.7469L301.397 73.7767L287.485 67.4015L300.369 67.9518Z" fill="#FF4C87"/>
<path fill-rule="evenodd" clip-rule="evenodd" d="M275.756 59.6651L281.081 71.0005L296.63 73.9057L276.983 75.7846L270.796 55.5641L275.756 59.6651Z" fill="#FF4C87"/>
<path fill-rule="evenodd" clip-rule="evenodd" d="M192.41 67.692L196.167 74.2277L206.355 73.7484L211.255 62.477L212.21 76.4939L186.703 79.8736L192.41 67.692Z" fill="#FF4C87"/>
<path fill-rule="evenodd" clip-rule="evenodd" d="M189.907 83.0777L206.367 80.1753L194.045 90.58L189.907 83.0777Z" fill="#FF4C87"/>
<path fill-rule="evenodd" clip-rule="evenodd" d="M212.54 52.656L204.199 49.5944L201.479 56.8375L206.748 54.6431L206.596 66.9108L212.54 52.656Z" fill="#FF4C87"/>
<path fill-rule="evenodd" clip-rule="evenodd" d="M212.54 52.656L204.199 49.5944L201.479 56.8375L206.748 54.6431L206.596 66.9108L212.54 52.656Z" fill="#FF4C87"/>
<path fill-rule="evenodd" clip-rule="evenodd" d="M196.496 70.0491L202.454 70.1115L205.189 58.9776L195.656 64.3792L196.496 70.0491Z" fill="#FF4C87"/>
<path fill-rule="evenodd" clip-rule="evenodd" d="M187.1 62.127L195.672 58.4952L187.605 70.636L187.1 62.127Z" fill="#FF4C87"/>
<path fill-rule="evenodd" clip-rule="evenodd" d="M212.974 59.4873L215.825 54.5515L219.813 55.1212L216.594 72.9296L212.974 59.4873Z" fill="#FF4C87"/>
<path fill-rule="evenodd" clip-rule="evenodd" d="M206.231 83.8126L219.217 76.0214L220.485 62.9486L223.907 68.7407L221.628 82.931L202.126 88.7708L206.231 83.8126Z" fill="#FF4C87"/>
<path fill-rule="evenodd" clip-rule="evenodd" d="M243.365 75.5081L242.039 82.929L250.149 89.1058L261.152 83.6175L252.868 94.9708L231.159 81.1755L243.365 75.5081Z" fill="#FF4C87"/>
<path fill-rule="evenodd" clip-rule="evenodd" d="M231.552 85.6886L246.025 94.0383L229.896 94.0949L231.552 85.6886Z" fill="#FF4C87"/>
<path fill-rule="evenodd" clip-rule="evenodd" d="M268.453 76.9183L264.034 69.2143L257.293 73.0171L262.739 74.72L254.733 84.0224L268.453 76.9183Z" fill="#FF4C87"/>
<path fill-rule="evenodd" clip-rule="evenodd" d="M268.453 76.9183L264.034 69.2143L257.293 73.0171L262.739 74.72L254.733 84.0224L268.453 76.9183Z" fill="#FF4C87"/>
<path fill-rule="evenodd" clip-rule="evenodd" d="M244.978 79.9388L249.501 83.8138L258.757 77.0398L247.982 75.0548L244.978 79.9388Z" fill="#FF4C87"/>
<path fill-rule="evenodd" clip-rule="evenodd" d="M242.877 67.8328L251.778 70.5566L237.792 74.6774L242.877 67.8328Z" fill="#FF4C87"/>
<path fill-rule="evenodd" clip-rule="evenodd" d="M264.392 82.4309L269.751 80.4811L272.439 83.4793L258.519 95.0563L264.392 82.4309Z" fill="#FF4C87"/>
<path fill-rule="evenodd" clip-rule="evenodd" d="M243.581 96.7374L258.539 99.1101L267.919 89.9084L266.814 96.5445L255.941 105.953L237.248 97.8995L243.581 96.7374Z" fill="#FF4C87"/>
<path fill-rule="evenodd" clip-rule="evenodd" d="M184.721 98.337L191.507 96.5832L196.705 98.4363L194.695 94.9171L197.762 92.2887L201.801 96.5305L194.648 103.559L199.546 109.672L191.236 105.917L194.347 101.856L189.223 102.759L184.721 98.337Z" fill="#2CBB64"/>
<path fill-rule="evenodd" clip-rule="evenodd" d="M198.308 103.976L206.354 98.4502L214.041 98.401L209.732 94.7528L212.494 89.853L229.873 98.4805L217.23 112.039L210.448 110.794L212.585 103.998L206.308 107.62L198.308 103.976Z" fill="#2CBB64"/>
<path fill-rule="evenodd" clip-rule="evenodd" d="M307.225 76.9911L297.212 81.7662L292.797 89.2985L291.653 82.9877L285.259 82.9204L283.879 104.917L304.413 100.184L307.04 92.8059L299.135 91.0464L306.267 86.9305L307.225 76.9911Z" fill="#2CBB64"/>
<path fill-rule="evenodd" clip-rule="evenodd" d="M274.57 95.5181L269.925 102.116L269.87 110.845L265.721 105.952L260.15 109.088L269.001 120.286L285.377 114.466L286.408 107.928L277.946 107.459L280.352 102.063L274.57 95.5181Z" fill="#2CBB64"/>
<path fill-rule="evenodd" clip-rule="evenodd" d="M247.479 124.535L228.382 117.372L207.264 123.875L184.62 110.667L194.88 127.688L207.264 123.875L240.075 143.013L238.568 150.619L252.943 165.301L238.194 180.664L267.359 192.087L278.449 180.445L264.695 165.125L304.429 111.413L326.523 107.517L321.868 87.8401L332.277 73.7695L314.265 55.7075L321.868 87.8401L304.429 111.413L303.896 111.507L272.265 129.625L232.789 107.069L247.479 124.535ZM273.172 137.723L250.729 127.827L268.065 152.882L292.108 120.531L273.172 137.723Z" fill="white"/>
<path fill-rule="evenodd" clip-rule="evenodd" d="M166.327 100.1L177.255 84.709L171.717 74.0314L183.441 67.7341L177.255 84.709L184.62 110.667L166.327 100.1Z" fill="white"/>
<path fill-rule="evenodd" clip-rule="evenodd" d="M44.8284 306.173L107.45 339.174L65.0684 406.066L69.8684 362.242L11.5576 350.784L69.8461 343.546L44.8284 306.173Z" fill="#FFDE00"/>
<path fill-rule="evenodd" clip-rule="evenodd" d="M332.253 145.147H351.908L367.308 127.622V150.136L385.805 163.412H361.951L344.548 192.498L348.088 157.76L332.253 145.147Z" fill="#FFDE00"/>
<path fill-rule="evenodd" clip-rule="evenodd" d="M401.433 199.104L407.764 204.416L419 202.701L413.193 213.088L415.06 223.224L405.206 217.339L391.818 223.42L400.79 208.97L401.433 199.104Z" fill="#FFDE00"/>
</g>
<defs>
<clipPath id="clip0_52_25488">
<rect width="420" height="512" fill="white"/>
</clipPath>
</defs>
</svg>
