<?xml version="1.0" encoding="UTF-8"?>
<svg width="361px" height="373px" viewBox="0 0 361 373" version="1.1" xmlns="http://www.w3.org/2000/svg" xmlns:xlink="http://www.w3.org/1999/xlink">
    <title>img_send_gift</title>
    <defs>
        <circle id="path-1" cx="72" cy="72" r="72"></circle>
        <filter x="-28.1%" y="-45.0%" width="156.2%" height="190.0%" filterUnits="objectBoundingBox" id="filter-3">
            <feGaussianBlur stdDeviation="6.75" in="SourceGraphic"></feGaussianBlur>
        </filter>
        <filter x="-94.1%" y="-113.2%" width="288.2%" height="326.3%" filterUnits="objectBoundingBox" id="filter-4">
            <feGaussianBlur stdDeviation="13.5" in="SourceGraphic"></feGaussianBlur>
        </filter>
        <filter x="-94.1%" y="-113.2%" width="288.2%" height="326.3%" filterUnits="objectBoundingBox" id="filter-5">
            <feGaussianBlur stdDeviation="13.5" in="SourceGraphic"></feGaussianBlur>
        </filter>
        <radialGradient cx="53.9509143%" cy="100%" fx="53.9509143%" fy="100%" r="133.539256%" gradientTransform="translate(0.539509,1.000000),scale(0.277778,1.000000),rotate(90.000000),scale(1.000000,2.351462),translate(-0.539509,-1.000000)" id="radialGradient-6">
            <stop stop-color="#FFCE31" offset="0%"></stop>
            <stop stop-color="#FF5955" offset="100%"></stop>
        </radialGradient>
        <linearGradient x1="46.3829628%" y1="53.0703661%" x2="26.4645138%" y2="48.007626%" id="linearGradient-7">
            <stop stop-color="#FFFFFF" stop-opacity="0" offset="0%"></stop>
            <stop stop-color="#B3B3B3" stop-opacity="0.5" offset="14.233712%"></stop>
            <stop stop-color="#B52A00" stop-opacity="0.7" offset="30.9001192%"></stop>
            <stop stop-color="#FF7C4A" stop-opacity="0" offset="100%"></stop>
        </linearGradient>
        <linearGradient x1="70.1755836%" y1="49.1835247%" x2="53.3164525%" y2="52.3310723%" id="linearGradient-8">
            <stop stop-color="#FF754D" stop-opacity="0" offset="0%"></stop>
            <stop stop-color="#C12B00" stop-opacity="0.62" offset="61.7613277%"></stop>
            <stop stop-color="#000000" stop-opacity="0" offset="100%"></stop>
        </linearGradient>
        <path d="M77.9398512,18.75 L45,18.75 C20.0819836,18.75 9.12550253,18.75 12.1305567,18.75 L11.8410871,18.75 C9.49315632,5.47793829 14.3996503,0.81633895 21.9650938,0.0439943694 C28.7377154,-0.647412243 37.2804167,6.89935854 44.8904692,16.4304426 C52.5005216,6.89935854 61.043223,-0.647412243 67.8158446,0.0439943694 C75.3812881,0.81633895 80.8917035,4.84123922 77.9398512,18.75 Z M67.0939672,11.7367019 C63.9610375,11.4168659 59.3003265,13.8640256 54.4668285,18.75 L67.1968216,18.75 C69.5382336,13.7871298 68.9766779,11.928905 67.0939672,11.7367019 Z M35.3141098,18.75 C30.4806119,13.8640256 25.8199009,11.4168659 22.6869712,11.7367019 C20.8042606,11.928905 20.2427049,13.7871296 22.5841165,18.75 L35.3141098,18.75 Z" id="path-9"></path>
        <radialGradient cx="50%" cy="13.665731%" fx="50%" fy="13.665731%" r="98.3919742%" gradientTransform="translate(0.500000,0.136657),scale(0.694565,1.000000),rotate(90.000000),translate(-0.500000,-0.136657)" id="radialGradient-10">
            <stop stop-color="#FFDF31" offset="0%"></stop>
            <stop stop-color="#FFC555" offset="100%"></stop>
        </radialGradient>
        <radialGradient cx="20.4148598%" cy="68.071178%" fx="20.4148598%" fy="68.071178%" r="208.265608%" gradientTransform="translate(0.204149,0.680712),scale(0.545455,1.000000),rotate(-39.104090),scale(1.000000,0.671750),translate(-0.204149,-0.680712)" id="radialGradient-11">
            <stop stop-color="#C066FF" offset="0%"></stop>
            <stop stop-color="#E81AA1" offset="100%"></stop>
        </radialGradient>
        <path d="M82.4373923,1.10854591 L82.4373923,27.90317 C82.4373923,37.3454885 74.2417373,45 64.1318846,45 L18.3681154,45 C8.25826266,45 0.062607709,37.3454885 0.062607709,27.90317 L0.062607709,1.10854591 C-2.67315669,-0.369515304 85.1731567,-0.369515304 82.4373923,1.10854591 Z" id="path-12"></path>
        <linearGradient x1="50%" y1="0%" x2="50%" y2="100%" id="linearGradient-14">
            <stop stop-color="#F3A7E9" offset="0%"></stop>
            <stop stop-color="#FFF7FC" offset="22.9620946%"></stop>
            <stop stop-color="#FFEEF9" offset="58.0319451%"></stop>
            <stop stop-color="#FFBBE5" offset="100%"></stop>
        </linearGradient>
        <radialGradient cx="20.4148598%" cy="68.071178%" fx="20.4148598%" fy="68.071178%" r="311.175915%" gradientTransform="translate(0.204149,0.680712),scale(0.312500,1.000000),rotate(-24.969731),scale(1.000000,0.671750),translate(-0.204149,-0.680712)" id="radialGradient-15">
            <stop stop-color="#C066FF" offset="0%"></stop>
            <stop stop-color="#E81AA1" offset="100%"></stop>
        </radialGradient>
        <path d="M6.85714286,21 L83.1428571,21 C86.9299526,21 90,23.9421288 90,27.5714286 L90,42.5535714 C90,46.1828712 86.9299526,49.125 83.1428571,49.125 L6.85714286,49.125 C3.07004743,49.125 0,46.1828712 0,42.5535714 L0,27.5714286 C0,23.9421288 3.07004743,21 6.85714286,21 Z" id="path-16"></path>
        <filter x="-8.9%" y="-28.4%" width="117.8%" height="156.9%" filterUnits="objectBoundingBox" id="filter-17">
            <feGaussianBlur stdDeviation="2.5" in="SourceAlpha" result="shadowBlurInner1"></feGaussianBlur>
            <feOffset dx="0" dy="-2" in="shadowBlurInner1" result="shadowOffsetInner1"></feOffset>
            <feComposite in="shadowOffsetInner1" in2="SourceAlpha" operator="arithmetic" k2="-1" k3="1" result="shadowInnerInner1"></feComposite>
            <feColorMatrix values="0 0 0 0 0.196078431   0 0 0 0 0.77254902   0 0 0 0 1  0 0 0 0.4 0" type="matrix" in="shadowInnerInner1"></feColorMatrix>
        </filter>
        <linearGradient x1="50%" y1="29.7946698%" x2="50%" y2="100%" id="linearGradient-18">
            <stop stop-color="#FEFFD7" offset="0%"></stop>
            <stop stop-color="#FFF8FC" offset="100%"></stop>
        </linearGradient>
    </defs>
    <g id="首页" stroke="none" stroke-width="1" fill="none" fill-rule="evenodd">
        <g id="litepaper" transform="translate(-81.000000, -2449.000000)">
            <g id="img_send_gift" transform="translate(81.076815, 2449.767394)">
                <path d="M110.923185,51.2326062 C140.934117,51.2326062 166.656548,83.6996467 177.469542,111.233778 L182.923185,111.232606 L182.923185,136.232606 L182.908556,136.233105 C182.127823,163.040653 150.197828,195.232606 110.923185,195.232606 C71.6553683,195.232606 39.7296453,162.662967 38.9382251,136.23251 L38.9231854,136.232606 L38.9231854,111.232606 L44.4427671,111.233783 C55.2941198,83.794378 80.9730869,51.2326062 110.923185,51.2326062 Z" id="Combined-Shape" fill="#BF6E1B"></path>
                <circle id="Oval" stroke="#000000" stroke-width="8" cx="110.923185" cy="102.232606" r="76"></circle>
                <g id="Rectangle-+-Rectangle-Copy-4-+-Rectangle-Copy-8-+-Rectangle-Copy-14-+-icon/gift-蒙版" transform="translate(38.923185, 30.232606)">
                    <mask id="mask-2" fill="white">
                        <use xlink:href="#path-1"></use>
                    </mask>
                    <use id="蒙版" fill="#FFD500" xlink:href="#path-1"></use>
                    <path d="M36,65.25 L108,65.25 L108,92.25 C108,102.191125 99.9411255,110.25 90,110.25 L54,110.25 C44.0588745,110.25 36,102.191125 36,92.25 L36,65.25 L36,65.25 Z" id="Rectangle-Copy-4" fill-opacity="0.5" fill="#D00067" style="mix-blend-mode: multiply;" filter="url(#filter-3)" mask="url(#mask-2)"></path>
                    <path d="M36,38.25 C42.375,32.625 55.125,38.625 74.25,56.25 C74.25,64.9484848 67.1984848,72 58.5,72 L49.4986267,72 C40.6411735,71.9997658 33.1002764,65.5556469 31.7190763,56.8065461 C30.3544128,48.1578207 31.7813873,41.9723053 36,38.25 Z" id="Rectangle-Copy-8" fill="#FFD000" filter="url(#filter-4)" mask="url(#mask-2)"></path>
                    <path d="M72,38.25 C78.375,32.625 91.125,38.625 110.25,56.25 C110.25,64.9484848 103.198485,72 94.5,72 L85.4986267,72 C76.6411735,71.9997658 69.1002764,65.5556469 67.7190763,56.8065461 C66.3544128,48.1578207 67.7813873,41.9723053 72,38.25 Z" id="Rectangle-Copy-14" fill="#FFD000" filter="url(#filter-5)" mask="url(#mask-2)" transform="translate(88.734375, 54.104335) scale(-1, 1) translate(-88.734375, -54.104335) "></path>
                    <g id="Icon/gift" mask="url(#mask-2)">
                        <g transform="translate(27.000000, 29.250000)" id="icon/gift">
                            <g id="Shape-Copy">
                                <use fill="url(#radialGradient-6)" xlink:href="#path-9"></use>
                                <use fill="url(#linearGradient-7)" xlink:href="#path-9"></use>
                                <path stroke="#000000" stroke-width="9" d="M21.508071,-4.43273772 C28.2329154,-5.11926682 36.8493022,0.567545252 44.8921221,9.47398759 C52.9328432,0.566748588 61.5484941,-5.11921873 68.2728674,-4.43273772 C74.0836404,-3.83952477 78.7299644,-1.56499281 81.2853411,3.156546 C83.4540637,7.16366874 84.220141,13.3881768 81.4605831,23.25 L81.4605831,23.25 L60.4660268,23.25 C61.2637327,20.8604327 62.1126903,18.9873034 62.8022269,17.5179187 C60.8304705,18.7893359 58.6236899,20.8668069 56.3784488,23.25 L56.3784488,23.25 L33.4024923,23.25 C31.1570292,20.866586 28.9499638,18.788804 26.97829,17.5179445 C27.6684777,18.9878111 28.5173132,20.8607565 29.314911,23.25 L29.314911,23.25 L8.200449,23.25 C5.82734522,13.6132819 6.62915039,7.31118149 8.84986642,3.20799111 C11.3732143,-1.45436847 15.7903404,-3.84902332 21.508071,-4.43273772 Z" fill="url(#linearGradient-8)"></path>
                            </g>
                            <path d="M43.3788638,7.125 L46.6205363,7.125 C51.2014345,7.125 55.0953703,10.4712327 55.7844967,15 L56.2925804,18.339 C56.6201642,20.4917989 55.140535,22.5025463 52.9877361,22.83013 C52.7914337,22.8600007 52.5931553,22.875 52.3945933,22.875 L37.6048068,22.875 C35.427227,22.875 33.6619497,21.1097227 33.6619497,18.9321429 C33.6619497,18.7335808 33.676949,18.5353024 33.7068197,18.339 L34.2149034,15 C34.9040298,10.4712327 38.7979656,7.125 43.3788638,7.125 Z" id="Rectangle" fill="url(#radialGradient-10)"></path>
                            <g id="Rectangle" transform="translate(3.750000, 45.375000)">
                                <mask id="mask-13" fill="white">
                                    <use xlink:href="#path-12"></use>
                                </mask>
                                <use id="Mask" stroke="#000000" stroke-width="9" fill="url(#radialGradient-11)" xlink:href="#path-12"></use>
                            </g>
                            <path d="M58.5,49.5 L58.5,87.756 L31.5,87.749 L31.5,49.5 L58.5,49.5 Z" id="Rectangle-Copy" stroke="#000000" stroke-width="9" fill="url(#linearGradient-14)"></path>
                            <g id="Rectangle">
                                <use fill="url(#radialGradient-15)" fill-rule="evenodd" xlink:href="#path-16"></use>
                                <use fill="black" fill-opacity="1" filter="url(#filter-17)" xlink:href="#path-16"></use>
                                <use stroke="#000000" stroke-width="9" xlink:href="#path-16"></use>
                            </g>
                            <path d="M58.5,23.625 L58.5,50.625 L31.5,50.625 L31.5,23.625 L58.5,23.625 Z" id="Rectangle" stroke="#000000" stroke-width="9" fill="url(#linearGradient-18)"></path>
                        </g>
                    </g>
                </g>
                <path d="M128.930203,130.764867 L160.77238,98.3939173 L201.165984,136.655267 C194.859844,154.863258 188.085699,167.389038 180.843549,174.232606 C173.601399,181.076175 161.878008,186.936979 145.673376,191.81502 L145.673376,173.755446 L128.930203,130.764867 Z" id="Rectangle" fill="#000000"></path>
                <polygon id="Rectangle" fill="#E8BD95" points="143.503185 127.836792 164.419871 109.460655 205.399154 157.592347 244.063987 200.2059 303.9589 188.401957 336.296102 200.2059 360.554218 287.666799 353.418932 348.852153 217.486072 372.064606 164.419871 305.23437 159.251978 262.865558 180.958428 234.130681 205.399154 291.331972 193.783586 231.232606 175.873173 191.434026"></polygon>
                <path d="M6.4659783,43.3492649 L31.1054484,60.2326062 L26.9259274,70.1959735 L-2.27373675e-13,66.3647667 L6.4659783,43.3492649 Z M215.63947,43.3492649 L191,60.2326062 L195.179521,70.1959735 L222.105448,66.3647667 L215.63947,43.3492649 Z M32.8861213,4.15223411e-13 L52.1734021,30.491133 L44.3165072,37.3938313 L15.0527242,14.7757816 L32.8861213,4.15223411e-13 Z M186.462174,4.15223411e-13 L167.174893,30.491133 L175.031788,37.3938313 L204.295571,14.7757816 L186.462174,4.15223411e-13 Z" id="Combined-Shape" fill="#FFDE00"></path>
            </g>
        </g>
    </g>
</svg>