<?xml version="1.0" encoding="UTF-8"?>
<svg width="329px" height="422px" viewBox="0 0 329 422" version="1.1" xmlns="http://www.w3.org/2000/svg" xmlns:xlink="http://www.w3.org/1999/xlink">
    <title>img_share_revenue</title>
    <defs>
        <linearGradient x1="75.1879566%" y1="47.5649054%" x2="97.5850777%" y2="90.3979396%" id="linearGradient-1">
            <stop stop-color="#374BEE" offset="0%"></stop>
            <stop stop-color="#000000" offset="100%"></stop>
        </linearGradient>
        <linearGradient x1="75.1879566%" y1="0%" x2="75.1879566%" y2="98.0660647%" id="linearGradient-2">
            <stop stop-color="#3556DB" offset="0%"></stop>
            <stop stop-color="#000000" offset="100%"></stop>
        </linearGradient>
    </defs>
    <g id="首页" stroke="none" stroke-width="1" fill="none" fill-rule="evenodd">
        <g id="litepaper" transform="translate(-724.000000, -2881.000000)">
            <g id="img_share_revenue" transform="translate(724.443440, 2881.000000)">
                <rect id="Rectangle" x="0.556560486" y="0" width="328" height="422"></rect>
                <path d="M234.55656,226 L210.027827,243.183577 L179.074472,243.183577 L175.150072,390.129274 L191.021521,411.185689 L234.55656,422 L145.871356,422 L124.01912,360.10881 L114.090821,362.792738 L124.189657,422 L104.438788,422 L100.172617,364.582024 L89.1913024,367.265952 L84.6565384,422 L66.8492166,422 L75.6543481,369.338976 L63.2388974,372.022904 L46.6354554,422 L29.7877737,422 L51.623556,372.917547 L38.6320564,376.437654 L14.4743575,422 L0.556560486,422 L33.7105038,368.160594 L52.3239542,363.156645 L55.2148144,362.379481 L65.1558385,359.706984 L167.960573,332.069462 L175.150072,228.802765 L202.527643,233.28719 L234.55656,226 Z M195.55656,389 L209.55656,392.571003 L209.55656,403 L195.55656,401.603976 L195.55656,389 Z M183.002656,368 L197.55656,372.650714 L195.807715,383 L181.55656,381.583657 L183.002656,368 Z M210.46981,371 L218.55656,373.946138 L218.55656,381 L209.55656,380.055771 L210.46981,371 Z M193.55656,356 L208.55656,359.149601 L208.55656,370 L194.55707,368.547568 L193.55656,356 Z M187.010134,343 L195.55656,344.669802 L195.55656,352 L186.55656,351.018781 L187.010134,343 Z M205.98143,338 L206.55656,343.564204 L196.55656,344 L196.55656,338 L205.98143,338 Z M180.55656,331 L188.55656,332.257303 L188.55656,339 L180.55656,339 L180.55656,331 Z M191.063921,324 L195.55656,325.473069 L195.55656,329 L190.55656,328.527886 L191.063921,324 Z M230.55656,321 L230.55656,324.734982 L225.55656,326 L226.063921,321.205018 L230.55656,321 Z M202.55656,320 L201.755589,325 L196.55656,324.527886 L197.084117,320 L202.55656,320 Z M188.55656,319 L188.55656,323 L183.55656,322.464561 L183.55656,319 L188.55656,319 Z M194.063921,312 L198.55656,313.473069 L198.55656,317 L193.55656,316.527886 L194.063921,312 Z M216.071856,302 L221.55656,302.70644 L221.55656,306.601117 L215.55656,307 L216.071856,302 Z M188.55656,301 L188.55656,305 L183.55656,304.464561 L183.55656,301 L188.55656,301 Z M195.55656,290 L194.212162,295 L189.55656,294.527886 L190.028975,290 L195.55656,290 Z M182.063921,264 L186.55656,265.473069 L186.55656,269 L181.55656,268.527886 L182.063921,264 Z M216.31817,200 L242.55656,207.630777 L242.55656,219.588367 L202.448699,229 L170.55656,223.213117 L170.55656,211.255528 L199.86,204.047765 L200.744613,209.039188 L178.55656,214.251091 L202.170215,219 L235.55656,210.866251 L214.518145,205.803829 L205.427107,207.939285 L205.065,202.767765 L216.31817,200 Z" id="Combined-Shape" fill="url(#linearGradient-1)"></path>
                <polygon id="Rectangle" fill="url(#linearGradient-2)" points="107.668049 239 137.168049 294.5 129.05656 302.5 129.05656 336 84.4809677 347 84.4809677 311 119.851155 304.807878 78.1680492 302.5"></polygon>
                <path d="M201.936711,0 L214.058039,30.6887582 L224.700015,25.5014062 L264.924763,5.89415253 L328.55656,37.7185468 L328.55656,91.1606691 L269.376565,140.78406 L182.181055,175.969607 L196.317488,179.46235 L202.408226,219 L163.882313,166.54791 L168.585,150.773247 L188.307452,156.064542 L171.562941,140.78406 L115.55656,82.898085 L143.197056,25.5186402 L201.936711,0 Z M319.55656,90 L267.905732,130.292354 L220.55656,153 L267.905732,136.514395 L319.55656,90 Z M201.55656,5 L201.982069,40 L209.55656,34.0648794 L201.55656,5 Z" id="Combined-Shape" fill="#D5B613"></path>
            </g>
        </g>
    </g>
</svg>