<?xml version="1.0" encoding="UTF-8"?>
<svg width="1200px" height="621px" viewBox="0 0 1200 621" version="1.1" xmlns="http://www.w3.org/2000/svg" xmlns:xlink="http://www.w3.org/1999/xlink">
    <title>img_head_1</title>
    <defs>
        <linearGradient x1="50%" y1="0.285115275%" x2="50%" y2="100%" id="linearGradient-1">
            <stop stop-color="#000000" offset="0%"></stop>
            <stop stop-color="#172752" offset="100%"></stop>
        </linearGradient>
        <radialGradient cx="49.1067708%" cy="88.5366093%" fx="49.1067708%" fy="88.5366093%" r="37.2350727%" gradientTransform="translate(0.491068,0.885366),scale(0.516667,1.000000),rotate(90.000000),scale(1.000000,1.910236),translate(-0.491068,-0.885366)" id="radialGradient-2">
            <stop stop-color="#0088FF" stop-opacity="0.99" offset="0%"></stop>
            <stop stop-color="#000000" stop-opacity="0" offset="100%"></stop>
        </radialGradient>
        <polygon id="path-3" points="0 0 1200 0 1200 620 0 620 0 552.261519"></polygon>
        <linearGradient x1="50%" y1="26.8264804%" x2="50%" y2="58.1191093%" id="linearGradient-4">
            <stop stop-color="#000000" stop-opacity="0.99" offset="0%"></stop>
            <stop stop-color="#000000" stop-opacity="0" offset="100%"></stop>
        </linearGradient>
        <linearGradient x1="35.4934869%" y1="47.8094796%" x2="88.0129272%" y2="97.2407435%" id="linearGradient-5">
            <stop stop-color="#000000" offset="0%"></stop>
            <stop stop-color="#000000" stop-opacity="0.29" offset="100%"></stop>
        </linearGradient>
        <linearGradient x1="57.6994645%" y1="22.1631846%" x2="29.9160012%" y2="73.7036636%" id="linearGradient-6">
            <stop stop-color="#000000" offset="0%"></stop>
            <stop stop-color="#000000" stop-opacity="0.29" offset="100%"></stop>
        </linearGradient>
        <linearGradient x1="50%" y1="0%" x2="50%" y2="100%" id="linearGradient-7">
            <stop stop-color="#FFD200" offset="0%"></stop>
            <stop stop-color="#000000" stop-opacity="0" offset="100%"></stop>
        </linearGradient>
        <linearGradient x1="50%" y1="0%" x2="50%" y2="100%" id="linearGradient-8">
            <stop stop-color="#FFD200" offset="0%"></stop>
            <stop stop-color="#000000" stop-opacity="0" offset="100%"></stop>
        </linearGradient>
        <linearGradient x1="50%" y1="0%" x2="50%" y2="100%" id="linearGradient-9">
            <stop stop-color="#FFD200" offset="0%"></stop>
            <stop stop-color="#000000" stop-opacity="0" offset="100%"></stop>
        </linearGradient>
        <linearGradient x1="50%" y1="100%" x2="50%" y2="60.4394653%" id="linearGradient-10">
            <stop stop-color="#FFD53F" stop-opacity="0.52" offset="0%"></stop>
            <stop stop-color="#FFD53F" offset="100%"></stop>
        </linearGradient>
        <linearGradient x1="50%" y1="0%" x2="50%" y2="100%" id="linearGradient-11">
            <stop stop-color="#FFD200" offset="0%"></stop>
            <stop stop-color="#000000" stop-opacity="0" offset="100%"></stop>
        </linearGradient>
        <linearGradient x1="0%" y1="10.2628121%" x2="90.5232762%" y2="89.7371879%" id="linearGradient-12">
            <stop stop-color="#FFD200" offset="0%"></stop>
            <stop stop-color="#000000" stop-opacity="0" offset="100%"></stop>
        </linearGradient>
    </defs>
    <g id="首页" stroke="none" stroke-width="1" fill="none" fill-rule="evenodd">
        <g id="zclub-home" transform="translate(0.000000, -274.000000)">
            <g id="img_head_1" transform="translate(0.000000, 275.000000)">
                <g id="Group" transform="translate(0.000000, -0.001023)">
                    <g id="Rectangle">
                        <use fill="url(#linearGradient-1)" xlink:href="#path-3"></use>
                        <use fill="url(#radialGradient-2)" style="mix-blend-mode: screen;" xlink:href="#path-3"></use>
                    </g>
                    <path d="M1200,4.76780925 L1200,30.9527102 C1165.90949,47.8934259 1146.81841,76.2716923 1142.72675,116.087509 C1140.07638,141.878247 1130.44742,221.440591 1113.83987,354.774543 L1102.93762,137.734385 C1096.74538,92.8898557 1070.28776,71.1352289 1023.56474,72.470505 C976.841722,73.8057811 950.634947,97.862601 944.944415,144.640965 L944.944415,144.640965 L941.366074,213.251354 L1099.75465,213.948328 C1088.53964,217.820585 1082.93214,224.243746 1082.93214,233.217811 C1079.61163,217.287243 1047.62163,217.171278 1044.87203,234.308571 C1043.03896,245.733433 1042.26636,288.295956 1042.55422,361.99614 L1042.55422,361.99614 L1040.00319,362.138776 C1035.42722,288.266191 1032.08877,245.656123 1029.98785,234.308571 C1026.83647,217.287243 992.33218,219.206394 990.812414,234.308571 C990.348041,238.923125 989.746997,244.2061 989.009281,250.157496 L988.804697,251.797177 C987.972808,258.422188 986.978268,265.842676 985.821079,274.058641 L985.821079,274.058641 L979.011368,274.058641 C976.720573,258.75046 974.34989,245.500437 971.899319,234.308571 C969.448747,223.116705 959.270999,217.442929 941.366074,217.287243 L941.366074,217.287243 L927.421,481.875809 L910.137195,137.734385 C904.006882,93.338301 878.014459,71.5726304 832.159927,72.4373737 L830.764316,72.470505 C784.041298,73.8057811 757.834523,97.862601 752.143992,144.640965 L752.143992,144.640965 L750.948434,212.308185 L906.401281,213.948328 L906.401281,219.756713 C902.531332,227.74355 900.596357,231.736968 900.596357,231.736968 C897.52393,217.287243 861.52904,217.287243 858.046698,233.217811 C855.503382,244.852641 851.306789,318.240465 845.456918,453.381284 L845.456918,453.381284 L843.789351,453.381284 C838.973881,317.226014 835.885939,243.838189 834.525526,233.217811 C832.484907,217.287243 793.936019,217.287243 791.847538,233.217811 C790.455218,243.838189 787.074925,317.226014 781.70666,453.381284 L781.70666,453.381284 L778.919064,453.381284 C778.5125,322.672224 778.301086,249.809643 778.284824,234.79354 L778.284062,233.930354 C778.283892,233.667733 778.283807,233.430218 778.283807,233.217811 C778.283807,222.597432 769.172016,217.287243 750.948434,217.287243 L750.948434,217.287243 L728.321863,601.4016 L921.338,597.304809 L921.122287,601.4016 L1083.33588,597.949832 C1082.4194,605.219527 1081.49244,612.569923 1080.55501,620.001023 L237.586024,619.614773 L264.491987,311.207014 C271.467804,229.384985 252.619236,166.318872 207.946282,122.008673 C163.273327,77.6984736 93.9579002,50.6696045 0,40.9220653 L0,4.76780925 L1200,4.76780925 Z" id="Combined-Shape" fill="url(#linearGradient-4)"></path>
                    <path d="M180.177081,149.04254 L196.358087,202.8934 L207.722635,217.155242 L211.202145,238.795848 L273.057054,244.136824 L280.920486,258.253098 L291.87793,314.089092 L300.534506,313.195284 L300.534506,278.387759 L296.904021,270.072812 L308.37003,241.613225 L320.120036,270.360059 L318.529105,278.387759 L318.529105,294.976365 L338.597996,294.976365 L338.597996,311.37367 L334.454546,316.616375 L338.597996,326.407436 L363.557842,325.279999 L363.557842,335.671815 L358.790962,339.738901 L361.278598,353.676987 L469.13711,352.425421 L468.281893,358.358994 L438.099115,360.744625 L435.944944,420.673069 L433.474899,420.673069 L433.086289,361.098797 L403.991409,362.36324 L402.476662,457.481828 L399.483384,457.481828 L398.588584,362.36324 L362.573087,365.394812 L366.55488,410.018565 L380.925653,413.144482 L380.925653,421.762066 L372.50537,429.523222 L376.292273,458.95798 L414.039305,458.95798 L415.316553,466.676061 L405.459055,472.930519 L404.123,496.92554 L406.605831,486.686019 L388.777131,620.001023 L0,620.001023 L20.1808747,577.099947 L34.1480982,541.825728 L49.9534488,526.572012 L57.3834564,495.266915 L67.9170824,487.516826 L73.3050865,474.464044 L82.05017,459.105225 L88.6043678,457.26328 L93.1405216,453.253273 L94.6392949,448.358479 L104.833131,445.911083 L107.055277,391.427122 L96.6380346,390.819987 L94.6865018,444.785256 L90.7164108,448.358479 L90.7164108,390.329871 L83.3450707,389.537134 L74.4273144,390.460759 L72.8372003,468.624064 L66.9641972,469.982229 L66.9641972,390.329871 L55.9498561,389.310304 L43.8660011,389.310304 L42.8821642,526.662685 L35.5432525,533.491332 L34.1480982,387.677174 L3.1600008,383.018492 L0.952885124,379.872587 L125.986186,379.407319 L128.364006,360.349148 L105.073451,360.034558 L135.152144,241.613225 L149.937444,240.180433 L152.066851,221.3375 L165.488159,205.143067 L180.177081,149.04254 Z M388.142853,464.77253 L377.764974,468.674775 L380.925653,488.575386 L388.142853,498.966317 L393.814295,508.926175 L401.215048,508.926175 L402.369,504.16554 L401.215048,502.361905 L400.29627,468.955408 L388.142853,464.77253 Z M404.123,496.92554 L402.369,504.16554 L403.612553,506.109642 L404.123,496.92554 Z M157.725145,244.178498 L153.835628,245.360646 L151.148133,417.049047 L173.761333,413.620741 L168.670056,479.002716 L170.824389,495.583846 L183.744079,486.213222 L188.276139,411.420204 L254.095659,401.441544 L354.277769,417.049047 L350.449585,411.669919 L250.548272,395.058346 L154.872672,407.701526 L157.725145,244.178498 Z M178.82851,174.519984 L168.905524,210.120878 L158.99349,222.079388 L157.861302,238.02255 L169.409329,236.21703 L191.37492,238.02255 L184.980462,208.544496 L173.904376,208.544496 L183.744079,201.005004 L178.82851,174.519984 Z" id="Combined-Shape" fill="url(#linearGradient-5)"></path>
                    <path d="M989.224272,267.576625 L1012.79175,315.644846 L1022.57572,317.209238 L1028.44268,327.419807 L1033.13837,420.783319 L1038.64421,420.116689 L1033.13837,323.573735 L1033.13837,294.587903 L1048.92298,273.166907 L1067.95165,294.607185 L1071.83196,354.809155 L1102.34315,354.809155 L1102.34315,367.038773 L1099.25169,370.948945 L1102.34315,378.251421 L1120.96586,377.410543 L1120.96586,385.161081 L1117.40926,388.19444 L1119.2653,404.989285 L1198.41186,406.260428 L1198.41186,409.414727 L1176.58163,410.260549 L1174.97438,448.557646 L1173.13147,448.557646 L1172.84152,410.524701 L1154.21443,411.467762 L1153.08427,473.877627 L1150.85096,473.877627 L1150.18335,411.467762 L1120.23113,413.728802 L1123.20197,440.611187 L1133.92411,442.942593 L1133.92411,449.369854 L1127.64168,455.158364 L1130.46711,476.400674 L1184.90648,476.400674 L1189.04669,479.279044 L1182.16223,482.359873 L1172.63249,489.662107 L1171.55407,529.089077 L1169.35817,527.872181 L1167.7657,487.025499 L1162.75096,482.157057 L1159.5834,482.157057 L1152.22865,486.821826 L1150.85096,512.278885 L1149.06217,509.483707 L1148.37666,483.857065 L1139.30891,480.737345 L1131.5659,483.64776 L1133.92411,499.201295 L1139.30891,506.951172 L1143.54041,514.379543 L1149.06217,514.379543 L1153.08427,524.337764 L1174.84407,532.846623 L1176.98369,541.6116 L1180.23775,546.725695 L1198.41186,620.001023 L836.328518,620.001023 L844.324084,565.462665 L856.116567,554.085972 L861.660147,504.192044 L869.519359,498.411788 L873.539387,488.676619 L880.064154,477.221537 L884.954287,475.847758 L888.338743,472.85697 L889.456988,469.206282 L897.06268,467.380937 L898.720639,426.745114 L890.948262,426.292294 L889.49221,466.541261 L886.530097,469.206282 L886.530097,425.926751 L881.030289,425.335503 L863.988084,426.024371 L862.801689,484.320982 L858.419801,485.333943 L858.419801,425.926751 L850.201924,425.166325 L836.328518,425.166325 L835.59447,528.151193 L830.118857,529.740122 L829.077922,423.948287 L781.68343,420.473698 L780.036686,418.127384 L912.845122,417.780373 L914.61923,403.5662 L919.683907,315.009275 L930.715323,313.940654 L956.190096,267.576625 L976.425344,312.907988 L984.151111,313.574836 L989.224272,267.576625 Z M936.52578,316.922535 L933.623785,317.804217 L931.618626,445.854738 L948.490492,443.297802 L944.691855,518.607319 L946.299218,530.974039 L955.938689,523.985138 L959.320091,441.656573 L1008.42849,434.21418 L1114.04194,445.854738 L1111.1857,441.842819 L1005.78176,429.453394 L934.397531,438.883068 L936.52578,316.922535 Z" id="Combined-Shape-Copy-3" fill="url(#linearGradient-6)"></path>
                    <polygon id="身体" fill="#184E7F" points="410.249254 412.984539 427.798254 412.581946 431.043975 399.539306 461.181717 390.096488 463.627003 390.948384 471.25544 382.448106 483.031763 388.052801 516.358784 361.187206 537.796099 369.640781 537.796099 288.868271 554.119921 289.577109 555.715918 483.035364 588.74077 476.679649 593.145358 617.458737 339.438149 615.552022 370.157448 538.579407 387.977836 532.31833"></polygon>
                    <polygon id="身体-02" fill="#2D3DC2" points="459.003812 353.549004 466.239024 351.869311 469.13711 267.326234 478.839121 263.639323 477.931442 334.470014 495.388965 305.728818 536.202257 313.383806 541.556379 399.943143 519.438295 388.350874 482.771025 419.355314 473.951096 411.989827 463.219959 424.303152 460.647003 423.264504 445.881953 427.105072 445.690381 377.371602"></polygon>
                    <polygon id="Rectangle-Copy-60" fill="#273773" points="544.440944 116.7324 538.12843 112.492808 533.14421 103.681664 533.14421 91.1024799 543.513304 91.1024799 543.248315 68.2492492 540.240498 61.5020133 540.240498 55.1800711 565.113518 51.6123667 565.113518 61.1598967 562.815191 64.9743444 562.868292 91.9205494 572.042179 91.9205494 573.260098 106.025596 563.08018 112.492808 566.771346 270.356078 582.088165 273.912942 582.088165 179.902698 575.149156 167.157207 603.107086 159.201587 633.718634 168.2782 628.933343 183.523821 633.718634 277.697252 621.855203 288.972379 619.717425 308.670569 572.44016 310.675609 549.609589 317.189344 545.773214 317.189344 494.310104 305.566511 499.610437 201.474336 495.297432 193.847966 493.912123 175.704461 506.723905 174.950753 506.723905 128.392919 507.462098 128.392919 510.974721 165.052198 541.404092 164.191893"></polygon>
                    <polygon id="Rectangle" fill="#2D3DC2" points="558.290379 315.562274 575.14759 308.540219 618.104817 309.841619 621.990439 286.298806 663.288203 266.07934 663.288203 223.566897 678.13658 216.924307 681.681974 266.07934 695.199252 308.540219 695.199252 317.786774 705.082155 339.634741 705.496467 277.475766 709.704204 277.475766 714.179987 401.514305 729.325565 396.915426 728.321863 359.13741 725.18254 344.798563 736.281053 317.786774 745.543596 340.646865 745.543596 377.923474 767.332656 377.923474 767.332656 388.265294 765.166755 403.741783 769.295924 413.890348 793.118052 413.890348 806.121616 535.787799 670.271324 511.86509 585.511983 525.481302 586.34198 476.679649 556.413704 480.633159"></polygon>
                    <polygon id="Rectangle" fill="#2D3DC2" points="591.424034 488.250642 717.501002 476.679649 806.606243 488.981187 812.466326 535.006601 822.88263 546.279029 840.349604 591.673197 851.285832 594.753568 857.596612 617.458737 591.424034 614.698177"></polygon>
                    <path d="M464.112279,417.180224 L466.557072,418.032249 L474.18397,409.359974 L485.099162,416.9004 L522.409668,386.427113 L543.465886,400.902193 L546.334279,409.359974 L529.242528,404.720644 L534.383757,414.455322 L537.861627,440.853251 L533.532441,528.259612 L525.296022,534.456192 L525.295862,425.340168 L519.489508,402.269026 L486.167889,424.327236 L488.722844,438.029043 L484.001263,526.88452 L472.446067,531.33352 L475.803195,437.207303 L472.74781,415.683993 L463.655962,425.666078 L466.557072,441.879669 L459.795893,531.33352 L456.101155,535.152227 L460.697171,441.879669 L458.549088,425.114252 L456.101155,425.666078 L449.200338,449.038632 L414.939446,450.732699 L419.298939,441.879669 L430.946608,439.27052 L435.841629,426.793669 L464.112279,417.180224 Z M630.959831,493.990395 L620.620689,519.317543 L619.717425,579.039584 L625.006224,521.579116 L626.91217,522.038671 L621.32322,563.330162 L630.904461,523.352119 L633.175296,523.896575 L621.32322,595.992868 L621.855657,607.641107 L637.150836,524.982268 L639.871587,525.54389 L625.833853,614.916451 L672.77269,614.916451 L672.77269,599.372914 L642.974224,525.911492 L656.924239,490.890573 L630.959831,493.990395 Z M687.433156,490.890573 L680.896436,508.401032 L676.25522,527.081751 L676.25522,581.545123 L678.985154,528.335431 L681.44593,529.438237 L677.161841,571.929413 L684.240383,530.514151 L686.836826,531.277567 L678.749983,601.680209 L689.834154,532.380373 L692.433666,533.026398 L681.380665,616.144987 L723.875066,616.187594 L723.875066,599.372914 L696.535508,528.335431 L708.74409,490.890573 L687.433156,490.890573 Z M765.878151,549.111559 L791.971834,549.111559 L779.89427,565.045736 L777.493148,576.569046 L778.348332,618.88449 L775.163156,618.88449 L774.18607,576.569046 L771.836907,576.569046 L771.839387,618.88449 L769.180173,618.88449 L768.839705,576.569046 L765.622925,576.201444 L765.481189,618.88449 L762.394877,618.88449 L762.394877,576.201444 L758.788068,576.201444 L757.8585,618.88449 L753.732133,618.72988 L752.647488,579.039584 L765.878151,549.111559 Z M565.313896,406.31025 L572.968682,397.34537 L586.782279,417.857909 L589.221331,408.591801 L596.762039,398.550722 L600.966043,403.536156 L593.452475,413.882309 L591.103087,427.114884 L580.469364,410.610407 L575.609652,403.649738 L568.623598,413.33116 L565.313896,406.31025 Z M651.736883,388.018192 L663.507543,392.001767 L651.52683,402.173702 L644.35001,415.95338 L641.296352,415.366884 L641.144217,456.630182 L638.541551,456.630182 L638.693686,414.997514 L635.633156,414.455999 L635.481021,456.630182 L632.71258,456.630182 L632.864715,413.406836 L641.296352,398.550722 L651.736883,388.018192 Z M707.187575,406.628036 L696.658179,414.997514 L691.377003,421.862012 L691.224868,456.630182 L692.871496,456.630182 L693.02363,423.146643 L695.049663,424.059943 L694.897529,456.630182 L696.506044,456.630182 L696.658179,424.479358 L698.18187,425.205417 L698.029736,456.630182 L699.779073,456.630182 L700.837328,430.765263 L719.012226,456.630182 L723.398624,456.630182 L732.983784,409.552813 L730.078489,406.945822 L721.637526,416.712154 L707.187575,406.628036 Z" id="Combined-Shape" fill-opacity="0.99" fill="#37ADF1"></path>
                    <path d="M623.597419,289.003861 L639.871587,293.17246 L639.871587,310.457756 L635.953519,310.457756 L635.828113,297.274907 L629.67467,296.425696 L629.67467,310.457756 L623.597419,310.457756 L623.597419,289.003861 Z M705.743024,277.697252 L702.739859,265.991907 L713.007686,265.991907 L709.681598,277.697252 L705.743024,277.697252 Z M483.337854,254.449273 L477.917887,263.639323 L468.806703,262.423028 L465.468115,255.643499 L483.337854,254.449273 Z M482.216626,249.759366 L483.337854,254.449273 L466.239024,254.081671 L466.239024,250.038048 L482.216626,249.759366 Z M562.363572,113.436587 L545.135623,116.306411 L538.825098,111.888448 L559.643976,104.90566 L533.842449,103.25935 L533.842449,93.546754 L543.508936,90.6837103 L561.297801,92.6060511 L572.206601,92.0214512 L572.771159,105.602623 L562.363572,113.436587 Z M575.486981,165.779475 L602.14987,159.269626 L637.150836,169.627085 L629.67467,184.519444 L615.284584,176.872963 L593.248964,176.872963 L581.761284,182.738563 L575.486981,165.779475 Z" id="Combined-Shape-Copy" fill-opacity="0.99" fill="#1B66DE"></path>
                    <polygon id="Rectangle" fill="#516FE6" points="598.09423 523.611724 615.881419 520.216297 614.372728 526.799547 598.09423 528.796512"></polygon>
                    <polygon id="Rectangle-Copy-63" fill="#516FE6" points="591.424034 561.110443 609.050082 557.715016 613.022763 563.75354 591.424034 566.295231"></polygon>
                    <polygon id="Rectangle-Copy-93" fill="#516FE6" points="417.643363 477.633007 419.904711 477.892249 419.886038 479.857507 417.046056 479.700881"></polygon>
                    <polygon id="Rectangle-Copy-94" fill="#112674" points="425.982277 476.997435 429.751191 477.441851 429.720068 480.810864 424.986765 480.542362"></polygon>
                    <polygon id="Rectangle-Copy-114" fill="#112674" points="412.006629 510.047153 415.775543 510.491569 415.74442 513.860582 411.011117 513.59208"></polygon>
                    <polygon id="Rectangle-Copy-124" fill="#112674" points="426.299905 526.889798 430.068819 527.334214 430.037696 530.703227 425.304394 530.434725"></polygon>
                    <polygon id="Rectangle-Copy-144" fill="#112674" points="416.135797 540.2368 419.904711 540.681215 419.873588 544.050229 415.140286 543.781727"></polygon>
                    <polygon id="Rectangle-Copy-197" fill="#112674" points="487.483656 591.718091 492.006353 592.236576 491.969005 596.167092 486.289042 595.85384"></polygon>
                    <polygon id="Rectangle-Copy-201" fill="#516FE6" points="422.687467 594.895949 427.210164 595.414434 427.172816 599.344949 421.492853 599.031697"></polygon>
                    <polygon id="Rectangle-Copy-154" fill="#516FE6" points="404.701176 554.537158 408.47009 554.981574 408.438967 558.350587 403.705664 558.082086"></polygon>
                    <polygon id="Rectangle-Copy-198" fill="#516FE6" points="473.190379 609.514093 477.713076 610.032578 477.675728 613.963094 471.995765 613.649842"></polygon>
                    <polygon id="Rectangle-Copy-206" fill="#112674" points="408.39419 613.009736 412.916887 613.528222 412.87954 617.458737 407.199576 617.145485"></polygon>
                    <polygon id="Rectangle-Copy-164" fill="#516FE6" points="428.205676 557.079444 431.97459 557.52386 431.943467 560.892873 427.210164 560.624372"></polygon>
                    <polygon id="Rectangle-Copy-199" fill="#516FE6" points="502.729818 612.691951 507.252515 613.210436 507.215167 617.140951 501.535204 616.827699"></polygon>
                    <polygon id="Rectangle-Copy-200" fill="#516FE6" points="384.690588 553.901587 388.459502 554.346003 388.428379 557.715016 383.695077 557.446514"></polygon>
                    <polygon id="Rectangle-Copy-269" fill="#516FE6" points="447.704209 579.006661 456.749603 580.043631 456.674908 587.904662 445.314981 587.278158"></polygon>
                    <polygon id="Rectangle-Copy-95" fill="#112674" points="431.699588 473.184006 435.468502 473.628422 435.437379 476.997435 430.704076 476.728933"></polygon>
                    <polygon id="Rectangle-Copy-115" fill="#112674" points="417.723939 506.233724 421.492853 506.67814 421.46173 510.047153 416.728428 509.778651"></polygon>
                    <polygon id="Rectangle-Copy-125" fill="#112674" points="432.017216 523.394155 435.78613 523.83857 435.755007 527.207584 431.021705 526.939082"></polygon>
                    <polygon id="Rectangle-Copy-145" fill="#112674" points="421.53548 536.423371 425.304394 536.867786 425.273271 540.2368 420.539968 539.968298"></polygon>
                    <polygon id="Rectangle-Copy-202" fill="#516FE6" points="494.47148 586.951305 498.994177 587.46979 498.956829 591.400305 493.276866 591.087053"></polygon>
                    <polygon id="Rectangle-Copy-208" fill="#112674" points="429.675292 590.446948 434.197988 590.965433 434.160641 594.895949 428.480678 594.582697"></polygon>
                    <polygon id="Rectangle-Copy-155" fill="#516FE6" points="410.418487 550.723729 414.187401 551.168145 414.156278 554.537158 409.422975 554.268657"></polygon>
                    <polygon id="Rectangle-Copy-203" fill="#112674" points="480.178203 605.065093 484.7009 605.583578 484.663552 609.514093 478.983589 609.200841"></polygon>
                    <polygon id="Rectangle-Copy-214" fill="#112674" points="415.382015 608.24295 419.904711 608.761435 419.867364 612.691951 414.187401 612.378699"></polygon>
                    <polygon id="Rectangle-Copy-165" fill="#516FE6" points="433.922986 553.583801 437.6919 554.028217 437.660777 557.39723 432.927475 557.128728"></polygon>
                    <polygon id="Rectangle-Copy-204" fill="#516FE6" points="509.400014 608.24295 513.92271 608.761435 513.885363 612.691951 508.2054 612.378699"></polygon>
                    <polygon id="Rectangle-Copy-175" fill="#516FE6" points="406.606946 565.65966 410.37586 566.104075 410.344737 569.473089 405.611435 569.204587"></polygon>
                    <polygon id="Rectangle-Copy-205" fill="#516FE6" points="447.144852 545.321372 451.667549 545.839857 451.630201 549.770372 445.950238 549.45712"></polygon>
                    <polygon id="Rectangle-Copy-185" fill="#112674" points="424.711764 567.248588 428.480678 567.693004 428.449555 571.062017 423.716252 570.793516"></polygon>
                    <polygon id="Rectangle-Copy-275" fill="#516FE6" points="504.559688 574.557661 513.605082 575.594631 513.530387 583.455662 502.170461 582.829158"></polygon>
                    <polygon id="Rectangle-Copy-96" fill="#112674" points="435.947283 477.315221 438.962414 477.648533 438.937516 480.175293 435.150873 479.973916"></polygon>
                    <polygon id="Rectangle-Copy-116" fill="#112674" points="421.971634 510.364939 424.986765 510.698251 424.961867 513.225011 421.175225 513.023634"></polygon>
                    <polygon id="Rectangle-Copy-126" fill="#112674" points="436.264911 527.207584 439.280042 527.540896 439.255144 530.067655 435.468502 529.866279"></polygon>
                    <polygon id="Rectangle-Copy-136" fill="#112674" points="411.17227 524.347512 414.187401 524.680824 414.162502 527.207584 410.37586 527.006207"></polygon>
                    <polygon id="Rectangle-Copy-277" fill="#516FE6" points="372.369449 582.502304 376.389624 582.94672 376.356426 586.315733 371.30757 586.047232"></polygon>
                    <polygon id="Rectangle-Copy-373" fill="#516FE6" points="364.111111 595.213734 368.131286 595.65815 368.098088 599.027163 363.049232 598.758662"></polygon>
                    <polygon id="Rectangle-Copy-374" fill="#516FE6" points="373.322334 560.575088 377.342509 561.019503 377.309311 564.388517 372.260455 564.120015"></polygon>
                    <polygon id="Rectangle-Copy-375" fill="#516FE6" points="378.404388 565.341874 382.424563 565.78629 382.391365 569.155303 377.342509 568.886801"></polygon>
                    <polygon id="Rectangle-Copy-146" fill="#112674" points="426.100803 540.554585 429.115934 540.887897 429.091036 543.414657 425.304394 543.213281"></polygon>
                    <polygon id="Rectangle-Copy-209" fill="#112674" points="499.67206 592.035877 503.440974 592.480293 503.409851 595.849306 498.676548 595.580804"></polygon>
                    <polygon id="Rectangle-Copy-221" fill="#516FE6" points="435.1935 595.53152 438.962414 595.975936 438.931291 599.344949 434.197988 599.076447"></polygon>
                    <polygon id="Rectangle-Copy-156" fill="#516FE6" points="414.666182 554.854944 417.681313 555.188256 417.656414 557.715016 413.869772 557.51364"></polygon>
                    <polygon id="Rectangle-Copy-225" fill="#112674" points="420.900223 613.327522 424.669137 613.771938 424.638014 617.140951 419.904711 616.87245"></polygon>
                    <polygon id="Rectangle-Copy-166" fill="#516FE6" points="438.170681 557.39723 441.185813 557.730542 441.160914 560.257302 437.374272 560.055926"></polygon>
                    <polygon id="Rectangle-Copy-211" fill="#516FE6" points="514.918222 613.327522 518.687136 613.771938 518.656013 617.140951 513.92271 616.87245"></polygon>
                    <polygon id="Rectangle-Copy-337" fill="#112674" points="400.690533 610.785236 403.705664 611.118548 403.680766 613.645308 399.894124 613.443932"></polygon>
                    <polygon id="Rectangle-Copy-176" fill="#516FE6" points="410.854641 569.473089 413.869772 569.8064 413.844874 572.33316 410.058232 572.131784"></polygon>
                    <polygon id="Rectangle-Copy-212" fill="#516FE6" points="394.337966 554.219373 397.353097 554.552684 397.328198 557.079444 393.541556 556.878068"></polygon>
                    <polygon id="Rectangle-Copy-281" fill="#516FE6" points="471.630655 579.960018 478.665961 580.774781 478.607864 586.951305 469.772366 586.459052"></polygon>
                    <polygon id="Rectangle-Copy-186" fill="#516FE6" points="428.959459 571.379803 431.97459 571.713115 431.949691 574.239875 428.163049 574.038499"></polygon>
                    <polygon id="Rectangle-Copy-213" fill="#516FE6" points="408.313614 555.17273 411.328745 555.506042 411.303847 558.032802 407.517205 557.831425"></polygon>
                    <polygon id="Rectangle-Copy-97" fill="#516FE6" points="439.640297 481.446436 443.409211 481.890851 443.378088 485.259865 438.644786 484.991363"></polygon>
                    <polygon id="Rectangle-Copy-117" fill="#112674" points="425.664649 514.496154 429.433563 514.940569 429.40244 518.309583 424.669137 518.041081"></polygon>
                    <polygon id="Rectangle-Copy-127" fill="#112674" points="439.957926 531.338798 443.72684 531.783214 443.695717 535.152227 438.962414 534.883726"></polygon>
                    <polygon id="Rectangle-Copy-137" fill="#112674" points="415.182912 528.478727 418.951826 528.923143 418.920703 532.292156 414.187401 532.023654"></polygon>
                    <polygon id="Rectangle-Copy-147" fill="#516FE6" points="434.240615 546.592515 438.009529 547.03693 437.978406 550.405944 433.245103 550.137442"></polygon>
                    <polygon id="Rectangle-Copy-216" fill="#112674" points="510.03527 599.344949 514.557967 599.863434 514.52062 603.79395 508.840656 603.480698"></polygon>
                    <polygon id="Rectangle-Copy-231" fill="#516FE6" points="445.239082 602.840592 449.761779 603.359078 449.724431 607.289593 444.044468 606.976341"></polygon>
                    <polygon id="Rectangle-Copy-338" fill="#516FE6" points="400.254379 599.027163 404.023293 599.471579 403.99217 602.840592 399.258867 602.572091"></polygon>
                    <polygon id="Rectangle-Copy-157" fill="#516FE6" points="418.359196 558.986159 422.12811 559.430575 422.096987 562.799588 417.363684 562.531086"></polygon>
                    <polygon id="Rectangle-Copy-217" fill="#516FE6" points="490.024683 615.234237 494.54738 615.752722 494.510032 619.683237 488.830069 619.369985"></polygon>
                    <polygon id="Rectangle-Copy-167" fill="#516FE6" points="441.863696 561.528445 445.63261 561.972861 445.601487 565.341874 440.868184 565.073372"></polygon>
                    <polygon id="Rectangle-Copy-218" fill="#516FE6" points="491.295196 540.2368 495.817893 540.755285 495.780545 544.6858 490.100582 544.372548"></polygon>
                    <polygon id="Rectangle-Copy-233" fill="#112674" points="430.945805 544.368014 435.468502 544.886499 435.431154 548.817015 429.751191 548.503763"></polygon>
                    <polygon id="Rectangle-Copy-340" fill="#516FE6" points="463.026271 607.607379 467.548968 608.125864 467.51162 612.056379 461.831657 611.743127"></polygon>
                    <polygon id="Rectangle-Copy-177" fill="#516FE6" points="414.547656 573.604303 418.31657 574.048719 418.285447 577.417732 413.552144 577.149231"></polygon>
                    <polygon id="Rectangle-Copy-187" fill="#516FE6" points="432.652473 575.511018 436.421387 575.955434 436.390264 579.324447 431.656961 579.055945"></polygon>
                    <polygon id="Rectangle-Copy-98" fill="#112674" points="440.275554 473.184006 444.044468 473.628422 444.013345 476.997435 439.280042 476.728933"></polygon>
                    <polygon id="Rectangle-Copy-118" fill="#112674" points="426.299905 506.233724 430.068819 506.67814 430.037696 510.047153 425.304394 509.778651"></polygon>
                    <polygon id="Rectangle-Copy-128" fill="#516FE6" points="440.910811 523.394155 444.679725 523.83857 444.648602 527.207584 439.915299 526.939082"></polygon>
                    <polygon id="Rectangle-Copy-290" fill="#516FE6" points="391.374993 565.977445 396.400212 566.532965 396.358714 570.744232 390.047644 570.408604"></polygon>
                    <polygon id="Rectangle-Copy-138" fill="#112674" points="415.818169 520.216297 419.587083 520.660713 419.55596 524.029726 414.822657 523.761224"></polygon>
                    <polygon id="Rectangle-Copy-148" fill="#112674" points="430.429074 536.423371 434.197988 536.867786 434.166865 540.2368 429.433563 539.968298"></polygon>
                    <polygon id="Rectangle-Copy-235" fill="#112674" points="440.792285 590.446948 445.314981 590.965433 445.277634 594.895949 439.597671 594.582697"></polygon>
                    <polygon id="Rectangle-Copy-158" fill="#516FE6" points="418.994453 550.723729 422.763367 551.168145 422.732244 554.537158 417.998941 554.268657"></polygon>
                    <polygon id="Rectangle-Copy-223" fill="#112674" points="490.977568 605.065093 495.500265 605.583578 495.462917 609.514093 489.782954 609.200841"></polygon>
                    <polygon id="Rectangle-Copy-242" fill="#112674" points="426.499008 608.24295 431.021705 608.761435 430.984357 612.691951 425.304394 612.378699"></polygon>
                    <polygon id="Rectangle-Copy-168" fill="#516FE6" points="442.498953 553.583801 446.267867 554.028217 446.236744 557.39723 441.503441 557.128728"></polygon>
                    <polygon id="Rectangle-Copy-246" fill="#112674" points="455.720818 611.420808 460.243515 611.939293 460.206167 615.869808 454.526204 615.556556"></polygon>
                    <polygon id="Rectangle-Copy-342" fill="#516FE6" points="463.979156 597.75602 468.501853 598.274505 468.464505 602.205021 462.784542 601.891769"></polygon>
                    <polygon id="Rectangle-Copy-178" fill="#112674" points="415.500541 565.65966 419.269455 566.104075 419.238332 569.473089 414.505029 569.204587"></polygon>
                    <polygon id="Rectangle-Copy-188" fill="#112674" points="433.28773 567.248588 437.056644 567.693004 437.025521 571.062017 432.292218 570.793516"></polygon>
                    <polygon id="Rectangle-Copy-295" fill="#516FE6" points="526.158418 574.557661 535.203812 575.594631 535.129116 583.455662 523.76919 582.829158"></polygon>
                    <polygon id="Rectangle-Copy-99" fill="#516FE6" points="430.111446 480.493078 433.88036 480.937494 433.849237 484.306507 429.115934 484.038006"></polygon>
                    <polygon id="Rectangle-Copy-119" fill="#112674" points="416.135797 513.860582 419.904711 514.304998 419.873588 517.674011 415.140286 517.405509"></polygon>
                    <polygon id="Rectangle-Copy-129" fill="#112674" points="430.429074 530.703227 434.197988 531.147643 434.166865 534.516656 429.433563 534.248154"></polygon>
                    <polygon id="Rectangle-Copy-149" fill="#112674" points="420.264966 543.732443 424.03388 544.176859 424.002757 547.545872 419.269455 547.27737"></polygon>
                    <polygon id="Rectangle-Copy-228" fill="#112674" points="492.56571 596.167092 497.088407 596.685577 497.051059 600.616092 491.371096 600.30284"></polygon>
                    <polygon id="Rectangle-Copy-344" fill="#516FE6" points="468.027749 588.858019 471.04288 589.191331 471.017981 591.718091 467.231339 591.516715"></polygon>
                    <polygon id="Rectangle-Copy-346" fill="#516FE6" points="404.502074 590.764734 407.517205 591.098046 407.492306 593.624806 403.705664 593.423429"></polygon>
                    <polygon id="Rectangle-Copy-159" fill="#516FE6" points="408.830345 558.350587 412.599259 558.795003 412.568136 562.164016 407.834833 561.895515"></polygon>
                    <polygon id="Rectangle-Copy-229" fill="#516FE6" points="478.272433 614.280879 482.79513 614.799365 482.757782 618.72988 477.077819 618.416628"></polygon>
                    <polygon id="Rectangle-Copy-249" fill="#112674" points="389.336488 540.2368 393.859185 540.755285 393.821837 544.6858 388.141874 544.372548"></polygon>
                    <polygon id="Rectangle-Copy-169" fill="#112674" points="432.334845 560.892873 436.103759 561.337289 436.072636 564.706302 431.339333 564.437801"></polygon>
                    <polygon id="Rectangle-Copy-230" fill="#516FE6" points="479.542946 539.283442 484.065643 539.801927 484.028296 543.732443 478.348332 543.419191"></polygon>
                    <polygon id="Rectangle-Copy-256" fill="#112674" points="418.875927 543.414657 423.398624 543.933142 423.361276 547.863658 417.681313 547.550406"></polygon>
                    <polygon id="Rectangle-Copy-345" fill="#112674" points="394.854696 613.963094 398.62361 614.407509 398.592487 617.776523 393.859185 617.508021"></polygon>
                    <polygon id="Rectangle-Copy-179" fill="#516FE6" points="402.477777 577.099947 406.246691 577.544362 406.215568 580.913376 401.482266 580.644874"></polygon>
                    <polygon id="Rectangle-Copy-189" fill="#516FE6" points="423.123622 574.875446 426.892536 575.319862 426.861413 578.688875 422.12811 578.420374"></polygon>
                    <polygon id="Rectangle-Copy-100" fill="#516FE6" points="421.772532 481.446436 424.03388 481.705678 424.015207 483.670936 421.175225 483.51431"></polygon>
                    <polygon id="Rectangle-Copy-101" fill="#516FE6" points="434.743137 484.624293 438.009529 484.883536 437.982556 486.848793 433.88036 486.692167"></polygon>
                    <polygon id="Rectangle-Copy-120" fill="#112674" points="420.767488 517.674011 424.03388 517.933254 424.006907 519.898511 419.904711 519.741885"></polygon>
                    <polygon id="Rectangle-Copy-130" fill="#112674" points="435.060765 534.834442 438.327157 535.093684 438.300184 537.058942 434.197988 536.902316"></polygon>
                    <polygon id="Rectangle-Copy-134" fill="#516FE6" points="407.109468 537.694514 410.37586 537.953756 410.348887 539.919014 406.246691 539.762388"></polygon>
                    <polygon id="Rectangle-Copy-234" fill="#516FE6" points="475.916299 588.540234 479.936474 588.873545 479.903276 591.400305 474.85442 591.198929"></polygon>
                    <polygon id="Rectangle-Copy-258" fill="#516FE6" points="411.437739 591.718091 415.457914 592.051403 415.424716 594.578163 410.37586 594.376787"></polygon>
                    <polygon id="Rectangle-Copy-303" fill="#516FE6" points="378.432806 596.484877 384.96559 597.003362 384.911644 600.933878 376.707253 600.620626"></polygon>
                    <polygon id="Rectangle-Copy-140" fill="#112674" points="409.968123 531.656584 413.234516 531.915827 413.207542 533.881084 409.105347 533.724458"></polygon>
                    <polygon id="Rectangle-Copy-304" fill="#516FE6" points="384.467745 584.409019 391.000529 584.927504 390.946583 588.858019 382.742192 588.544767"></polygon>
                    <polygon id="Rectangle-Copy-150" fill="#516FE6" points="424.579029 547.863658 427.845421 548.1229 427.818448 550.088158 423.716252 549.931532"></polygon>
                    <polygon id="Rectangle-Copy-236" fill="#112674" points="498.150286 601.251664 502.170461 601.584976 502.137263 604.111735 497.088407 603.910359"></polygon>
                    <polygon id="Rectangle-Copy-262" fill="#516FE6" points="433.354097 604.747307 437.374272 605.080619 437.341074 607.607379 432.292218 607.406002"></polygon>
                    <polygon id="Rectangle-Copy-160" fill="#516FE6" points="413.144407 562.164016 416.410799 562.423259 416.383826 564.388517 412.28163 564.231891"></polygon>
                    <polygon id="Rectangle-Copy-237" fill="#516FE6" points="455.588083 541.190157 459.608258 541.523469 459.57506 544.050229 454.526204 543.848852"></polygon>
                    <polygon id="Rectangle-Copy-267" fill="#112674" points="394.921064 545.321372 398.941239 545.654683 398.908041 548.181443 393.859185 547.980067"></polygon>
                    <polygon id="Rectangle-Copy-170" fill="#516FE6" points="436.648907 564.706302 439.915299 564.965545 439.888326 566.930803 435.78613 566.774177"></polygon>
                    <polygon id="Rectangle-Copy-268" fill="#516FE6" points="424.460503 548.499229 428.480678 548.832541 428.44748 551.359301 423.398624 551.157924"></polygon>
                    <polygon id="Rectangle-Copy-347" fill="#112674" points="375.029002 540.872371 378.295394 541.131614 378.268421 543.096871 374.166226 542.940245"></polygon>
                    <polygon id="Rectangle-Copy-180" fill="#516FE6" points="409.650495 577.099947 412.916887 577.359189 412.889914 579.324447 408.787718 579.167821"></polygon>
                    <polygon id="Rectangle-Copy-239" fill="#516FE6" points="393.13382 561.528445 396.400212 561.787687 396.373238 563.752945 392.271043 563.596319"></polygon>
                    <polygon id="Rectangle-Copy-190" fill="#516FE6" points="427.755312 578.688875 431.021705 578.948118 430.994731 580.913376 426.892536 580.75675"></polygon>
                    <polygon id="Rectangle-Copy-240" fill="#516FE6" points="410.285752 561.210659 413.552144 561.469902 413.525171 563.435159 409.422975 563.278533"></polygon>
                    <polygon id="Rectangle-Copy-102" fill="#516FE6" points="442.498953 485.895436 446.267867 486.339852 446.236744 489.708865 441.503441 489.440363"></polygon>
                    <polygon id="Rectangle-Copy-121" fill="#112674" points="428.523304 518.945154 432.292218 519.38957 432.261095 522.758583 427.527792 522.490081"></polygon>
                    <polygon id="Rectangle-Copy-131" fill="#516FE6" points="442.816581 535.787799 446.585495 536.232215 446.554372 539.601228 441.821069 539.332726"></polygon>
                    <polygon id="Rectangle-Copy-241" fill="#516FE6" points="521.152263 585.997948 525.67496 586.516433 525.637613 590.446948 519.95765 590.133696"></polygon>
                    <polygon id="Rectangle-Copy-248" fill="#516FE6" points="537.109582 592.035877 545.050291 592.554362 545.012047 596.484877 537.724914 596.171625"></polygon>
                    <polygon id="Rectangle-Copy-336" fill="#516FE6" points="532.027528 598.391592 539.968237 598.910077 539.929993 602.840592 532.64286 602.52734"></polygon>
                    <polygon id="Rectangle-Copy-306" fill="#516FE6" points="548.426827 592.671448 553.308629 593.189933 553.271281 597.120449 547.591318 596.807197"></polygon>
                    <polygon id="Rectangle-Copy-339" fill="#516FE6" points="543.344773 599.027163 548.226575 599.545649 548.189227 603.476164 542.509264 603.162912"></polygon>
                    <polygon id="Rectangle-Copy-335" fill="#516FE6" points="569.072671 594.260377 573.954473 594.778862 573.917126 598.709378 568.237163 598.396126"></polygon>
                    <polygon id="Rectangle-Copy-341" fill="#516FE6" points="563.990617 600.298306 568.872419 600.816792 568.835072 604.747307 563.155109 604.434055"></polygon>
                    <polygon id="Rectangle-Copy-330" fill="#516FE6" points="558.102221 592.989234 565.696136 593.507719 565.638039 597.438235 556.802541 597.124983"></polygon>
                    <polygon id="Rectangle-Copy-343" fill="#516FE6" points="553.020167 599.344949 560.614082 599.863434 560.555985 603.79395 551.720487 603.480698"></polygon>
                    <polygon id="Rectangle-Copy-270" fill="#112674" points="456.356075 589.493591 460.878772 590.012076 460.841424 593.942591 455.161461 593.629339"></polygon>
                    <polygon id="Rectangle-Copy-141" fill="#112674" points="418.041568 532.927727 421.810482 533.372143 421.779359 536.741156 417.046056 536.472655"></polygon>
                    <polygon id="Rectangle-Copy-311" fill="#516FE6" points="380.604046 571.697589 388.141874 572.58642 388.079628 579.324447 378.613023 578.787443"></polygon>
                    <polygon id="Rectangle-Copy-151" fill="#516FE6" points="429.476189 549.770372 433.245103 550.214788 433.21398 553.583801 428.480678 553.315299"></polygon>
                    <polygon id="Rectangle-Copy-243" fill="#112674" points="504.000331 603.476164 508.523028 603.994649 508.48568 607.925164 502.805717 607.611912"></polygon>
                    <polygon id="Rectangle-Copy-161" fill="#112674" points="421.217851 563.435159 424.986765 563.879575 424.955642 567.248588 420.22234 566.980087"></polygon>
                    <polygon id="Rectangle-Copy-244" fill="#516FE6" points="465.567298 542.4613 470.089995 542.979785 470.052647 546.9103 464.372684 546.597048"></polygon>
                    <polygon id="Rectangle-Copy-273" fill="#112674" points="404.900278 546.592515 409.422975 547.111 409.385627 551.041515 403.705664 550.728263"></polygon>
                    <polygon id="Rectangle-Copy-171" fill="#516FE6" points="444.722351 565.977445 448.491265 566.421861 448.460142 569.790874 443.72684 569.522373"></polygon>
                    <polygon id="Rectangle-Copy-280" fill="#112674" points="434.439717 550.088158 438.962414 550.606643 438.925066 554.537158 433.245103 554.223906"></polygon>
                    <polygon id="Rectangle-Copy-350" fill="#516FE6" points="466.837811 613.327522 471.360508 613.846007 471.323161 617.776523 465.643197 617.463271"></polygon>
                    <polygon id="Rectangle-Copy-181" fill="#516FE6" points="417.723939 578.053304 421.492853 578.49772 421.46173 581.866733 416.728428 581.598231"></polygon>
                    <polygon id="Rectangle-Copy-334" fill="#516FE6" points="412.006629 582.184519 415.775543 582.628934 415.74442 585.997948 411.011117 585.729446"></polygon>
                    <polygon id="Rectangle-Copy-191" fill="#516FE6" points="435.511128 579.960018 439.280042 580.404434 439.248919 583.773447 434.515617 583.504946"></polygon>
                    <polygon id="Rectangle-Copy-247" fill="#112674" points="373.891224 550.088158 377.660138 550.532574 377.629015 553.901587 372.895712 553.633085"></polygon>
                    <polygon id="Rectangle-Copy-103" fill="#516FE6" points="443.409211 477.633007 447.220752 478.05626 447.189277 480.175293 443.409211 480.175293"></polygon>
                    <polygon id="Rectangle-Copy-122" fill="#112674" points="429.433563 510.682725 433.245103 511.105978 433.213628 513.225011 429.433563 513.225011"></polygon>
                    <polygon id="Rectangle-Copy-132" fill="#516FE6" points="443.72684 527.843155 447.53838 528.266408 447.506905 530.385441 443.72684 530.385441"></polygon>
                    <polygon id="Rectangle-Copy-142" fill="#112674" points="418.634198 524.665298 422.445738 525.088551 422.414263 527.207584 418.634198 527.207584"></polygon>
                    <polygon id="Rectangle-Copy-152" fill="#112674" points="433.245103 540.872371 437.056644 541.295624 437.025169 543.414657 433.245103 543.414657"></polygon>
                    <polygon id="Rectangle-Copy-250" fill="#112674" points="509.158285 592.671448 513.92271 593.200515 513.883367 595.849306 509.158285 595.849306"></polygon>
                    <polygon id="Rectangle-Copy-286" fill="#516FE6" points="444.362096 595.849306 449.126522 596.378372 449.087178 599.027163 444.362096 599.027163"></polygon>
                    <polygon id="Rectangle-Copy-184" fill="#112674" points="409.740603 542.143514 413.552144 542.566767 413.520669 544.6858 409.740603 544.6858"></polygon>
                    <polygon id="Rectangle-Copy-251" fill="#112674" points="479.618846 593.942591 484.383272 594.471658 484.343928 597.120449 479.618846 597.120449"></polygon>
                    <polygon id="Rectangle-Copy-287" fill="#516FE6" points="414.822657 597.120449 419.587083 597.649515 419.547739 600.298306 414.822657 600.298306"></polygon>
                    <polygon id="Rectangle-Copy-193" fill="#516FE6" points="405.611435 546.592515 409.422975 547.015768 409.3915 549.134801 405.611435 549.134801"></polygon>
                    <polygon id="Rectangle-Copy-252" fill="#516FE6" points="474.219164 599.344949 478.983589 599.874016 478.944245 602.522807 474.219164 602.522807"></polygon>
                    <polygon id="Rectangle-Copy-292" fill="#516FE6" points="409.422975 602.840592 414.187401 603.369659 414.148057 606.01845 409.422975 606.01845"></polygon>
                    <polygon id="Rectangle-Copy-372" fill="#112674" points="353.202753 600.616092 360.825834 601.515505 360.762884 606.01845 353.202753 606.01845"></polygon>
                    <polygon id="Rectangle-Copy-194" fill="#112674" points="437.374272 538.330085 441.185813 538.753338 441.154338 540.872371 437.374272 540.872371"></polygon>
                    <polygon id="Rectangle-Copy-253" fill="#112674" points="514.240339 589.175805 519.004764 589.704872 518.965421 592.353663 514.240339 592.353663"></polygon>
                    <polygon id="Rectangle-Copy-298" fill="#112674" points="449.44415 592.671448 454.208576 593.200515 454.169232 595.849306 449.44415 595.849306"></polygon>
                    <polygon id="Rectangle-Copy-322" fill="#516FE6" points="420.539968 583.137876 428.163049 584.037289 428.100099 588.540234 420.539968 588.540234"></polygon>
                    <polygon id="Rectangle-Copy-195" fill="#112674" points="437.6919 543.732443 441.503441 544.155696 441.471966 546.274729 437.6919 546.274729"></polygon>
                    <polygon id="Rectangle-Copy-254" fill="#112674" points="514.557967 596.167092 519.322393 596.696158 519.283049 599.344949 514.557967 599.344949"></polygon>
                    <polygon id="Rectangle-Copy-299" fill="#516FE6" points="449.761779 599.662735 454.526204 600.191801 454.486861 602.840592 449.761779 602.840592"></polygon>
                    <polygon id="Rectangle-Copy-162" fill="#516FE6" points="422.12811 555.17273 425.939651 555.595983 425.908176 557.715016 422.12811 557.715016"></polygon>
                    <polygon id="Rectangle-Copy-255" fill="#516FE6" points="494.865008 610.46745 499.629434 610.996517 499.59009 613.645308 494.865008 613.645308"></polygon>
                    <polygon id="Rectangle-Copy-182" fill="#516FE6" points="418.31657 570.10866 422.12811 570.531913 422.096635 572.650946 418.31657 572.650946"></polygon>
                    <polygon id="Rectangle-Copy-192" fill="#516FE6" points="437.056644 572.33316 440.868184 572.756413 440.836709 574.875446 437.056644 574.875446"></polygon>
                    <polygon id="Rectangle-Copy-257" fill="#516FE6" points="416.410799 555.808301 420.22234 556.231554 420.190865 558.350587 416.410799 558.350587"></polygon>
                    <polygon id="Rectangle-Copy-104" fill="#516FE6" points="448.216263 473.184006 451.985177 473.628422 451.954054 476.997435 447.220752 476.728933"></polygon>
                    <polygon id="Rectangle-Copy-105" fill="#516FE6" points="444.404723 468.735006 448.173637 469.179421 448.142514 472.548435 443.409211 472.279933"></polygon>
                    <polygon id="Rectangle-Copy-106" fill="#516FE6" points="428.442728 469.688363 430.704076 469.947605 430.685402 471.912863 427.845421 471.756237"></polygon>
                    <polygon id="Rectangle-Copy-107" fill="#516FE6" points="425.34702 484.306507 429.115934 484.602785 429.084811 486.848793 424.351509 486.669792"></polygon>
                    <polygon id="Rectangle-Copy-123" fill="#112674" points="411.371372 517.356225 415.140286 517.652503 415.109163 519.898511 410.37586 519.71951"></polygon>
                    <polygon id="Rectangle-Copy-133" fill="#112674" points="425.664649 534.19887 429.433563 534.495147 429.40244 536.741156 424.669137 536.562155"></polygon>
                    <polygon id="Rectangle-Copy-153" fill="#516FE6" points="415.500541 547.545872 419.269455 547.842149 419.238332 550.088158 414.505029 549.909157"></polygon>
                    <polygon id="Rectangle-Copy-259" fill="#112674" points="486.530771 600.933878 491.053467 601.304224 491.01612 604.111735 485.336157 603.887984"></polygon>
                    <polygon id="Rectangle-Copy-307" fill="#516FE6" points="421.734582 604.111735 426.257279 604.482082 426.219931 607.289593 420.539968 607.065842"></polygon>
                    <polygon id="Rectangle-Copy-163" fill="#516FE6" points="404.065919 561.846231 407.834833 562.142508 407.80371 564.388517 403.070408 564.209515"></polygon>
                    <polygon id="Rectangle-Copy-260" fill="#516FE6" points="443.968568 540.554585 448.491265 540.924932 448.453918 543.732443 442.773954 543.508691"></polygon>
                    <polygon id="Rectangle-Copy-313" fill="#112674" points="383.301549 545.003586 387.824246 545.373932 387.786898 548.181443 382.106935 547.957692"></polygon>
                    <polygon id="Rectangle-Copy-173" fill="#112674" points="427.570419 564.388517 431.339333 564.684794 431.30821 566.930803 426.574907 566.751801"></polygon>
                    <polygon id="Rectangle-Copy-261" fill="#516FE6" points="473.508007 543.732443 478.030704 544.102789 477.993356 546.9103 472.313393 546.686549"></polygon>
                    <polygon id="Rectangle-Copy-108" fill="#112674" points="423.123622 501.466938 426.892536 501.911354 426.861413 505.280367 422.12811 505.011865"></polygon>
                    <polygon id="Rectangle-Copy-109" fill="#516FE6" points="426.892536 497.971295 431.97459 498.41571 431.221413 501.784724 427.378504 501.516222"></polygon>
                    <polygon id="Rectangle-Copy-349" fill="#516FE6" points="307.146638 487.484365 402.752779 487.484365 401.64108 494.793437 307.146638 491.765748"></polygon>
                    <polygon id="Rectangle-Copy-110" fill="#112674" points="431.656961 502.420295 436.739015 502.864711 435.985839 506.233724 432.14293 505.965222"></polygon>
                    <polygon id="Rectangle-Copy-111" fill="#516FE6" points="445.314981 495.111223 448.491265 495.370465 448.02053 497.335723 445.618712 497.179097"></polygon>
                    <polygon id="Rectangle-Copy-112" fill="#516FE6" points="436.421387 497.335723 439.597671 497.594966 439.126935 499.560223 436.725117 499.403597"></polygon>
                    <polygon id="Rectangle-Copy-113" fill="#516FE6" points="442.138698 507.187081 445.314981 507.446324 444.844246 509.411582 442.442428 509.254956"></polygon>
                    <polygon id="Rectangle-Copy-143" fill="#516FE6" points="414.822657 490.344437 417.998941 490.603679 417.528206 492.568937 415.126388 492.412311"></polygon>
                    <polygon id="Rectangle-Copy-172" fill="#516FE6" points="417.998941 492.886723 421.175225 493.145965 420.70449 495.111223 418.302672 494.954597"></polygon>
                    <polygon id="Rectangle-Copy-135" fill="#516FE6" points="438.009529 552.630444 441.185813 552.815617 440.715077 554.219373 438.313259 554.107497"></polygon>
                    <polygon id="Rectangle-Copy-139" fill="#516FE6" points="441.821069 548.499229 444.997353 548.684402 444.526618 550.088158 442.1248 549.976282"></polygon>
                    <polygon id="Rectangle-Copy-264" fill="#112674" points="519.640021 602.205021 523.451562 602.427229 522.886679 604.111735 520.004498 603.977485"></polygon>
                    <polygon id="Rectangle-Copy-329" fill="#516FE6" points="454.843833 605.382878 458.655373 605.605086 458.090491 607.289593 455.208309 607.155342"></polygon>
                    <polygon id="Rectangle-Copy-356" fill="#112674" points="463.10217 591.718091 466.913711 591.940299 466.348829 593.624806 463.466647 593.490555"></polygon>
                    <polygon id="Rectangle-Copy-357" fill="#516FE6" points="398.305982 594.895949 402.117522 595.118157 401.55264 596.802663 398.670459 596.668412"></polygon>
                    <polygon id="Rectangle-Copy-64" fill="#516FE6" points="603.176284 571.55403 616.199047 568.519731 615.488183 575.289364 603.176284 576.782161"></polygon>
                    <polygon id="Rectangle-Copy-76" fill="#516FE6" points="605.399682 612.302856 614.610905 611.103022 613.888933 617.776523 605.399682 617.456745"></polygon>
                    <polygon id="Rectangle-Copy-77" fill="#516FE6" points="507.284334 559.159691 519.64754 558.032802 521.545791 563.117374 506.617258 563.117374"></polygon>
                    <polygon id="Rectangle-Copy-65" fill="#516FE6" points="594.600318 606.012318 600.094884 604.747307 606.987824 609.649464 594.600318 611.103022"></polygon>
                    <path d="M734.948053,319.817324 L748.147472,348.531406 L744.203282,355.921064 L744.203282,348.531406 L740.416336,348.531406 L739.31234,356.069584 L728.557887,356.396156 L725.950445,347.638541 L736.66115,347.638541 L734.948053,336.35363 L732.224852,346.227012 L725.950445,346.227012 L734.948053,319.817324 Z M707.63658,246.965573 L713.007686,265.991907 L702.739859,265.991907 L707.63658,246.965573 Z M475.803093,212.776043 L482.666828,250.799441 L467.866596,246.384948 L475.803093,212.776043 Z M669.862785,169.627085 L684.586149,204.937463 L666.853622,204.937463 L669.209408,189.401331 L660.908265,205.12507 L684.586149,206.404219 L678.13658,216.924307 L664.541135,216.924307 L655.667058,204.937463 L669.862785,169.627085 Z M495.787731,175.608651 L547.640254,177.116293 L550.580477,181.589221 L544.414235,181.918981 L543.702689,179.735346 L539.243159,180.107209 L539.243159,182.195522 L535.303138,182.406227 L535.303138,180.064047 L530.294226,180.424994 L530.294226,182.674095 L526.397387,182.882492 L526.397387,180.359376 L520.658265,180.107209 L520.658265,183.18941 L516.518996,183.410771 L516.518996,179.735346 L512.006036,180.424994 L511.66679,183.670259 L508.019968,183.865285 L506.89056,179.735346 L501.654225,180.064047 L501.510446,184.17943 L495.787731,184.519444 L495.787731,175.608651 Z M602.032998,70.3170549 L605.968506,108.075736 L636.844891,169.627085 L627.181821,166.383551 L602.032998,155.562717 L601.45854,120.47667 L592.813079,159.603972 L577.608143,160.284676 L597.437004,109.404373 L602.032998,70.3170549 Z M552.128997,17.6985325 L564.013258,52.7242552 L560.808734,49.7907293 L553.196377,27.1659694 L555.401259,49.7907293 L539.364047,50.4575948 L543.702689,46.3386106 L552.128997,17.6985325 Z" id="Combined-Shape" fill="#861313"></path>
                    <polygon id="Rectangle" fill="#861313" points="556.802541 315.880059 568.538937 313.009322 570.285196 308.888773 632.916041 311.858475 689.668488 320.030287 701.64108 345.116348 682.471365 320.889447 661.14869 319.489367 555.867984 331.165923"></polygon>
                    <polygon id="Rectangle" fill="#861313" points="622.506327 289.102769 664.562634 267.576625 671.148756 268.252629 639.466709 293.317271"></polygon>
                    <polygon id="Rectangle" fill="#516FE6" points="593.176323 487.999865 675.870435 481.764157 681.948121 484.316808 592.376919 494.157866"></polygon>
                    <polygon id="Rectangle-Copy-84" fill="#516FE6" transform="translate(739.776836, 490.141031) scale(-1, 1) translate(-739.776836, -490.141031) " points="702.513144 492.732688 782.318687 480.086267 774.471517 483.194257 697.235395 500.195795"></polygon>
                    <polygon id="Rectangle-Copy-92" fill="#516FE6" transform="translate(793.601895, 578.660792) scale(-1, 1) translate(-793.601895, -578.660792) " points="793.498862 595.089473 797.262022 560.257302 792.951524 572.996836 789.941768 597.064282"></polygon>
                    <polygon id="Rectangle-Copy-174" fill="#516FE6" transform="translate(545.050291, 564.547409) scale(-1, 1) translate(-545.050291, -564.547409) " points="548.226575 586.844743 545.531429 541.591265 541.874007 540.872371 541.874007 588.222448"></polygon>
                    <polygon id="Rectangle-Copy-183" fill="#516FE6" transform="translate(553.467443, 564.388517) scale(-1, 1) translate(-553.467443, -564.388517) " points="556.167284 588.36547 554.582136 540.639011 550.832953 539.919014 550.767602 588.858019"></polygon>
                    <polygon id="Rectangle-Copy-196" fill="#516FE6" transform="translate(562.361038, 564.070731) scale(-1, 1) translate(-562.361038, -564.070731) " points="565.378507 588.887967 564.561432 539.052845 559.843189 538.330085 559.343568 589.811377"></polygon>
                    <polygon id="Rectangle-Copy-210" fill="#516FE6" transform="translate(571.254632, 563.752945) scale(-1, 1) translate(-571.254632, -563.752945) " points="573.636845 589.756983 573.548507 538.099202 568.872419 537.376728 570.677014 590.129162"></polygon>
                    <polygon id="Rectangle-Copy-215" fill="#516FE6" transform="translate(481.842245, 568.201946) scale(-1, 1) translate(-481.842245, -568.201946) " points="499.8705 576.504469 500.216884 573.929384 483.052471 571.927267 468.825864 573.929384 484.837308 570.554106 500.474812 572.011893 500.899947 568.851356 486.839915 567.076901 469.180088 567.807784 488.357458 565.70374 500.824204 566.858816 499.951484 563.02671 466.598518 563.02671 499.398787 560.599823 498.814176 558.032802 462.784542 560.941981 465.951243 578.37109 483.19432 576.504469"></polygon>
                    <polygon id="Rectangle-Copy-86" fill="#516FE6" transform="translate(769.620953, 525.272786) scale(-1, 1) translate(-769.620953, -525.272786) " points="772.782648 542.171201 773.757522 505.280367 768.764791 506.754107 765.484383 545.265205"></polygon>
                    <polygon id="Rectangle-Copy-87" fill="#516FE6" transform="translate(753.255691, 523.553048) scale(-1, 1) translate(-753.255691, -523.553048) " points="756.606024 534.022419 757.226046 510.047153 752.14918 511.521874 749.285336 537.058942"></polygon>
                    <polygon id="Rectangle-Copy-90" fill="#516FE6" transform="translate(736.103759, 528.796512) scale(-1, 1) translate(-736.103759, -528.796512) " points="739.121228 507.871227 733.086289 507.504867 734.946146 550.088158"></polygon>
                    <polygon id="Rectangle-Copy-88" fill="#516FE6" transform="translate(742.146098, 573.735113) scale(-1, 1) translate(-742.146098, -573.735113) " points="745.806225 583.15932 745.806225 563.117374 738.971978 566.476489 738.485971 584.352852"></polygon>
                    <polygon id="Rectangle-Copy-227" fill="#516FE6" points="785.186424 436.320859 790.607511 473.663095 783.796278 472.73037 782.75642 467.009615 750.728495 470.046563 748.332451 460.875 782.023411 460.120303 780.805114 454.642796 752.450741 455.644841 751.308421 449.81265 779.770422 448.304188 778.586064 444.362765 751.308421 444.502794 749.142722 437.086049"></polygon>
                    <polygon id="Rectangle-Copy-351" fill="#516FE6" points="790.993533 517.178767 798.200106 516.085082 796.96861 527.525369 780.412917 516.457184"></polygon>
                    <polygon id="Rectangle" fill="#861313" points="476.442562 338.760633 493.050749 308.888773 536.891824 315.357587 537.744839 327.025331 493.050749 317.427382"></polygon>
                    <polygon id="Rectangle" fill="#861313" points="457.447216 355.921064 470.407623 356.287023 470.292005 364.501279 453.255691 364.501279"></polygon>
                    <polygon id="Rectangle" fill="#861313" points="591.424034 479.058141 670.429962 466.19272 786.130228 485.912757 785.221948 488.755508 712.896275 477.32737 591.424034 488.404266"></polygon>
                    <path d="M552.658653,0 L554.009489,12.1804523 L558.354847,12.8155632 L558.354847,15.5050305 L555.203397,16.4583877 L563.276815,47.3227763 L567.63902,51.969825 L566.741944,60.7683638 L564.380785,66.0429789 L564.380785,90.5071686 L574.52313,90.5071686 L574.52313,98.1436238 L575.362425,104.933444 L565.908529,116.963241 L568.349436,268.091079 L579.605184,268.913148 L579.605184,183.759863 L571.843348,166.383551 L595.703405,108.907978 L602.032998,42.5597543 L609.171931,108.907978 L638.315427,166.383551 L631.738686,183.759863 L635.362427,275.585602 L659.496785,265.007127 L660.44967,216.920488 L652.573809,205.12507 L663.601903,182.694357 L669.76729,144.525364 L677.782051,182.694357 L689.23586,205.12507 L682.199952,216.920488 L684.20079,265.007127 L700.376438,310.501117 L696.352431,310.501117 L698.153039,320.676904 L703.666644,332.376592 L704.789788,277.80612 L701.329323,265.624271 L707.207513,237.486183 L714.716591,265.624271 L711.349447,277.80612 L716.372948,397.627539 L726.411155,396.583018 L726.411155,355.906318 L722.201227,346.189322 L735.497078,312.931 L749.12263,346.525004 L747.277779,355.906318 L747.277779,375.292061 L770.54976,375.292061 L770.54976,394.454247 L765.744996,400.580967 L770.54976,412.022976 L799.493318,410.705433 L799.493318,422.849496 L793.965621,427.602366 L802.968697,478.271655 L819.633115,481.924659 L819.633115,491.995322 L809.868915,501.065148 L814.260225,530.263954 L898.87028,530.263954 L905.305024,534.773978 L894.605144,539.601228 L879.793964,551.042858 L878.117873,581.312749 L874.704994,579.406035 L872.229953,546.911643 L864.436022,539.283442 L859.512967,539.283442 L848.082165,546.592515 L845.940953,554.973412 L843.160795,550.59374 L842.095375,541.947128 L828.002215,537.058942 L828.002215,546.625594 L834.578846,558.264863 L843.160795,558.264863 L849.411972,573.868073 L883.23122,587.200324 L886.556623,600.933878 L891.614111,608.946986 L910.137195,620.001023 L307.633017,620.001023 L307.633017,603.79395 L327.162942,542.302407 L339.377785,533.245513 L345.625741,517.991797 L355.766582,535.635209 L363.366861,533.48268 L368.627006,528.796512 L370.364991,523.076369 L382.185812,520.216297 L384.762623,498.239325 L372.682739,497.529815 L370.419733,518.900636 L369.053587,520.216297 L369.563536,497.529815 L357.268155,496.030651 L346.927082,497.110015 L346.260998,512.907225 L342.932061,512.907225 L342.296805,497.110015 L325.500532,495.765572 L311.488036,495.765572 L310.347174,566.598143 L307.633017,568.837517 L304.677514,489.073294 L292.23646,488.412849 L289.677078,484.736487 L398.305982,484.736487 L409.472328,451.687872 L406.395583,445.497116 L407.34699,436.517182 L428.615449,435.857313 L429.328628,422.849496 L425.675794,422.849496 L426.695862,406.79056 L443.84153,406.79056 L443.84153,377.411838 L457.854426,352.884038 L462.238775,348.915934 L464.110754,340.787484 L467.576747,263.697461 L462.238775,253.185257 L465.29077,249.754674 L469.759647,234.71624 L476.198393,207.872618 L480.361843,234.71624 L483.821177,251.541298 L486.208798,254.301641 L480.361843,263.697461 L480.361843,278.526452 L478.162012,327.166696 L492.230275,307.405165 L499.042826,201.97571 L491.560085,191.660005 L491.560085,173.583111 L505.162851,173.583111 L505.162851,127.058051 L504.14693,125.271733 L504.14693,121.084665 L507.94997,119.752276 L510.971994,121.084665 L510.971994,125.271733 L509.444378,127.058051 L511.102802,163.208549 L540.517591,163.208549 L541.101315,116.335255 L535.984455,112.029067 L531.070485,104.933444 L531.070485,89.4151311 L541.776753,89.4151311 L541.776753,66.0429789 L538.834541,62.6278681 L538.162583,50.1583655 L541.776753,47.3227763 L550.004162,16.4583877 L546.412118,15.5050305 L546.412118,12.8606047 L550.916671,12.1804523 L552.658653,0 Z M560.808734,65.6753427 L557.500993,70.06192 L544.805337,75.2801818 L545.740136,91.3470279 L535.033867,94.054 L535.033867,103.385733 L559.154864,105.193794 L554.83587,108.232231 L539.529252,112.289416 L544.646111,116.595605 L542.423978,165.415836 L510.1699,167.20126 L507.333586,129.895619 L507.582444,173.347587 L545.675644,174.882021 L548.220388,177.360859 L496.675309,176.6045 L496.675309,194.681393 L501.0909,200.599513 L496.675309,302.857317 L544.349441,314.379947 L545.580132,316.637771 L540.711786,315.92876 L543.349098,401.108497 L519.595133,389.588694 L485.098215,417.963084 L473.808123,410.532419 L466.673747,417.963084 L475.90716,406.118779 L486.752085,413.407194 L522.317493,381.575997 L539.529252,392.000135 L535.014791,315.099068 L493.131974,308.999387 L476.691905,337.903347 L477.794486,263.329825 L470.4947,267.355807 L467.901742,351.766735 L470.4947,355.538682 L458.262695,355.538682 L449.448116,376.1333 L449.448116,420.350018 L464.110754,417.181611 L461.871249,422.48186 L436.969278,427.846494 L434.098951,438.201123 L452.755857,436.754752 L451.28575,441.883353 L419.941631,441.883353 L415.622624,451.320236 L393.457859,528.116675 L376.324521,535.470013 L368.627006,561.687338 L342.296805,608.946986 L365.794848,608.946986 L397.046945,606.585045 L641.103078,610.825 L643.094419,521.270177 L650.328291,497.666679 L657.312055,486.246001 L667.217339,498.997914 L671.656555,521.270177 L673.012078,611.38 L694.419078,611.752 L694.54817,521.270177 L701.782042,497.666679 L708.765806,486.246001 L718.67109,498.997914 L723.110306,521.270177 L726.374078,612.307 L777.781078,613.2 L776.498896,570.370983 L780.12629,558.264863 L791.971834,549.111559 L800.107943,554.973412 L806.121616,564.165144 L806.121078,613.692 L853.985031,614.524967 L848.082165,596.599502 L838.35298,594.659148 L822.059663,550.59374 L808.520231,536.288073 L799.366194,501.379902 L783.758187,499.437166 L781.633953,493.434003 L798.229067,491.003387 L786.152918,427.846494 L792.220733,413.964447 L765.377469,417.963084 L761.892227,404.803765 L764.023919,395.666677 L765.377469,379.155292 L743.435376,380.467016 L743.435376,354.8104 L731.381137,368.045303 L731.381137,398.276894 L712.593992,406.118779 L696.678154,408.502724 L690.871219,401.108497 L712.160665,396.882112 L708.87893,277.020993 L710.98192,265.624271 L707.207513,252.994345 L704.725325,265.624271 L706.475401,277.020993 L705.702646,345.229901 L693.480029,320.030287 L637.130468,312.723187 L574.604933,310.530416 L574.160545,314.379947 L560.808734,315.92876 L557.500993,475.563923 L668.446878,460.788875 L784.292921,480.201458 L788.7321,486.487603 L672.560445,468.248395 L596.235814,479.909636 L590.980416,592.029169 L575.99868,584.266234 L573.500506,564.889227 L552.291126,550.59374 L464.110754,553.043957 L469.233758,549.885987 L501.0909,546.835301 L551.960148,543.024811 L574.403794,546.835301 L579.404375,482.481224 L553.182,486.487603 L556.298432,317.31024 L549.415404,316.637771 L551.960148,313.251515 L569.629377,309.958785 L573.500506,274.488974 L565.223107,271.50645 L561.874535,113.725514 L570.838671,105.193794 L570.838671,92.8930412 L560.808734,92.8930412 L560.808734,65.6753427 Z M458.505079,425.188428 L461.481729,440.492371 L461.481729,469.057608 L455.868097,535.635209 L445.690381,535.007501 L453.709522,444.423866 L458.505079,425.188428 Z M519.489508,402.269026 L526.454577,415.020939 L529.056159,437.293202 L529.056159,460.727785 L525.296022,534.773978 L502.122716,534.773978 L506.374452,437.293202 L512.505744,413.689704 L519.489508,402.269026 Z M472.707895,415.866251 L476.006177,430.811183 L476.652746,460.641727 L472.707895,531.459939 L459.91104,531.459939 L466.4466,435.342614 L472.707895,415.866251 Z M398.305982,489.073294 L337.729276,489.419991 L338.688774,491.022949 L361.304806,490.491358 L399.181856,494.157866 L398.305982,489.073294 Z M332.920606,489.419991 L329.478885,489.419991 L330.007058,493.317538 L332.920606,489.419991 Z M326.67265,489.419991 L321.760823,489.419991 L322.495876,491.625808 L324.650553,492.847992 L326.67265,489.419991 Z M319.119776,489.419991 L312.096212,489.419991 L312.831266,491.625808 L317.187852,491.625808 L319.119776,489.419991 Z M552.246842,319.524351 L550.713313,487.31338 L544.270029,489.346112 L545.083834,415.866251 L537.920827,417.269858 L539.349088,413.331511 L546.152979,409.531368 L544.270029,319.524351 L552.246842,319.524351 Z M663.505628,392.000135 L674.756711,401.489182 L680.623541,413.435878 L682.317819,456.745487 L644.347568,456.745487 L644.347568,415.953975 L651.524585,402.173016 L663.505628,392.000135 Z M732.983784,409.552813 L738.478299,415.414666 L742.539481,424.606398 L742.539481,456.651627 L723.428088,456.651627 L723.428088,429.505381 L724.984196,418.706117 L732.983784,409.552813 Z M709.48858,409.531368 L715.051147,416.053022 L719.04169,428.763705 L719.04169,456.630182 L699.930297,456.630182 L699.930297,430.682342 L701.660315,418.409774 L709.48858,409.531368 Z M575.605316,403.649189 L580.465162,410.610505 L583.951579,424.178088 L583.951579,455.159638 L565.104565,454.893859 L567.254535,426.226071 L568.765999,413.126139 L575.605316,403.649189 Z M600.843372,403.741783 L605.919024,411.078571 L609.111263,422.273376 L609.111263,455.046045 L590.980416,455.046045 L590.980416,427.320511 L593.329804,414.087936 L600.843372,403.741783 Z M457.689028,388.63293 L459.003812,390.091187 L459.003812,396.720926 L455.696071,396.720926 L455.696071,392.676928 L457.689028,388.63293 Z M625.833853,340.787484 C632.186236,340.787484 635.362427,345.809503 635.362427,355.853542 L635.362427,388.265294 L616.30528,388.265294 L616.30528,355.853542 C616.30528,345.809503 619.481471,340.787484 625.833853,340.787484 Z M587.117752,342.694195 C592.310768,342.694195 594.907275,346.467917 594.907275,354.015361 L593.886146,386.427113 L577.34744,386.427113 L578.14061,354.015361 C578.932355,346.467917 581.924736,342.694195 587.117752,342.694195 Z M459.526662,376.1333 L460.841446,377.591557 L460.841446,384.221296 L457.533705,384.221296 L457.533705,380.177298 L459.526662,376.1333 Z M700.836442,370.181095 C702.061532,370.181095 702.674076,370.849583 702.674076,372.18656 L702.674076,376.500936 L698.998808,376.500936 L698.998808,372.18656 C698.998808,370.849583 699.611353,370.181095 700.836442,370.181095 Z M700.836442,362.093098 C702.061532,362.093098 702.674076,362.761587 702.674076,364.098563 L702.674076,368.41294 L698.998808,368.41294 L698.998808,364.098563 C698.998808,362.761587 699.611353,362.093098 700.836442,362.093098 Z M663.348709,356.648581 C664.573799,356.648581 665.186343,357.387437 665.186343,358.865148 L665.186343,363.633669 L661.511076,363.633669 L661.511076,358.865148 C661.511076,357.387437 662.12362,356.648581 663.348709,356.648581 Z M700.836442,354.075128 C702.061532,354.075128 702.674076,354.743616 702.674076,356.080593 L702.674076,360.394969 L698.998808,360.394969 L698.998808,356.080593 C698.998808,354.743616 699.611353,354.075128 700.836442,354.075128 Z M476.277572,344.679072 L478.940372,345.983095 L479.585313,352.959932 L479.585313,359.589671 L476.277572,358.482918 L476.277572,344.679072 Z M485.098215,340.635074 L487.761016,341.939097 L488.405956,355.545673 L485.098215,354.43892 L485.098215,340.635074 Z M663.348709,348.192949 C664.573799,348.192949 665.186343,348.931805 665.186343,350.409516 L665.186343,355.178037 L661.511076,355.178037 L661.511076,350.409516 C661.511076,348.931805 662.12362,348.192949 663.348709,348.192949 Z M735.497266,322.288111 L726.966566,346.501044 L728.66593,354.8104 L743.435376,354.8104 L744.876621,346.722404 L735.497266,322.288111 Z M495.388965,336.958712 L498.051766,338.262735 L498.696706,351.869311 L495.388965,350.762558 L495.388965,336.958712 Z M505.679715,332.179442 L508.342516,333.483465 L508.987456,347.09004 L505.679715,345.983287 L505.679715,332.179442 Z M515.970465,329.238352 L518.633266,330.542375 L519.278207,344.148951 L515.970465,343.042198 L515.970465,329.238352 Z M569.825304,317.786774 L571.804702,327.479239 L568.968221,328.199214 L567.601906,318.10456 L569.825304,317.786774 Z M576.4955,316.833417 L579.110155,327.479239 L576.273674,327.881429 L574.272102,317.151202 L576.4955,316.833417 Z M582.275929,313.383806 L586.415607,326.525882 L583.579127,326.928071 L580.05253,313.701592 L582.275929,313.383806 Z M590.964169,315.562274 L593.403431,325.254739 L590.566951,325.656928 L588.74077,315.880059 L590.964169,315.562274 Z M597.634365,315.880059 L600.073627,324.936953 L597.237147,325.339143 L595.410966,315.880059 L597.634365,315.880059 Z M647.297174,317.786774 L650.562552,319.338458 L603.806549,324.182331 L603.176284,320.984552 L606.287625,318.343875 L611.394457,320.155939 L613.997156,318.343875 L618.104817,319.338458 L620.976241,317.786774 L625.845415,319.338458 L627.875381,318.017548 L631.238338,319.338458 L634.409542,318.026089 L639.19292,319.338458 L641.575872,318.017548 L645.265682,318.66166 L647.297174,317.786774 Z M678.09968,216.920488 L664.717196,223.566897 L664.717196,267.355807 L625.466327,289.961231 L625.466327,308.154244 L620.552078,307.849 L629.67467,308.460712 L629.67467,296.425696 L635.983901,297.020738 L635.983901,308.84557 L638.302587,308.999387 L657.100078,312.757 L657.100754,302.606061 L659.305915,302.606061 L659.305078,313.198 L693.480029,320.030287 L693.480029,310.501117 L690.06292,310.501117 L680.254942,267.355807 L678.09968,216.920488 Z M658.203334,312.681703 C657.998319,312.681703 657.821895,312.74523 657.674061,312.872284 L658.942048,313.125323 C658.762361,312.829577 658.516123,312.681703 658.203334,312.681703 Z M680.622469,300.032608 C681.357522,300.032608 681.725049,301.121448 681.725049,303.299127 L681.725049,310.326421 L679.519888,310.326421 L679.519888,303.299127 C679.519888,301.121448 679.887415,300.032608 680.622469,300.032608 Z M602.032998,75.8349491 L600.472339,108.907978 L583.559869,157.291055 L602.032998,155.562717 L627.181821,166.383551 L602.647599,161.973303 L578.856337,166.383551 L585.345959,183.759863 L585.60967,277.020993 L575.178546,304.811878 L616.083078,307.55 L616.083171,289.961231 L611.005692,286.94717 L630.386874,276.864384 L624.434263,183.759863 L631.730785,166.383551 L604.120977,108.907978 L602.032998,75.8349491 Z M674.374513,294.299894 C675.109567,294.299894 675.477094,295.466508 675.477094,297.799736 L675.477094,305.32898 L673.271933,305.32898 L673.271933,297.799736 C673.271933,295.466508 673.63946,294.299894 674.374513,294.299894 Z M594.094333,177.728495 L597.894334,191.324593 L599.810427,205.331936 L599.810427,292.046128 L588.74077,290.930253 L588.74077,205.331936 L590.042497,191.324593 L594.094333,177.728495 Z M674.374513,271.874086 C675.109567,271.874086 675.477094,273.0407 675.477094,275.373928 L675.477094,282.903172 L673.271933,282.903172 L673.271933,275.373928 C673.271933,273.0407 673.63946,271.874086 674.374513,271.874086 Z M615.211812,176.972136 L619.578414,191.324593 L622.774812,207.692184 L623.717079,249.556719 L623.717079,273.912942 L612.945805,272.919793 L610.977086,205.492706 L615.211812,176.972136 Z M554.009489,257.168638 C555.112069,257.168638 555.663359,258.10193 555.663359,259.968512 L555.663359,265.991907 L552.355618,265.256635 L552.355618,259.968512 C552.355618,258.10193 552.906908,257.168638 554.009489,257.168638 Z M543.718738,254.595185 C544.821319,254.595185 545.372609,255.528476 545.372609,257.395059 L545.372609,263.418454 L542.064868,262.683181 L542.064868,257.395059 C542.064868,255.528476 542.616158,254.595185 543.718738,254.595185 Z M483.45365,254.227549 L466.673747,256.801002 L469.39212,261.212637 L477.794486,263.329825 L483.45365,254.227549 Z M674.374513,251.286459 C675.109567,251.286459 675.477094,252.375299 675.477094,254.552979 L675.477094,261.580273 L673.271933,261.580273 L673.271933,254.552979 C673.271933,252.375299 673.63946,251.286459 674.374513,251.286459 Z M481.165992,250.174971 L466.673747,250.174971 L466.673747,252.994345 L483.45365,254.227549 L481.165992,250.174971 Z M475.90716,213.988576 L473.808123,235.561726 L469.39212,245.8401 L481.165992,250.174971 L475.90716,213.988576 Z M508.252403,215.947289 C510.212546,215.947289 511.192617,216.723368 511.192617,218.275525 L511.192617,226.608739 L505.638879,226.608739 L505.312188,218.275525 C505.312188,216.723368 506.29226,215.947289 508.252403,215.947289 Z M670.12121,182.694357 L657.835808,205.12507 L664.717196,216.920488 L678.09968,216.920488 L680.989996,208.862602 L660.908265,205.12507 L681.725049,203.883754 L670.12121,182.694357 Z M556.582176,199.08212 C557.684756,199.08212 558.236047,200.015411 558.236047,201.881994 L558.236047,211.903291 L555.112069,211.903291 L554.928306,201.881994 C554.928306,200.015411 555.479596,199.08212 556.582176,199.08212 Z M564.013258,52.7242552 L541.407229,56.9453005 L541.407229,62.2602319 L544.349441,65.6753427 L560.808734,65.6753427 L564.013258,60.1372762 L564.013258,52.7242552 Z M552.355618,19.9717249 L545.740136,46.2234316 L540.73527,49.7907293 L560.808734,49.7907293 L564.013258,52.7242552 L560.808734,46.5910678 L552.355618,19.9717249 Z" id="描边" fill="#000000"></path>
                    <polygon id="Rectangle" fill="#FFD53F" points="548.248461 13.3351038 551.504587 13.2071989 552.689878 4.74027658 553.412716 13.1322451 556.009532 13.0302388 556.009532 14.2612211 552.338085 15.4922035 548.248461 14.2612211"></polygon>
                    <path d="M542.108049,280.499287 C542.108049,278.631264 542.65972,277.697252 543.76306,277.697252 C544.866401,277.697252 545.418071,278.631264 545.418071,280.499287 L545.418071,286.52733 L542.108049,285.79149 L542.108049,280.499287 Z M552.405896,283.074726 C552.405896,281.206703 552.957566,280.272692 554.060907,280.272692 C555.164247,280.272692 555.715918,281.206703 555.715918,283.074726 L555.715918,289.102769 L552.405896,288.366929 L552.405896,283.074726 Z M562.703742,286.018085 C562.703742,284.150062 563.255412,283.216051 564.358753,283.216051 C565.462094,283.216051 566.013764,284.150062 566.013764,286.018085 L566.013764,292.046128 L562.703742,291.310288 L562.703742,286.018085 Z M517.098994,215.227253 C517.098994,213.673898 518.079741,212.897221 520.041236,212.897221 C522.00273,212.897221 522.983478,213.673898 522.983478,215.227253 L522.983478,223.566897 L517.42591,223.566897 L517.098994,215.227253 Z M530.706862,218.538532 C530.706862,216.985177 531.68761,216.2085 533.649104,216.2085 C535.610599,216.2085 536.591346,216.985177 536.591346,218.538532 L536.591346,226.878176 L531.033778,226.878176 L530.706862,218.538532 Z M554.980357,176.745878 C554.980357,174.877855 555.532028,173.943843 556.635368,173.943843 C557.738709,173.943843 558.290379,174.877855 558.290379,176.745878 L558.290379,186.774908 L555.164247,186.774908 L554.980357,176.745878 Z M554.980357,150.255646 C554.980357,148.387623 555.532028,147.453611 556.635368,147.453611 C557.738709,147.453611 558.290379,148.387623 558.290379,150.255646 L558.290379,160.284676 L555.164247,160.284676 L554.980357,150.255646 Z" id="Combined-Shape" fill="#FFD53F"></path>
                    <polygon id="Rectangle-Copy-66" fill="#FFD53F" points="709.350913 412.804713 714.4549 426.546962 715.701425 454.2032 702.593965 454.126293 702.911593 430.265339 704.297429 420.676826"></polygon>
                    <polygon id="Rectangle-Copy-72" fill="#D91C00" points="709.328343 412.804713 716.887242 429.443749 715.701425 454.2032 712.145696 454.2032 712.090408 430.524603 705.082155 419.462931"></polygon>
                    <polygon id="Rectangle-Copy-46" fill="#FFD53F" points="732.609846 418.022372 736.597465 436.564392 738.348308 454.2032 726.733722 454.126293 727.05135 430.265339 728.437185 420.676826"></polygon>
                    <polygon id="Rectangle-Copy-73" fill="#D91C00" points="733.296141 412.804713 738.32013 426.546962 740.70937 454.2032 735.443901 454.126293 733.296141 428.122167 728.321863 420.676826"></polygon>
                    <polygon id="Rectangle-Copy-52" fill="#FFD53F" points="793.376816 550.405944 800.882995 564.11709 799.346334 613.817425 782.260085 613.375483 781.60254 570.906685 783.906829 562.660713"></polygon>
                    <polygon id="Rectangle-Copy-70" fill="#D91C00" points="791.971834 549.111559 801.058761 555.17313 806.756873 564.523699 806.756873 613.817425 799.346334 613.817425 798.835363 564.987148 785.020349 555.17313"></polygon>
                    <polygon id="Rectangle-Copy-41" fill="#FFD53F" points="458.337745 431.554073 458.337745 464.628907 452.43141 532.451088 448.312449 532.451088 455.23342 444.941643"></polygon>
                    <polygon id="Rectangle-Copy-40" fill="#FFD53F" points="472.70703 420.431571 474.219164 457.007204 469.13711 528.63762 463.240982 528.63762 468.231968 435.650048"></polygon>
                    <polygon id="Rectangle-Copy-80" fill="#D91C00" points="472.631022 420.431571 470.215039 438.12389 465.387822 528.637659 463.240982 528.63762 468.196772 435.650048"></polygon>
                    <polygon id="Rectangle-Copy-44" fill="#FFD53F" points="663.843303 396.915426 673.029071 404.140102 677.818952 415.138485 677.818952 454.520986 649.867655 454.520986 649.867655 416.252757 654.061571 404.769654"></polygon>
                    <polygon id="Rectangle-Copy-71" fill="#D91C00" points="663.805215 396.915426 673.016017 404.140102 677.818952 415.138485 677.818952 454.520986 665.978356 454.520986 665.978356 415.606119 653.996824 404.769654"></polygon>
                    <polygon id="Rectangle-Copy-2" fill="#FFD53F" points="518.210693 408.355713 524.200043 417.52171 527.580731 436.96571 521.545791 532.609941 507.70508 532.609941 510.135387 436.96571"></polygon>
                    <polygon id="Rectangle-Copy-79" fill="#D91C00" points="518.141621 408.355713 524.086818 417.52171 515.424094 438.03257 514.288517 532.609941 507.70508 532.609941 510.125842 436.96571"></polygon>
                    <polygon id="Rectangle-Copy-48" fill="#FFD53F" points="655.941363 489.391079 664.938333 498.557898 670.195871 518.003644 667.482775 605.065892 647.611864 605.065892 646.691371 518.003644"></polygon>
                    <polygon id="Rectangle-Copy-67" fill="#D91C00" points="655.972785 489.391079 664.949922 498.557898 670.195871 518.003644 667.482775 605.065892 658.925768 605.065892 661.070791 519.427131 652.091053 501.424781"></polygon>
                    <polygon id="Rectangle-Copy-50" fill="#FFD53F" points="707.39716 489.391079 716.39413 498.557898 721.651668 518.003644 721.651668 605.065093 701.780756 605.065093 698.147168 518.003644"></polygon>
                    <polygon id="Rectangle-Copy-68" fill="#D91C00" points="707.538263 489.391079 716.446173 498.557898 721.651668 518.003644 721.651668 605.065093 713.264989 605.065093 713.264989 519.427131 702.593965 504.837948"></polygon>
                    <polygon id="Rectangle" fill="#861313" points="744.147519 380.119731 766.11964 378.801638 766.11964 387.955879 743.250397 390.559711"></polygon>
                    <polygon id="Rectangle-Copy-219" fill="#861313" points="766.437268 417.324367 794.070937 413.122499 787.295329 427.740644 769.469679 427.740644"></polygon>
                    <polygon id="Rectangle" fill="#FFD53F" points="506.08354 122.716962 508.840656 122.348537 508.840656 125.389061 506.783745 125.389061"></polygon>
                </g>
                <g id="光3" transform="translate(330.651138, 91.536055)">
                    <path d="M0.046,50.798 L13.5891636,50.7982519 L13.589,150.846 L0.0465167875,150.846698 L0.046,50.798 Z M31.762,50.798 L31.7628375,150.846698 L15.159,150.846 L15.7886404,50.7982519 L31.762,50.798 Z M31.7628375,25.3985367 L31.762,49.282 L15.691981,49.2824202 L16.0968099,0.0163850137 C25.9727895,0.579775451 31.1947987,9.04049268 31.7628375,25.3985367 Z M14.2932955,5.98132655e-15 L13.5891636,49.2824202 L0.046,49.282 L0.0465167875,25.3985367 C-0.528094825,8.85121212 4.22083141,0.385033216 14.2932955,5.98132655e-15 Z" id="Combined-Shape" fill="url(#linearGradient-7)" opacity="0.502017067">
                        <animate attributeName="opacity" values="0.2;1;0.2" dur="3s" repeatCount="indefinite" />
                    </path>
                    <path d="M78.5002086,50.798 L92.0433722,50.7982519 L92.0432086,150.846 L78.5007254,150.846698 L78.5002086,50.798 Z M110.216209,50.798 L110.217046,150.846698 L93.6132086,150.846 L94.242849,50.7982519 L110.216209,50.798 Z M110.217046,25.3985367 L110.216209,49.282 L94.1461896,49.2824202 L94.5510185,0.0163850137 C104.426998,0.579775451 109.649007,9.04049268 110.217046,25.3985367 Z M92.7475041,5.98132655e-15 L92.0433722,49.2824202 L78.5002086,49.282 L78.5007254,25.3985367 C77.9261138,8.85121212 82.67504,0.385033216 92.7475041,5.98132655e-15 Z" id="Combined-Shape-Copy-6" fill="url(#linearGradient-7)" opacity="0.502017067">
                        <animate attributeName="opacity" values="0.2;1;0.2" dur="3s" repeatCount="indefinite" />
                    </path>
                    <polygon id="Rectangle" fill="url(#linearGradient-8)" opacity="0.50004505" points="420.857295 65.6156442 457.356098 103.738359 420.297296 103.738359">
                        <animate attributeName="opacity" values="0.2;1;0.2" dur="3s" repeatCount="indefinite" />
                    </polygon>
                    <polygon id="Rectangle-Copy-376" fill="url(#linearGradient-9)" opacity="0.50004505" points="612.387205 66.8867872 649.203636 105.009502 610.87432 105.009502">
                        <animate attributeName="opacity" values="0.2;1;0.2" dur="3s" repeatCount="indefinite" />
                    </polygon>
                </g>
                <g id="光2" transform="translate(895.608223, 300.411045)">
                    <path d="M183.29178,113.239448 C183.29178,111.371425 183.843451,110.437414 184.946791,110.437414 C186.050132,110.437414 186.601802,111.371425 186.601802,113.239448 L186.601802,119.267491 L183.29178,118.531651 L183.29178,113.239448 Z M193.589627,115.814887 C193.589627,113.946864 194.141297,113.012853 195.244638,113.012853 C196.347978,113.012853 196.899649,113.946864 196.899649,115.814887 L196.899649,121.84293 L193.589627,121.10709 L193.589627,115.814887 Z M203.887473,118.758246 C203.887473,116.890223 204.439143,115.956212 205.542484,115.956212 C206.645824,115.956212 207.197495,116.890223 207.197495,118.758246 L207.197495,124.786289 L203.887473,124.050449 L203.887473,118.758246 Z M98.8275425,41.5457973 C98.8275425,39.9924422 99.8082898,39.2157646 101.769784,39.2157646 C103.731279,39.2157646 104.712026,39.9924422 104.712026,41.5457973 L104.712026,49.8854414 L99.1544583,49.8854414 L98.8275425,41.5457973 Z M117.517465,42.632576 C117.517465,41.0792209 118.498212,40.3025434 120.459707,40.3025434 C122.421201,40.3025434 123.401948,41.0792209 123.401948,42.632576 L123.401948,50.9722202 L117.844381,50.9722202 L117.517465,42.632576 Z M161.426206,29.2922664 C161.426206,27.4242435 161.977877,26.4902321 163.081217,26.4902321 C164.184558,26.4902321 164.736228,27.4242435 164.736228,29.2922664 L164.736228,39.321297 L161.610096,39.321297 L161.426206,29.2922664 Z M161.426206,2.80203429 C161.426206,0.934011431 161.977877,5.68715832e-14 163.081217,5.68715832e-14 C164.184558,5.68715832e-14 164.736228,0.934011431 164.736228,2.80203429 L164.736228,12.8310649 L161.610096,12.8310649 L161.426206,2.80203429 Z" id="Combined-Shape-Copy-4" fill="#FFD53F">
                        <animate attributeName="opacity" values="0.2;1;0.2" dur="3s" repeatCount="indefinite" />
                    </path>
                    <path d="M113.179496,179.832294 C113.179496,175.760961 114.397071,173.725295 116.832222,173.725295 C119.267373,173.725295 120.484948,175.760961 120.484948,179.832294 L119.849692,201.690441 L112.950098,201.690441 L113.179496,179.832294 Z" id="Combined-Shape-Copy-5" fill="#FFD53F">
                        <animate attributeName="opacity" values="0.2;1;0.2" dur="3s" repeatCount="indefinite" />
                    </path>
                    <polygon id="Rectangle-Copy-45" fill="#FFD53F" points="174.592182 232.515659 181.151968 245.976837 182.830116 288.445951 169.399718 288.445951 168.168569 247.491844">
                        <animate attributeName="opacity" values="0.2;1;0.2" dur="3s" repeatCount="indefinite" />
                    </polygon>
                    <polygon id="Rectangle-Copy-369" fill="#FFD53F" points="204.766878 237.600231 211.326664 251.061409 213.004812 288.445951 201.480184 288.445951 200.249035 252.576416">
                        <animate attributeName="opacity" values="0.2;1;0.2" dur="3s" repeatCount="indefinite" />
                    </polygon>
                    <path d="M116.038151,219.377172 L125.223919,226.601848 L130.0138,237.600231 L129.060915,288.763737 L101.109618,288.763737 L102.062503,238.714502 L106.256419,227.2314 L116.038151,219.377172 Z M100.474361,290.988237 L128.965896,290.988237 L135.73111,293.212737 L92.8512799,293.212737 L100.474361,290.988237 Z M93.804165,297.343952 L138.177119,297.343952 L143.354191,298.932881 L87.7692259,298.932881 L93.804165,297.343952 Z M86.181084,303.064095 L145.8002,303.064095 L150.977272,304.653024 L80.1461449,304.653024 L86.181084,303.064095 Z" id="Combined-Shape" fill="url(#linearGradient-10)">
                        <animate attributeName="opacity" values="0.2;1;0.2" dur="3s" repeatCount="indefinite" />
                    </path>
                    <polygon id="Rectangle-Copy-377" fill="url(#linearGradient-11)" opacity="0.50004505" points="19.8318374 90.3495555 17.2269648 120.173466 -5.63654721e-13 120.173466">
                        <animate attributeName="opacity" values="0.2;1;0.2" dur="3s" repeatCount="indefinite" />
                    </polygon>
                </g>
                <g id="光1" transform="translate(101.723246, 258.154211)">
                    <polygon id="Rectangle" fill="#FFD53F" points="208.917304 -1.03492562e-13 211.458331 6.5613194 211.055125 10.6913337 207.034275 10.6913337 206.693906 6.5613194">
                        <animate attributeName="opacity" values="0.2;1;0.2" dur="3s" repeatCount="indefinite" />
                    </polygon>
                    <path d="M67.6061121,123.664896 C67.6061121,121.796874 68.1577824,120.862862 69.2611231,120.862862 C70.3644638,120.862862 70.9161341,121.796874 70.9161341,123.664896 L70.9161341,129.692939 L67.6061121,130.228243 L67.6061121,123.664896 Z M77.9039583,122.527984 C77.9039583,120.659961 78.4556287,119.725949 79.5589693,119.725949 C80.66231,119.725949 81.2139804,120.659961 81.2139804,122.527984 L81.2139804,128.556027 L77.9039583,129.09133 L77.9039583,122.527984 Z M88.1108686,121.53677 C88.1108686,119.668748 88.6625389,118.734736 89.7658796,118.734736 C90.8692203,118.734736 91.4208906,119.668748 91.4208906,121.53677 L91.4208906,127.564814 L88.1108686,128.100117 L88.1108686,121.53677 Z M65.0316505,74.3349612 C65.0316505,72.7816061 66.0123978,72.0049286 67.9738923,72.0049286 C69.9353868,72.0049286 70.9161341,72.7816061 70.9161341,74.3349612 L70.9161341,81.7212481 L65.3585663,82.6746054 L65.0316505,74.3349612 Z M78.6395188,72.5616682 C78.6395188,71.0083131 79.620266,70.2316356 81.5817606,70.2316356 C83.5432551,70.2316356 84.5240024,71.0083131 84.5240024,72.5616682 L84.5240024,79.9479551 L78.9664345,80.9013124 L78.6395188,72.5616682 Z M102.913014,35.8535858 C102.913014,33.9855629 103.464684,33.0515515 104.568025,33.0515515 C105.671365,33.0515515 106.223036,33.9855629 106.223036,35.8535858 L106.223036,45.8826164 L103.096904,45.8826164 L102.913014,35.8535858 Z M102.913014,9.3633537 C102.913014,7.49533083 103.464684,6.5613194 104.568025,6.5613194 C105.671365,6.5613194 106.223036,7.49533083 106.223036,9.3633537 L106.223036,19.3923843 L103.096904,19.3923843 L102.913014,9.3633537 Z" id="Combined-Shape-Copy-2" fill="#FFD53F">
                        <animate attributeName="opacity" values="0.2;1;0.2" dur="3s" repeatCount="indefinite" />
                    </path>
                    <polygon id="Rectangle-Copy-378" fill="url(#linearGradient-12)" opacity="0.793996175" points="198.404031 198.564179 229.215388 225.796101 200.565546 226.032011">
                        <animate attributeName="opacity" values="0.2;1;0.2" dur="3s" repeatCount="indefinite" />
                    </polygon>
                    <path d="M189.149609,206.05426 C188.937857,199.936485 190.734637,196.877598 194.539949,196.877598 C198.345262,196.877598 200.353794,199.936485 200.565546,206.05426 L200.565546,225.796101 L189.149609,225.796101 L189.149609,206.05426 Z" id="Rectangle-Copy-362" fill="#FFD53F">
                        <animate attributeName="opacity" values="0.2;1;0.2" dur="3s" repeatCount="indefinite" />
                    </path>
                    <path d="M103.34474,215.827858 L103.099028,225.871342 L100.606028,226.151273 L100.923028,216.243342 L103.34474,215.827858 Z M110.263028,214.551342 L109.933469,225.106986 L104.242028,225.743342 L104.749334,215.565575 L110.263028,214.551342 Z M103.777093,203.133268 L103.34474,214.901243 L100.953028,215.311342 L101.125068,209.932685 C101.125068,206.527119 102.009076,204.260647 103.777093,203.133268 Z M110.452508,208.518589 L110.292028,213.618342 L104.720694,214.63896 L105.227859,202.511819 C105.408847,202.464746 105.595824,202.425388 105.788788,202.393747 C108.897935,201.88392 110.452508,203.925535 110.452508,208.518589 Z" id="Combined-Shape" fill="#FFD53F">
                        <animate attributeName="opacity" values="0.2;1;0.2" dur="3s" repeatCount="indefinite" />
                    </path>
                    <path d="M127.644422,212.58056 L127.358157,224.233984 L124.428157,224.562345 L124.796157,213.068984 L127.644422,212.58056 Z M135.643157,211.103984 L135.260023,223.350972 L128.680157,224.085984 L129.268483,212.277402 L135.643157,211.103984 Z M128.146313,197.838961 L127.644422,211.509538 L124.830157,211.991984 L125.030912,205.748782 C125.030912,201.77554 126.069379,199.138933 128.146313,197.838961 Z M135.862778,204.108431 L135.677157,210.026984 L129.235368,211.206379 L129.824308,197.133146 C130.025488,197.081818 130.233,197.03864 130.446845,197.003614 C134.057467,196.412215 135.862778,198.780488 135.862778,204.108431 Z" id="Combined-Shape-Copy-7" fill="#FFD53F">
                        <animate attributeName="opacity" values="0.2;1;0.2" dur="3s" repeatCount="indefinite" />
                    </path>
                    <polygon id="Rectangle-Copy-359" fill="#FFD53F" points="50.7383737 174.669982 52.3668107 196.081581 48.904562 273.50135 43.5150873 273.50135 47.1267305 199.695285">
                        <animate attributeName="opacity" values="0.2;1;0.2" dur="3s" repeatCount="indefinite" />
                    </polygon>
                    <polygon id="Rectangle-Copy-360" fill="#FFD53F" points="28.186759 189.923698 29.8151961 211.335297 26.3529474 273.819136 20.9634727 273.819136 24.5751159 214.949002">
                        <animate attributeName="opacity" values="0.2;1;0.2" dur="3s" repeatCount="indefinite" />
                    </polygon>
                    <polygon id="Rectangle-Copy-361" fill="#FFD53F" points="6.90565793 215.346558 7.26358145 236.758158 3.80133282 273.50135 -9.70223505e-14 273.50135 2.02350128 240.371862">
                        <animate attributeName="opacity" values="0.2;1;0.2" dur="3s" repeatCount="indefinite" />
                    </polygon>
                </g>
                <g id="光0" transform="translate(568.636208, 189.400308)" fill="#FFD53F">
                    <path d="M11.7232042,177.844233 L15.5141359,177.8448 L15.5132042,192.895233 L11.3532042,192.895951 L11.7232042,177.844233 Z M24.3942042,177.844233 L23.9178328,192.895951 L17.3462042,192.895233 L17.7351497,177.8448 L24.3942042,177.844233 Z M24.6935959,168.401832 L24.4402042,176.376233 L17.689863,176.376658 L17.0269862,160.060875 C17.5679852,159.91778 18.1509274,159.846233 18.7758127,159.846233 C22.7210015,159.846233 24.6935959,162.698099 24.6935959,168.401832 Z M15.7811085,160.557009 L15.5141359,176.376658 L11.7592042,176.376233 L11.9557841,168.401832 C12.3839107,164.342094 13.6590189,161.727153 15.7811085,160.557009 Z" id="Combined-Shape"></path>
                    <path d="M49.7862375,177.844594 L56.8318124,177.8448 L56.8312375,194.802594 L49.7862375,194.802665 L49.7862375,177.844594 Z M64.7142375,177.844594 L64.7147711,194.802665 L58.6292375,194.802594 L59.0703836,177.8448 L64.7142375,177.844594 Z M64.7147711,168.986412 L64.7142375,176.376594 L59.0247389,176.376658 L58.2333603,157.041912 C62.5543009,157.550039 64.7147711,161.531539 64.7147711,168.986412 Z M57.1610555,156.986594 L56.8318124,176.376658 L49.7862375,176.376594 L49.7862375,168.986412 C49.7862375,161.034324 52.2445102,157.034385 57.1610555,156.986594 Z" id="Combined-Shape"></path>
                    <polygon id="Rectangle-Copy-42" points="8.09044776 217.683239 12.7850854 234.764075 13.0227634 262.332137 0 262.332137 0.871467796 237.19876 2.17807945 225.875141"></polygon>
                    <polygon id="Rectangle-Copy-220" points="25.3276104 0 27.8320033 7.22876378 28.8227648 18.2333693 28.8227648 99.7014384 22.1525689 98.7480812 22.1525689 19.3482713 22.6607346 7.85867174"></polygon>
                    <polygon id="Rectangle-Copy-222" points="47.8231539 1.90671451 50.6298493 18.0521284 52.0096361 81.0353665 47.8231539 81.0353665 45.6570686 18.9837"></polygon>
                    <polygon id="Rectangle-Copy-43" points="32.5917738 216.729882 35.7235815 221.270841 36.8448915 233.175223 36.8448915 263.285495 24.1397565 263.010208 25.0112243 236.180202 26.3836502 224.386436"></polygon>
                </g>
            </g>
        </g>
    </g>
</svg>