<?xml version="1.0" encoding="UTF-8"?>
<svg width="1200px" height="680px" viewBox="0 0 1200 680" version="1.1" xmlns="http://www.w3.org/2000/svg" xmlns:xlink="http://www.w3.org/1999/xlink">
    <title>img_token_burning</title>
    <defs>
        <radialGradient cx="50%" cy="100%" fx="50%" fy="100%" r="67.5822514%" gradientTransform="translate(0.500000,1.000000),scale(0.655833,1.000000),rotate(-88.255341),scale(1.000000,1.187319),translate(-0.500000,-1.000000)" id="radialGradient-1">
            <stop stop-color="#FF0000" stop-opacity="0.5" offset="0%"></stop>
            <stop stop-color="#000000" stop-opacity="0" offset="100%"></stop>
        </radialGradient>
        <polygon id="path-2" points="0 0 1200 0 1200 787 0 787 0 703.859462"></polygon>
        <linearGradient x1="49.2851224%" y1="30.0156522%" x2="50%" y2="100%" id="linearGradient-3">
            <stop stop-color="#FF7C27" offset="0%"></stop>
            <stop stop-color="#880707" offset="100%"></stop>
        </linearGradient>
        <linearGradient x1="49.2399742%" y1="30.0156522%" x2="52.6727471%" y2="73.8202641%" id="linearGradient-4">
            <stop stop-color="#FF3A27" offset="0%"></stop>
            <stop stop-color="#5E0000" offset="100%"></stop>
        </linearGradient>
        <linearGradient x1="50%" y1="24.6027399%" x2="50%" y2="87.1867822%" id="linearGradient-5">
            <stop stop-color="#FF7C27" offset="0%"></stop>
            <stop stop-color="#DB1919" offset="100%"></stop>
        </linearGradient>
        <radialGradient cx="50%" cy="100%" fx="50%" fy="100%" r="140.023333%" gradientTransform="translate(0.500000,1.000000),scale(1.000000,0.714167),rotate(-90.000000),scale(1.000000,1.670944),translate(-0.500000,-1.000000)" id="radialGradient-6">
            <stop stop-color="#000000" offset="0%"></stop>
            <stop stop-color="#EA2D2D" offset="100%"></stop>
        </radialGradient>
    </defs>
    <g id="首页" stroke="none" stroke-width="1" fill="none" fill-rule="evenodd">
        <g id="zclub-home" transform="translate(-40.000000, -2454.000000)">
            <rect fill="#000000" x="0" y="0" width="1280" height="6795"></rect>
            <g id="tokenburning" transform="translate(40.000000, 2346.000000)">
                <g id="bg">
                    <g id="Rectangle">
                        <use fill="#000000" xlink:href="#path-2"></use>
                        <use fill="url(#radialGradient-1)" style="mix-blend-mode: screen;" xlink:href="#path-2"></use>
                    </g>
                    <path d="M554.588093,788 C508.646657,738.608956 488.083394,624.621414 490.857034,593.071072 C493.630674,561.52073 496.084929,566.21595 496.084929,544.032693 C496.084929,521.849436 485.752622,500.184625 494.197985,478.312038 C502.643348,456.439452 511.662533,427.104579 520.121263,462.336803 C528.579993,497.569027 512.777755,553.516113 531.817455,587.091986 C550.857154,620.66786 544.272114,559.893245 540.4113,530.617556 C536.550486,501.341866 523.223609,484.417098 531.817455,447.8845 C540.4113,411.351902 705.710835,546.66217 683.828482,608.797798 C661.946129,670.933426 695.385449,734.640037 672.171583,788 C672.171392,788 554.588093,788 554.588093,788 Z" id="Rectangle" fill="#490A00"></path>
                    <path d="M554.588093,788 C510.251627,679.080942 489.007941,614.104633 490.857034,593.071072 C493.630674,561.52073 496.084929,566.21595 496.084929,544.032693 C496.084929,521.849436 485.752622,500.184625 494.197985,478.312038 C502.643348,456.439452 495.407073,436.597654 504.35442,388.421871 C506.898525,416.850644 504.60371,427.104579 513.06244,462.336803 C521.52117,497.569027 512.777755,553.516113 531.817455,587.091986 C550.857154,620.66786 544.272114,559.893245 540.4113,530.617556 C536.550486,501.341866 516.164785,484.417098 524.758631,447.8845 C533.352477,411.351902 523.469121,383.352833 527.643288,331.971408 C531.817455,280.589983 590.86661,269.554989 592.737209,149.491905 C608.577759,238.02295 570.227472,301.451395 597.198316,318.276198 C624.16916,335.101 640.144545,300.424903 640.144545,280.589983 C665.843249,373.318712 597.198316,391.342566 631.295151,427.879707 C637.417529,434.440263 644.768252,431.782222 648.006009,420.837542 C654.691331,398.238965 644.768252,366.770304 683.705364,314.301503 C663.897021,359.626457 704.539288,476.017474 699.047901,551.222672 C692.299326,593.933894 673.053936,611.866717 673.053936,652.96426 C673.053936,694.061802 683.705364,733.295908 660.529412,788 C644.576364,788 609.262591,788 554.588093,788 Z" id="Rectangle-Copy-9" fill="url(#linearGradient-3)"></path>
                    <path d="M592.737209,149.491905 C614.690237,229.037197 584.027898,301.508391 600,316.333769 C615.972102,331.159147 635.802744,314.687307 640.358018,278.046438 C643.098955,307.734818 630.512771,354.200734 595.403784,333.12109 C560.294797,312.041446 604.25974,262.271222 592.737209,149.491905 Z" id="Rectangle" fill="#FFC450"></path>
                    <g id="AHT/透视-01" transform="translate(509.752834, 551.499183) rotate(-110.000000) translate(-509.752834, -551.499183) translate(387.591725, 437.129704)">
                        <path d="M17.726743,119.756321 C35.2847077,161.046598 69.251803,182.280727 119.628029,183.458709 C170.004255,184.636692 206.04094,162.832477 227.738085,118.046066 L226.034919,147.794537 C206.620935,189.948605 171.968283,211.02564 122.076961,211.02564 C72.1856391,211.02564 38.0459467,190.94054 19.6578835,150.770341 L17.726743,119.756321 Z" id="Rectangle" fill="#6583FF"></path>
                        <path d="M233.079509,88.7173209 L233.079509,89.2646633 L233.079509,89.2646633 L233.075969,90.3549303 L233.075969,90.3549303 L233.070233,91.4391982 C233.069056,91.6194023 233.067769,91.7993511 233.066374,91.9790417 L233.056713,93.0540665 C233.053066,93.4113612 233.048996,93.7676017 233.044512,94.1227663 L233.029829,95.1850108 C233.024529,95.5380019 233.018824,95.8898954 233.012727,96.2406696 L232.993263,97.2896123 L232.993263,97.2896123 L232.9715,98.3317087 L232.9715,98.3317087 L232.947496,99.3668283 L232.947496,99.3668283 L232.921312,100.394841 L232.921312,100.394841 L232.893009,101.415616 C232.888118,101.585135 232.883142,101.754346 232.878081,101.923249 L232.846711,102.932923 L232.846711,102.932923 L232.813371,103.935034 C232.807653,104.101415 232.801856,104.267476 232.795981,104.433213 L232.7598,105.423735 C232.753616,105.588168 232.747357,105.752272 232.741023,105.916045 L232.702136,106.894684 C232.695509,107.057121 232.68881,107.21922 232.68204,107.38098 L232.640582,108.347443 L232.640582,108.347443 L232.597485,109.305626 L232.597485,109.305626 L232.55281,110.255399 L232.55281,110.255399 L232.506616,111.19663 L232.506616,111.19663 L232.458964,112.12919 L232.458964,112.12919 L232.409914,113.052949 L232.409914,113.052949 L232.359527,113.967775 L232.359527,113.967775 L232.307861,114.873539 L232.307861,114.873539 L232.254978,115.770111 L232.254978,115.770111 L232.200938,116.657359 L232.200938,116.657359 L232.1458,117.535154 L232.1458,117.535154 L232.089625,118.403365 L232.089625,118.403365 L232.032473,119.261862 L232.032473,119.261862 L231.974404,120.110515 L231.974404,120.110515 L231.915479,120.949193 L231.915479,120.949193 L231.855756,121.777765 L231.855756,121.777765 L231.764811,123.001392 L231.764811,123.001392 L231.703361,123.804132 L231.703361,123.804132 L231.641325,124.59631 L231.641325,124.59631 L231.578763,125.377796 L231.578763,125.377796 L231.515735,126.148461 L231.515735,126.148461 L231.452301,126.908173 L231.452301,126.908173 L231.356522,128.02692 L231.356522,128.02692 L231.292337,128.75868 L231.292337,128.75868 L231.227958,129.479032 L231.227958,129.479032 L231.163444,130.187845 L231.163444,130.187845 L231.098854,130.884989 L231.098854,130.884989 L231.001962,131.908539 L231.001962,131.908539 L230.90524,132.9051 L230.90524,132.9051 L230.840953,133.554263 L230.840953,133.554263 L230.722546,134.723783 L230.663752,135.292439 L230.663752,135.292439 L230.547223,136.397027 L230.489583,136.932752 L230.489583,136.932752 L230.375792,137.970545 L230.264304,138.962773 L230.155501,139.908609 L230.049765,140.807225 L229.947477,141.657792 L229.849021,142.459484 L229.754777,143.211472 L229.665128,143.912928 L229.580456,144.563025 L229.501142,145.160935 L229.427569,145.705829 L229.32881,146.421958 L229.220788,147.183517 L229.105388,147.966137 L229.086776,148.08762 C226.51747,164.901038 196.030351,213.8781 122.17026,213.8781 C48.3101685,213.8781 18.9661192,167.231389 15.2537428,148.08762 L15.1622292,147.521473 L15.0548999,146.836942 L14.9509226,146.158138 L14.8287954,145.343407 L14.7381722,144.727338 L14.6407998,144.054757 L14.5372052,143.327223 L14.3997646,142.342904 L14.3997646,142.342904 L14.2544542,141.278204 L14.1332314,140.370619 L14.0081576,139.415099 L14.0081576,139.415099 L13.8797598,138.413205 L13.7479029,137.361154 L13.7479029,137.361154 L13.6137557,136.265422 L13.6137557,136.265422 L13.5233161,135.51145 L13.5233161,135.51145 L13.4322548,134.739236 L13.4322548,134.739236 L13.3407304,133.949251 L13.3407304,133.949251 L13.2489014,133.141964 C13.23358,133.006 13.2182525,132.869335 13.2029221,132.731978 L13.0649633,131.477358 C13.0496459,131.33594 13.0343357,131.193859 13.019036,131.051126 L12.9273887,130.186974 L12.9273887,130.186974 L12.83615,129.307631 L12.83615,129.307631 L12.7454783,128.413566 L12.7454783,128.413566 L12.6555322,127.505248 C12.6406104,127.3527 12.6257255,127.199577 12.6108807,127.04589 L12.52232,126.117072 C12.5076489,125.961166 12.4930246,125.804715 12.4784504,125.647728 L12.3916317,124.699465 C12.3772708,124.540377 12.3629666,124.380773 12.3487223,124.220663 L12.2640023,123.254011 C12.250011,123.091917 12.2360863,122.929336 12.2222314,122.766278 L12.1399666,121.782293 C12.0857175,121.122594 12.0326917,120.455582 11.9811005,119.781883 L11.904816,118.766396 C11.8922901,118.596339 11.8798604,118.425883 11.8675303,118.255038 L11.794771,117.225385 C11.7828523,117.053025 11.7710399,116.880296 11.7593369,116.707207 L11.6904592,115.664442 C11.622948,114.617522 11.5596157,113.55837 11.5011754,112.489097 L11.4443921,111.416529 C11.0678773,104.065327 10.930894,96.2743955 11.2610098,88.7173209 C13.4294305,88.1238374 15.6000761,87.5476305 17.7728668,86.9887437 L17.7964686,89.2449166 L17.7964686,89.2449166 L17.8197962,91.163443 L17.8197962,91.163443 L17.8464218,93.1073237 L17.8464218,93.1073237 L17.8763183,95.0676161 L17.8763183,95.0676161 L17.9094587,97.0353776 L17.9094587,97.0353776 L17.945816,99.0016655 L17.945816,99.0016655 L17.9691633,100.177011 L17.9691633,100.177011 L18.0106116,102.12234 L18.0106116,102.12234 L18.0552065,104.042946 L18.0552065,104.042946 L18.1029211,105.929884 L18.1029211,105.929884 L18.1330361,107.042167 L18.1330361,107.042167 L18.1749112,108.49801 L18.1749112,108.49801 L18.2076014,109.566989 L18.2076014,109.566989 L18.2528889,110.958083 L18.2528889,110.958083 L18.2881224,111.973242 L18.2881224,111.973242 L18.3244362,112.962115 L18.3244362,112.962115 L18.374525,114.236386 L18.374525,114.236386 L18.4133369,115.156415 L18.4133369,115.156415 L18.4398012,115.751707 L18.4398012,115.751707 L18.4803779,116.616124 L18.4803779,116.616124 L18.5220057,117.444597 L18.5220057,117.444597 L18.5503387,117.97599 L18.5503387,117.97599 L18.5791345,118.489977 L18.5791345,118.489977 L18.6083914,118.985987 L18.6083914,118.985987 L18.6381077,119.463446 L18.6381077,119.463446 L18.6682817,119.921783 L18.6682817,119.921783 L18.6989116,120.360425 L18.6989116,120.360425 L18.7299957,120.778799 C18.7404326,120.914816 18.7509449,121.04736 18.7615323,121.176334 L18.8611084,122.365135 C18.9966837,123.9522 19.1434439,125.547118 19.3008586,127.148198 L19.3566378,127.711328 C19.3902002,128.047677 19.4240829,128.382744 19.4582718,128.716485 L19.5617432,129.71369 C19.6313179,130.375788 19.7020614,131.032416 19.7738617,131.683239 L19.8823407,132.655075 L19.9371483,133.137649 L19.9371483,133.137649 L20.0478471,134.095948 L20.1037173,134.57161 L20.1037173,134.57161 L20.2164468,135.515801 L20.3304248,136.450272 L20.4455672,137.374769 L20.5617901,138.289039 L20.6790091,139.19283 L20.7971402,140.085888 L20.9160993,140.967961 L21.0486361,141.931111 L21.1915205,142.946453 L21.3305075,143.911044 L21.4319381,144.600429 L21.563097,145.473197 L21.707725,146.40927 L21.8235282,147.132823 L21.8416857,147.225264 C22.4659169,150.334091 23.8390278,154.071765 25.8715878,158.044482 L26.0842014,158.456275 L26.3014976,158.869648 C26.4845229,159.214757 26.6724031,159.56141 26.865081,159.909357 L27.0985937,160.327497 L27.3366901,160.746781 L27.4574503,160.956822 L27.4574503,160.956822 L27.7023811,161.37764 C28.0731793,162.009569 28.459262,162.644541 28.8602951,163.281085 L28.9929215,163.490795 C33.4966503,170.585068 39.5524563,177.44482 46.9791221,183.513539 L47.5175569,183.950733 L47.5175569,183.950733 L48.0420942,184.373966 L48.0420942,184.373966 L48.5655321,184.794057 L48.5655321,184.794057 L49.0880809,185.210988 L49.0880809,185.210988 L49.609951,185.624743 L49.609951,185.624743 L50.1313528,186.035304 C50.3050987,186.171623 50.4788016,186.307408 50.6524966,186.442654 L51.1735927,186.846777 L51.1735927,186.846777 L51.6948516,187.247656 L51.6948516,187.247656 L52.2164835,187.645272 C52.4774277,187.843263 52.7385908,188.040023 53.000091,188.235545 L53.5235758,188.624933 L53.5235758,188.624933 L54.0481699,189.011001 C60.5258696,193.751948 67.3046677,197.731255 76.1603895,200.805373 C89.7159908,205.510976 105.050269,208.014367 122.17026,208.014367 C139.235722,208.014367 154.61745,205.397347 168.301318,200.491623 C180.318486,196.183417 190.820415,190.181108 199.711199,182.881478 C204.556986,178.902926 208.384305,174.607156 211.696689,170.172479 L212.037533,169.713232 C212.094041,169.63661 212.150402,169.559949 212.206616,169.48325 L212.542182,169.022598 C212.764758,168.715198 212.98509,168.40721 213.203346,168.098693 L213.529191,167.635529 C213.583246,167.558271 213.637176,167.480982 213.690984,167.403663 L214.012387,166.93939 L214.012387,166.93939 L214.330983,166.474434 L214.330983,166.474434 L214.646897,166.008837 L214.646897,166.008837 L214.960252,165.542644 L214.960252,165.542644 L215.271172,165.075899 L215.271172,165.075899 L215.579781,164.608645 L215.579781,164.608645 L215.886203,164.140927 L215.886203,164.140927 L216.190561,163.672788 L216.190561,163.672788 L216.49298,163.204272 L216.49298,163.204272 L216.793583,162.735423 L216.793583,162.735423 L217.062293,162.313385 L217.297522,161.939021 L217.528903,161.565583 C217.605386,161.441267 217.681224,161.317121 217.756414,161.193158 L217.980035,160.821834 C218.053925,160.698252 218.127163,160.574869 218.199746,160.451699 L218.415526,160.08284 L218.627355,159.715345 L218.835211,159.349301 L219.039074,158.984798 L219.238924,158.621921 L219.434739,158.260758 L219.6265,157.901398 L219.814185,157.543928 L219.997773,157.188436 C220.058285,157.070277 220.11811,156.952463 220.177246,156.835008 L220.35258,156.483734 L220.523757,156.1347 C220.58012,156.018739 220.635788,155.903165 220.690755,155.787994 L220.853553,155.443705 C220.933899,155.272178 221.012663,155.101591 221.089832,154.931991 L221.242043,154.594125 C221.292068,154.481952 221.341382,154.370232 221.389981,154.258981 L221.533627,153.926647 L221.672961,153.597211 L221.741004,153.433608 L221.741004,153.433608 L221.906354,153.027936 L221.906354,153.027936 L222.064877,152.627169 C222.106236,152.520966 222.146863,152.415306 222.186753,152.310201 L222.304213,151.99657 C222.342628,151.892592 222.380303,151.789185 222.417236,151.686363 L222.525801,151.379667 C222.61441,151.125575 222.698354,150.875232 222.777579,150.628866 L222.870382,150.335151 L222.958634,150.045342 C223.245202,149.085919 223.455589,148.193057 223.586357,147.381364 L223.672206,146.815289 L223.766538,146.163822 L223.838333,145.654735 L223.938411,144.928226 L224.043184,144.147779 L224.124662,143.527448 L224.249114,142.558092 L224.330373,141.911235 L224.411592,141.253538 L224.53326,140.246851 L224.654622,139.216241 L224.775551,138.161991 L224.855866,137.446162 L224.935894,136.720034 L225.015596,135.983689 L225.094934,135.237211 L225.173871,134.480683 L225.291441,133.327229 L225.407893,132.15163 L225.561204,130.550201 L225.561204,130.550201 L225.608203,130.033429 C225.615995,129.945082 225.623768,129.855637 225.63152,129.765108 L225.677789,129.209067 C225.693131,129.019472 225.708391,128.82567 225.723568,128.627787 L225.768854,128.022022 L225.768854,128.022022 L225.813644,127.392524 L225.813644,127.392524 L225.857934,126.740047 L225.857934,126.740047 L225.901722,126.065342 L225.901722,126.065342 L225.945005,125.369163 L225.945005,125.369163 L225.987779,124.652263 L225.987779,124.652263 L226.050979,123.539708 L226.050979,123.539708 L226.092468,122.774299 L226.092468,122.774299 L226.133437,121.990803 L226.133437,121.990803 L226.173884,121.189974 L226.173884,121.189974 L226.213805,120.372565 L226.213805,120.372565 L226.272695,119.117009 L226.272695,119.117009 L226.330384,117.828383 L226.330384,117.828383 L226.368172,116.95218 L226.368172,116.95218 L226.423838,115.614081 L226.423838,115.614081 L226.496147,113.789483 L226.496147,113.789483 L226.548932,112.393981 L226.548932,112.393981 L226.600465,110.978111 L226.600465,110.978111 L226.650735,109.544416 L226.650735,109.544416 L226.683541,108.57997 L226.683541,108.57997 L226.747444,106.633711 L226.747444,106.633711 L226.793863,105.161783 L226.793863,105.161783 L226.868324,102.692799 L226.868324,102.692799 L226.939113,100.214293 L226.939113,100.214293 L227.006182,97.7380313 L227.006182,97.7380313 L227.057126,95.7665416 L227.057126,95.7665416 L227.128966,92.83929 L227.128966,92.83929 L227.173772,90.9165608 L227.173772,90.9165608 L227.246155,87.627702 C227.249418,87.4737928 227.252654,87.3203063 227.255863,87.1672583 C229.197382,87.66912 231.138616,88.1861102 233.079509,88.7173209 Z" id="Path" fill="#000000" fill-rule="nonzero"></path>
                        <g id="Icon/coin/aht" transform="translate(122.161109, 88.727400) rotate(90.000000) translate(-122.161109, -88.727400) translate(33.433709, -33.433709)">
                            <ellipse id="Oval-Copy-3" fill="#80D4FF" cx="88.7273998" cy="122.161109" rx="80.4092061" ry="110.708505"></ellipse>
                            <path d="M88.7273998,0 C137.73019,0 177.4548,54.6933915 177.4548,122.161109 C177.4548,189.628827 137.73019,244.322218 88.7273998,244.322218 C39.72461,244.322218 0,189.628827 0,122.161109 C0,54.6933915 39.72461,0 88.7273998,0 Z M22.2366663,70.4214831 C0.113516793,122.066731 11.948076,187.098097 48.6698942,215.673103 C85.3917123,244.248109 133.094984,225.545983 155.218133,173.900735 C177.341283,122.255487 165.506724,57.2241214 128.784905,28.649115 C92.0630873,0.0741086181 44.3598157,18.7762348 22.2366663,70.4214831 Z M153.804608,94.0178479 L154.101212,95.4537827 C164.471665,147.048876 143.608958,200.831701 107.50305,215.581085 C84.9729617,224.784701 61.8313089,216.614851 45.094285,196.633859 L44.6147984,196.055631 L44.8850284,196.346763 C54.7167778,206.865666 67.1668789,213.240338 81.1195158,213.688816 C117.709752,214.864931 150.777397,174.839471 154.978167,124.28945 C155.85611,113.724706 155.403687,103.536377 153.804608,94.0178479 Z M132.838093,48.2655911 L132.863467,48.2930675 C122.985952,37.5835296 110.425423,31.0840018 96.3318503,30.6309939 C59.741614,29.4548788 26.6739696,69.4803382 22.4731994,120.03036 C21.595256,130.595104 22.0476788,140.783433 23.6467581,150.301962 L23.350154,148.866027 C12.9797006,97.2709337 33.8424085,43.4881087 69.9483162,28.7387248 C92.6950381,19.4466129 116.065142,27.8636761 132.838093,48.2655911 Z" id="Shape" fill="#000000"></path>
                            <path d="M124.772906,175.606594 L92.3859287,175.606594 L90.4482463,145.018222 L64.8431575,145.018222 L55.0163396,175.606594 L41.5909687,175.606594 L82.4207049,53.4454852 L115.2229,53.4454852 L124.772906,175.606594 Z M69.3182811,129.796178 L89.8364923,129.796178 L84.6136325,78.8320467 L69.3182811,129.796178 Z" id="Shape" fill="#000000"></path>
                        </g>
                        <path d="M42.3064492,161.779743 C44.9977253,164.554024 47.7334868,166.948756 50.5137337,168.963938 C53.2939806,170.97912 56.0637971,172.819307 58.8231834,174.484498 L58.8231834,178.882298 L50.0700967,173.951062 L50.0700967,188.655187 L42.3064492,181.814165 L42.3064492,161.779743 Z" id="Rectangle" fill="#000000"></path>
                        <path d="M211.246438,158.11491 L219.231904,162.268387 L219.231904,183.52442 L219.231904,183.52442 C213.621883,180.442424 205.727469,173.510394 202.493203,169.842376 C202.493203,169.842376 202.567142,168.05068 202.715021,164.467287 L211.246438,170.864457 L211.246438,158.11491 Z M191.368481,143.270794 C195.381857,148.712121 200.15362,153.788951 205.683772,158.501283 L205.683772,162.899082 L196.930536,156.133434 L196.930536,172.183327 L191.368481,163.305216 L191.368481,143.270794 L191.368481,143.270794 Z" id="Combined-Shape" fill="#000000" transform="translate(205.300193, 163.397607) scale(-1, 1) translate(-205.300193, -163.397607) "></path>
                        <path d="M172.97475,171.856494 C176.682786,175.189936 181.45455,177.986425 187.290041,180.24596 L187.290041,187.086982 L178.536805,183.2532 L178.314986,196.859871 L172.752931,193.112527 C172.90081,178.941838 172.97475,171.856494 172.97475,171.856494 Z" id="Combined-Shape-Copy" fill="#000000" transform="translate(180.021486, 184.358182) scale(-1, 1) translate(-180.021486, -184.358182) "></path>
                        <path d="M54.0626807,170.086698 C58.8469302,172.146981 66.0408797,176.273785 70.8013824,180.103909 C70.8013824,180.103909 70.7274429,181.569843 70.5795639,184.501709 L62.0481467,179.570473 L62.0481467,194.274598 L54.0626807,190.12112 C54.0626807,176.764839 54.0626807,170.086698 54.0626807,170.086698 Z" id="Rectangle-Copy-5" fill="#000000" transform="translate(62.432032, 182.180648) rotate(180.000000) translate(-62.432032, -182.180648) "></path>
                        <path d="M26.4311633,143.488454 C30.6767375,147.478583 35.8015783,156.076334 38.194063,162.08364 C36.6041537,160.113403 34.6436705,158.281983 32.3126131,156.589382 L32.3126131,170.086698 L26.4311633,163.522876 C26.4311633,150.166595 26.4311633,143.488454 26.4311633,143.488454 Z" id="Rectangle-Copy-6" fill="#000000" transform="translate(32.312613, 156.787576) rotate(180.000000) translate(-32.312613, -156.787576) "></path>
                        <path d="M142.419149,172.719636 C127.515576,182.719023 111.385677,201.941889 100.191267,221.228774 C104.689081,203.111776 123.123437,181.142567 142.419149,172.719636 Z" id="Path-Copy-2" fill="#000000" fill-rule="nonzero" transform="translate(121.305208, 196.974205) rotate(-130.000000) translate(-121.305208, -196.974205) "></path>
                        <path d="M142.419149,165.878614 C127.515576,175.878001 111.385677,195.100867 100.191267,214.387752 C104.689081,196.270754 123.123437,174.301545 142.419149,165.878614 Z" id="Path-Copy-3" fill="#000000" fill-rule="nonzero" transform="translate(121.305208, 190.133183) rotate(-130.000000) translate(-121.305208, -190.133183) "></path>
                    </g>
                    <g id="AUT/透视-01" transform="translate(677.382537, 507.990187) rotate(-72.000000) translate(-677.382537, -507.990187) translate(555.118664, 392.536303)">
                        <path d="M16.0338125,121.354723 C33.9080795,162.645 68.4870834,183.879129 119.770824,185.057111 C171.054565,186.235093 207.740442,164.430879 229.828456,119.644468 L228.094608,149.392938 C208.330886,191.547007 173.053974,212.624042 122.263873,212.624042 C71.4737718,212.624042 36.7190615,192.538942 17.999742,152.368743 L16.0338125,121.354723 Z" id="Rectangle" fill="#CC980A"></path>
                        <path d="M71.3910937,23.0941523 C88.2762123,23.0995949 102.926348,24.381558 112.831581,25.5598123 L113.912509,25.6902326 C114.089366,25.7118748 114.264565,25.7334639 114.438089,25.7549911 L115.459003,25.8833421 C115.625762,25.9045869 115.790815,25.9257522 115.954145,25.9468294 L116.913324,26.0721645 L117.83039,26.1949631 L118.704578,26.3148044 L119.535122,26.4312678 L120.321258,26.5439324 L121.06222,26.6523775 L121.757244,26.7561824 L122.405564,26.8549264 L123.006415,26.9481887 L123.559033,27.0355486 L124.062651,27.1165854 L124.724532,27.2253642 L125.428402,27.3443447 L126.151738,27.4714522 L126.264018,27.4919522 C141.803799,30.3219169 187.070787,63.9019868 187.070787,145.255261 C187.070787,226.608536 143.957623,258.92957 126.264018,263.01857 L125.740758,263.119368 L125.108081,263.237586 L124.480697,263.352112 L123.727683,263.486629 L123.158282,263.586446 L122.53665,263.693697 L121.864227,263.807802 L121.142456,263.928179 C121.018128,263.948733 120.891805,263.969523 120.763515,263.990539 L119.970424,264.119238 L119.131589,264.252759 C118.844514,264.298005 118.550055,264.343958 118.248452,264.390522 L117.322453,264.531945 C106.748189,266.12946 88.4267442,268.303215 71.3910937,267.41637 C53.0639343,187.61573 52.5622544,105.079221 71.3910937,23.0941523 Z M74.9327819,29.221792 L74.6885467,30.319546 C57.6765715,107.550607 57.7898975,182.27372 74.6956266,259.001477 L74.9684606,260.227472 L75.2354739,260.235199 C83.4010878,260.457136 92.2468167,260.049495 101.391296,259.154912 L102.490043,259.045234 C103.956887,258.895904 105.430987,258.734255 106.910783,258.560871 L107.431256,258.499432 C107.742126,258.462465 108.051811,258.425145 108.360271,258.387488 L109.281937,258.273519 C109.89388,258.196886 110.500768,258.118965 111.102289,258.039881 L112.000508,257.920397 C112.149528,257.900342 112.298202,257.880219 112.446526,257.860029 L113.332232,257.738099 C113.479137,257.717649 113.625682,257.697136 113.771863,257.676561 L114.64453,257.552395 L115.508214,257.426854 L116.362679,257.30003 L117.207692,257.172016 L118.043019,257.042905 L118.868427,256.91279 L119.683682,256.781762 L120.573873,256.635779 L121.512301,256.478399 L122.403823,256.325312 L123.040986,256.213591 L123.847641,256.069126 L124.712805,255.909825 L125.381549,255.782273 L125.466987,255.762274 C128.340317,255.074714 131.794857,253.562299 135.466635,251.323534 L135.847234,251.089351 L136.229294,250.850009 C136.54826,250.648416 136.868655,250.441475 137.190244,250.22925 L137.576709,249.972047 L137.964232,249.709796 C138.028902,249.665668 138.093613,249.62133 138.158362,249.576784 L138.547303,249.307005 C139.131362,248.898589 139.718234,248.473338 140.306559,248.031619 L140.500384,247.885538 C147.138205,242.863659 153.553887,236.089771 159.213785,227.770961 C165.781489,218.117876 171.148809,209.114157 174.988335,195.932881 C179.337483,181.00205 181.651239,164.112093 181.651239,145.255261 C181.651239,126.45849 179.232462,109.51627 174.698352,94.4441594 C170.716499,81.2078365 165.168872,69.6404754 158.422198,59.8477123 C152.652842,51.47352 146.161759,45.8607922 139.585462,40.8674605 L139.412164,40.7363315 L139.066158,40.4772385 L138.721008,40.2223844 C138.60611,40.138142 138.491368,40.05461 138.376795,39.9717919 L138.033599,39.7254838 C137.919379,39.6440977 137.805343,39.5634295 137.691502,39.4834828 L137.350585,39.2458117 L137.010928,39.012493 L136.672613,38.7835497 L136.335721,38.5590044 L136.000332,38.3388799 L135.666528,38.1231989 L135.33439,37.9119841 L135.003999,37.7052582 L134.675436,37.5030441 C134.566228,37.4363938 134.457339,37.3704993 134.348781,37.3053643 L134.024116,37.1122417 L133.701522,36.923699 C133.594345,36.8616173 133.487526,36.8003027 133.38108,36.739759 L133.06287,36.5604442 C132.904337,36.471947 132.746672,36.3851928 132.58992,36.3001944 L132.277647,36.1325425 C132.173971,36.0774415 132.070714,36.0231245 131.967891,35.9695956 L131.660732,35.8113762 L131.356251,35.6579073 C131.305732,35.6327263 131.255328,35.6077441 131.205041,35.5829613 L130.90473,35.4366606 C130.854916,35.4126771 130.805222,35.3888939 130.755649,35.3653115 L130.45969,35.2262301 C130.361533,35.1806753 130.263876,35.1359273 130.166734,35.0919901 L129.87686,34.962614 C129.780759,34.9203019 129.685185,34.8788042 129.590152,34.8381248 L129.306689,34.718545 C129.071844,34.6209472 128.840465,34.5284871 128.612762,34.441224 L128.341296,34.3390065 L128.07344,34.2418009 C127.186695,33.9261604 126.361468,33.694429 125.611262,33.5503953 L125.088068,33.4558362 L124.485951,33.3519345 L124.015428,33.2728561 L123.343952,33.1626247 L122.622625,33.0472222 L122.049285,32.9574782 L121.153359,32.8204 L120.555502,32.7308972 L119.947627,32.6414393 L119.017197,32.5074281 L118.064658,32.3737534 L117.090268,32.2405561 L116.428664,32.1520929 L115.757541,32.0639464 L115.076975,31.9761586 L114.387044,31.8887711 L113.687824,31.8018259 L112.621745,31.6723288 L111.535199,31.5440619 L110.428445,31.4171665 C110.304359,31.4031484 110.179904,31.3891583 110.055081,31.3751971 C99.2001351,30.1610954 87.5828568,29.3808421 75.5651581,29.2292667 L74.9327819,29.221792 Z" id="Rectangle" fill="#000000" fill-rule="nonzero" transform="translate(122.263873, 145.358025) rotate(90.000000) translate(-122.263873, -145.358025) "></path>
                        <g id="Icon/coin/aut" transform="translate(122.349537, 90.325801) rotate(90.000000) translate(-122.349537, -90.325801) translate(32.023736, -31.835308)">
                            <ellipse id="Oval-Copy-3" fill="#FFE666" cx="90.3258015" cy="122.161109" rx="81.8577576" ry="110.708505"></ellipse>
                            <path d="M90.3258015,0 C140.211364,0 180.651603,54.6933915 180.651603,122.161109 C180.651603,189.628827 140.211364,244.322218 90.3258015,244.322218 C40.4402388,244.322218 0,189.628827 0,122.161109 C0,54.6933915 40.4402388,0 90.3258015,0 Z M22.6372542,70.4214831 C0.11556177,122.066731 12.1633176,187.098097 49.54667,215.673103 C86.9300224,244.248109 135.492656,225.545983 158.014349,173.900735 C180.536041,122.255487 168.488285,57.2241214 131.104933,28.649115 C93.7215805,0.0741086181 45.1589466,18.7762348 22.6372542,70.4214831 Z M156.575359,94.0178479 L156.877307,95.4537827 C167.434581,147.048876 146.196037,200.831701 109.43969,215.581085 C86.5037281,224.784701 62.9451842,216.614851 45.9066472,196.633859 L45.4185228,196.055631 L45.6936208,196.346763 C55.7024867,206.865666 68.3768733,213.240338 82.5808634,213.688816 C119.830264,214.864931 153.493613,174.839471 157.770059,124.28945 C158.663819,113.724706 158.203245,103.536377 156.575359,94.0178479 Z M134.61384,49.1693904 L98.4223362,131.36482 L156.438732,129.778661 L31.3017575,194.809312 L84.8588568,98.8975015 L40.2232085,94.4839828 L134.61384,49.1693904 Z M135.231138,48.2655911 L135.256969,48.2930675 C125.201513,37.5835296 112.414709,31.0840018 98.0672442,30.6309939 C60.817844,29.4548788 27.1544944,69.4803382 22.8780484,120.03036 C21.9842891,130.595104 22.4448621,140.783433 24.0727485,150.301962 L23.7708011,148.866027 C13.2135267,97.2709337 34.4520709,43.4881087 71.2084175,28.7387248 C94.3649158,19.4466129 118.156026,27.8636761 135.231138,48.2655911 Z" id="Shape" fill="#000000"></path>
                        </g>
                        <path d="M41.0563159,163.378145 C43.7960747,166.152426 46.5811202,168.547158 49.4114525,170.56234 C52.2417848,172.577522 55.061499,174.417709 57.8705949,176.0829 L57.8705949,180.4807 L48.9598235,175.549463 L48.9598235,190.253589 L41.0563159,183.412567 L41.0563159,163.378145 Z" id="Rectangle" fill="#000000"></path>
                        <path d="M213.039716,159.713311 L221.169038,163.866789 L221.169038,185.122822 L221.169038,185.122822 C215.457954,182.040825 207.421324,175.108796 204.128793,171.440778 C204.128793,171.440778 204.204065,169.649082 204.354608,166.065689 L213.039716,172.462859 L213.039716,159.713311 Z M192.803662,144.869196 C196.889338,150.310523 201.747064,155.387352 207.37684,160.099684 L207.37684,164.497484 L198.465917,157.731835 L198.465917,173.781728 L192.803662,164.903618 L192.803662,144.869196 L192.803662,144.869196 Z" id="Combined-Shape" fill="#000000" transform="translate(206.986350, 164.996009) scale(-1, 1) translate(-206.986350, -164.996009) "></path>
                        <path d="M174.078573,173.454896 C177.853409,176.788338 182.711135,179.584826 188.65175,181.844362 L188.65175,188.685384 L179.740827,184.851602 L179.515012,198.458272 L173.852758,194.710929 C174.003301,180.54024 174.078573,173.454896 174.078573,173.454896 Z" id="Combined-Shape-Copy" fill="#000000" transform="translate(181.252254, 185.956584) scale(-1, 1) translate(-181.252254, -185.956584) "></path>
                        <path d="M53.0243329,171.6851 C57.8947694,173.745383 65.2183161,177.872187 70.0645781,181.702311 C70.0645781,181.702311 69.9893066,183.168244 69.8387636,186.100111 L61.1536551,181.168874 L61.1536551,195.873 L53.0243329,191.719522 C53.0243329,178.363241 53.0243329,171.6851 53.0243329,171.6851 Z" id="Rectangle-Copy-5" fill="#000000" transform="translate(61.544456, 183.779050) rotate(180.000000) translate(-61.544456, -183.779050) "></path>
                        <path d="M24.8950407,145.086856 C29.2170979,149.076985 34.4342614,157.674736 36.869846,163.682042 C35.251295,161.711805 33.2554941,159.880385 30.8824434,158.187783 L30.8824434,171.6851 L24.8950407,165.121277 C24.8950407,151.764996 24.8950407,145.086856 24.8950407,145.086856 Z" id="Rectangle-Copy-6" fill="#000000" transform="translate(30.882443, 158.385978) rotate(180.000000) translate(-30.882443, -158.385978) "></path>
                        <path d="M142.964466,173.874339 C127.861262,184.111637 111.440787,203.680798 99.9919693,223.270874 C104.683969,204.922455 123.450415,182.557476 142.964466,173.874339 Z" id="Path-Copy-2" fill="#000000" fill-rule="nonzero" transform="translate(121.478217, 198.572607) rotate(-130.000000) translate(-121.478217, -198.572607) "></path>
                        <path d="M142.964466,167.033317 C127.861262,177.270615 111.440787,196.839776 99.9919693,216.429852 C104.683969,198.081433 123.450415,175.716454 142.964466,167.033317 Z" id="Path-Copy-3" fill="#000000" fill-rule="nonzero" transform="translate(121.478217, 191.731585) rotate(-130.000000) translate(-121.478217, -191.731585) "></path>
                    </g>
                    <path d="M540.82251,788 C537.710281,765.553704 501.145781,728.324577 499.309798,701.893259 C497.473815,675.461941 505.497732,670.026906 505.497732,644.736414 C505.497732,631.707276 499.429144,618.982643 504.389452,606.135975 C509.34976,593.289306 506.578844,579.839705 511.833989,551.544088 C513.328246,568.241475 514.647098,576.059731 519.615258,596.753063 C524.583418,617.446395 515.302114,650.306416 526.484911,670.026906 C537.667709,689.747395 531.823262,653.951028 529.555647,636.756213 C527.288032,619.561398 531.53243,600.807871 531.53243,581.90562 C531.53243,563.003369 528.857477,557.158536 525.397023,525.980154 C521.936569,494.801771 561.166906,483.524385 562.265585,413.006405 C571.569391,465.004324 549.244207,502.60882 564.885777,512.140352 C580.527347,521.671885 587.319048,495.359329 590.109861,490.005691 C596.297233,532.066014 574.20821,562.081315 584.912248,576.514995 C588.404821,581.224497 589.884826,578.139798 591.786494,571.711538 C595.713058,558.438465 595.430571,542.957434 618.299936,512.140352 C606.665682,538.761559 630.947259,600.503202 624.321132,636.756213 C617.695005,673.009223 606.64744,674.634923 600,694.329428 C595.50634,707.642886 602.131359,732.942734 617.919149,713.272444 C617.070637,721.370265 616.520067,746.27945 616.267441,788 C565.97082,788 540.82251,788 540.82251,788 Z" id="Rectangle-Copy" fill="url(#linearGradient-4)"></path>
                    <path d="M540.82251,788 C536.773576,761.541598 503.891125,725.593915 503.891125,696.116169 C503.891125,666.638423 507.981016,665.059128 507.981016,651.076078 C507.981016,637.093028 502.180845,626.461408 506.921756,614.182954 C511.662668,601.9045 507.600493,590.766054 512.6232,563.721967 C514.051365,579.68082 516.725702,585.436996 521.474118,605.215053 C526.222533,624.993109 517.351746,656.399716 528.039923,675.247959 C538.7281,694.096202 535.031504,659.9796 532.864188,643.54532 C530.696871,627.11104 534.340248,608.83225 534.340248,590.766054 C534.340248,572.699858 532.864188,562.590692 529.556791,532.791345 C526.249395,502.991997 561.187917,496.994533 562.238001,429.595596 C571.130295,479.293623 549.792564,515.234854 564.7423,524.344802 C579.692036,533.454751 586.183337,508.306012 588.850711,503.189167 C594.764412,543.389143 573.652397,572.076853 583.882991,585.872125 C587.221086,590.373322 591.446288,588.06285 593.263844,581.918915 C597.016734,569.232917 591.446288,551.567585 613.30413,522.113557 C602.184465,547.557296 621.036958,593.078768 617.954298,635.296161 C614.165899,659.272648 595.998565,681.199899 595.998565,712.517201 C595.998565,723.296678 606.995108,732.970752 616.014144,717.471371 C623.16972,705.17438 617.954298,687.993625 626.226686,670.933426 C623.879352,696.116169 650.059593,730.741986 616.267441,788 C595.998565,788 540.82251,788 540.82251,788 Z" id="Rectangle" fill="url(#linearGradient-5)"></path>
                    <path d="M515.580704,450.881284 C519.244014,461.36186 521.075669,468.872444 521.075669,473.413036 C521.075669,477.953628 518.19077,483.576217 512.420972,490.280803 C510.991392,481.173659 510.633997,474.607072 511.348787,470.581043 C512.063577,466.555015 513.474216,459.988428 515.580704,450.881284 Z" id="Rectangle" fill="#EB4A32"></path>
                    <path d="M650.757175,728.162784 C654.420485,738.64336 656.25214,746.153944 656.25214,750.694536 C656.25214,755.235128 653.367241,760.857717 647.597442,767.562303 C646.167862,758.455159 645.810467,751.888572 646.525257,747.862543 C647.240047,743.836515 648.650687,737.269928 650.757175,728.162784 Z" id="Rectangle-Copy-5" fill="#EB4A32"></path>
                    <path d="M681.702162,671.258925 C680.675461,683.425766 680.16215,690.922859 680.162231,693.750204 C680.162311,696.57755 678.879546,700.236864 676.313936,704.728145 C674.860455,701.526875 674.637793,697.437973 675.645949,692.461437 C676.654106,687.484902 678.672843,680.417398 681.702162,671.258925 Z" id="Rectangle-Copy-6" fill="#EB4A32" transform="translate(678.364390, 687.993535) rotate(10.000000) translate(-678.364390, -687.993535) "></path>
                    <path d="M500.174103,734.038855 C499.146388,746.205605 498.632455,753.702631 498.632304,756.529936 C498.632153,759.357241 497.349069,763.016607 494.783053,767.508034 C493.329813,764.306929 493.107483,760.218104 494.116063,755.241558 C495.124642,750.265012 497.143989,743.197445 500.174103,734.038855 Z" id="Rectangle-Copy-8" fill="#FF4F35" transform="translate(496.835180, 750.773445) rotate(-20.000000) translate(-496.835180, -750.773445) "></path>
                    <path d="M696.864361,660.49165 C696.409254,665.88125 696.181682,669.202269 696.181647,670.454705 C696.181611,671.707141 695.613289,673.328148 694.476681,675.317726 C693.83291,673.899689 693.73438,672.088424 694.181091,669.883931 C694.627802,667.679437 695.522226,664.548677 696.864361,660.49165 Z" id="Rectangle-Copy-7" fill="#EB4A32" transform="translate(695.385482, 667.904688) rotate(-10.000000) translate(-695.385482, -667.904688) "></path>
                    <path d="M474.99304,342.510414 C478.656069,352.990833 480.487519,360.501327 480.48739,365.041896 C480.487261,369.582465 477.602187,375.205108 471.832169,381.909825 C470.402841,372.802767 470.045631,366.236224 470.76054,362.210195 C471.475448,358.184166 472.886281,351.617573 474.99304,342.510414 Z" id="Rectangle-Copy-3" fill="#EB4A32" transform="translate(475.445197, 362.210119) rotate(-10.000000) translate(-475.445197, -362.210119) "></path>
                    <path d="M502.362148,260.619768 C508.131946,282.745688 511.016845,296.078944 511.016845,300.619536 C511.016845,305.160128 508.131946,310.782717 502.362148,317.487303 C503.669541,311.392766 504.680632,303.545281 505.395422,293.944847 C506.110212,284.344413 505.099121,273.236054 502.362148,260.619768 Z" id="Rectangle-Copy-2" fill="#EB4A32"></path>
                    <path d="M625.529484,214.894565 C628.083982,223.40634 629.361148,229.219436 629.360981,232.333852 C629.360815,235.448267 627.381763,239.304937 623.423828,243.903859 C624.320834,239.723536 625.014662,234.340868 625.505312,227.755854 C625.995962,221.17084 626.004019,216.883744 625.529484,214.894565 Z" id="Rectangle-Copy-4" fill="#EB4A32" transform="translate(626.392405, 229.399212) scale(-1, 1) rotate(-20.000000) translate(-626.392405, -229.399212) "></path>
                </g>
                <text id="Gifting-Suprise-Box" font-family="ArchivoBlack-Regular, Archivo Black" font-size="24" font-weight="normal" fill="#FFFFFF">
                    <tspan x="98.2941176" y="443.650525">Gifting</tspan>
                    <tspan x="98.2941176" y="474.650525">Suprise Box Openning</tspan>
                </text>
                <text id="Room/Seat-Repair-Roo" font-family="ArchivoBlack-Regular, Archivo Black" font-size="20" font-weight="normal" line-spacing="48" fill="#FFFFFF">
                    <tspan x="834.352941" y="354.057858">Room/Seat Repair</tspan>
                    <tspan x="834.352941" y="402.057858">Room/Seat Mint</tspan>
                    <tspan x="834.352941" y="450.057858">Seat Socket Unlock</tspan>
                    <tspan x="834.352941" y="498.057858">Room/Seat Level-up</tspan>
                    <tspan x="834.352941" y="546.057858">Crown Upgrade</tspan>
                </text>
                <path id="Line-2-Copy-2" d="M259.574396,425.947617 L260.28011,425.963021 L330.28011,427.49097 L330.970588,427.506041 L330.97,627.168 L335.794118,627.168735 L335.794118,638.168735 L324.735294,638.168735 L324.735294,627.168735 L329.558,627.168 L329.558,428.887 L260.249302,427.37445 L259.543587,427.359045 L259.574396,425.947617 Z" transform="translate(295.264706, 529.668735) scale(1, -1) rotate(-90.000000) translate(-295.264706, -529.668735) " fill="#FFFFFF" fill-rule="nonzero"></path>
                <path id="Line-2-Copy-3" d="M541.943614,300.151689 L542.649492,300.154122 L822.178904,301.117649 L822.882353,301.120074 L822.882,425.264 L827.705882,425.264 L827.705882,436.264 L816.647059,436.264 L816.647059,425.264 L821.47,425.264 L821.47,302.527 L542.644626,301.565878 L541.938748,301.563445 L541.943614,300.151689 Z" transform="translate(682.411765, 365.812000) scale(-1, 1) translate(-682.411765, -365.812000) " fill="#FFFFFF" fill-rule="nonzero"></path>
                <path id="Line-2-Copy-4" d="M691.944222,300.151085 L692.650098,300.154124 L822.17951,300.711818 L822.882353,300.714844 L822.882,370.549 L827.705882,370.549 L827.705882,381.549 L816.647059,381.549 L816.647059,370.549 L821.47,370.549 L821.47,302.12 L692.64402,301.565876 L691.938144,301.562837 L691.944222,300.151085 Z" transform="translate(757.411765, 338.454500) scale(-1, 1) translate(-757.411765, -338.454500) " fill="#FFFFFF" fill-rule="nonzero"></path>
                <path d="M127.618899,371.636335 C125.63454,376.300071 121.056331,375.343153 121.056331,375.343153 C121.056331,375.343153 123.499006,362.881455 112.020141,355.575 C112.020141,355.575 112.592473,360.131054 109.982936,365.095196 C108.622395,367.683365 107.341888,369.959482 103.931946,375.343153 C101.339796,379.435679 97.8839506,384.783329 98.3339682,390.550375 C98.7839857,396.317422 102.449205,402.415331 111.165862,404.995 C107.493495,398.958484 106.376377,389.646437 115.992766,381.522728 C115.992766,384.197002 116.574246,386.690051 119.332824,391.23917 C122.091402,395.788289 122.091402,401.405471 119.210702,404.995 C121.393408,404.995 144.126199,398.158282 127.618899,371.636335 Z" id="路径" fill="url(#radialGradient-6)" fill-rule="nonzero"></path>
                <path d="M863.677723,281.444835 C861.693364,286.108571 857.115154,285.151653 857.115154,285.151653 C857.115154,285.151653 859.557829,272.689955 848.078964,265.3835 C848.078964,265.3835 848.651296,269.939554 846.04176,274.903696 C844.681218,277.491865 843.400712,279.767982 839.990769,285.151653 C837.39862,289.244179 833.942774,294.591829 834.392792,300.358875 C834.842809,306.125922 838.508028,312.223831 847.224685,314.8035 C843.552318,308.766984 842.435201,299.454937 852.051589,291.331228 C852.051589,294.005502 852.63307,296.498551 855.391648,301.04767 C858.150226,305.596789 858.150226,311.213971 855.269525,314.8035 C857.452232,314.8035 880.185022,307.966782 863.677723,281.444835 Z" id="路径" fill="url(#radialGradient-6)" fill-rule="nonzero"></path>
                <g id="标签-la-copy" transform="translate(137.823529, 371.989500)">
                    <rect id="Rectangle" stroke="#000000" stroke-width="1.41176471" fill="#65B2FF" x="0.705882353" y="0.705882353" width="81.3529412" height="30.3529412"></rect>
                    <g id="AHT" transform="translate(8.390118, 6.540706)" fill="#000000" fill-rule="nonzero">
                        <path d="M5.16282353,17.2743529 C5.16282353,17.3825882 5.20070588,17.4637647 5.27647059,17.5178824 C5.35223529,17.572 5.50917647,17.5990588 5.74729412,17.5990588 L5.74729412,17.9887059 L0,17.9887059 L0,17.5990588 C0.238117647,17.5557647 0.411294118,17.4854118 0.519529412,17.388 C0.627764706,17.2905882 0.736,17.112 0.844235294,16.8522353 C0.887529412,16.744 0.995764706,16.4517647 1.16894118,15.9755294 C1.34211765,15.4992941 1.56941176,14.8985882 1.85082353,14.1734118 C2.13223529,13.4482353 2.44611765,12.6418824 2.79247059,11.7543529 C3.13882353,10.8668235 3.48517647,9.96305882 3.83152941,9.04305882 C4.17788235,8.12305882 4.51882353,7.22470588 4.85435294,6.348 C5.18988235,5.47129412 5.48752941,4.68658824 5.74729412,3.99388235 C6.00705882,3.30117647 6.21811765,2.73835294 6.38047059,2.30541176 C6.54282353,1.87247059 6.624,1.64517647 6.624,1.62352941 C6.624,1.51529412 6.55364706,1.43952941 6.41294118,1.39623529 C6.27223529,1.35294118 6.12611765,1.32047059 5.97458824,1.29882353 L5.97458824,0.909176471 L14.4494118,0.909176471 L14.4494118,1.29882353 C14.2762353,1.32047059 14.1355294,1.35294118 14.0272941,1.39623529 C13.9190588,1.43952941 13.8649412,1.54776471 13.8649412,1.72094118 C13.8649412,1.76423529 13.9677647,2.04564706 14.1734118,2.56517647 C14.3790588,3.08470588 14.6442353,3.76117647 14.9689412,4.59458824 C15.2936471,5.428 15.6670588,6.36964706 16.0891765,7.41952941 C16.5112941,8.46941176 16.9496471,9.54094118 17.4042353,10.6341176 C17.8588235,11.7272941 18.2971765,12.7934118 18.7192941,13.8324706 C19.1414118,14.8715294 19.5256471,15.8023529 19.872,16.6249412 C20.0451765,17.0145882 20.1912941,17.2743529 20.3103529,17.4042353 C20.4294118,17.5341176 20.5863529,17.5990588 20.7811765,17.5990588 L20.7811765,17.9887059 L14.3844706,17.9887059 L14.3844706,17.5990588 C14.7957647,17.5774118 15.0014118,17.4475294 15.0014118,17.2094118 C15.0014118,17.1877647 14.9472941,17.0416471 14.8390588,16.7710588 C14.7308235,16.5004706 14.6117647,16.1974118 14.4818824,15.8618824 C14.352,15.5263529 14.2275294,15.2070588 14.1084706,14.904 C13.9894118,14.6009412 13.9190588,14.3952941 13.8974118,14.2870588 L6.20188235,14.2870588 C5.98541176,14.8715294 5.81223529,15.3477647 5.68235294,15.7157647 C5.55247059,16.0837647 5.44964706,16.376 5.37388235,16.5924706 C5.29811765,16.8089412 5.244,16.9658824 5.21152941,17.0632941 C5.17905882,17.1607059 5.16282353,17.2310588 5.16282353,17.2743529 Z M13.0531765,11.6894118 L9.90352941,3.96141176 L7.01364706,11.6894118 L13.0531765,11.6894118 Z" id="Shape"></path>
                        <path d="M43.8352941,17.0145882 C43.8352941,17.1661176 43.884,17.2905882 43.9814118,17.388 C44.0788235,17.4854118 44.3331765,17.5557647 44.7444706,17.5990588 L44.7444706,17.9887059 L38.0555294,17.9887059 L38.0555294,17.5990588 C38.4668235,17.5557647 38.7211765,17.4854118 38.8185882,17.388 C38.916,17.2905882 38.9647059,17.1661176 38.9647059,17.0145882 L38.9647059,11.0075294 L30.5223529,11.0075294 L30.5223529,17.0145882 C30.5223529,17.1661176 30.5710588,17.2905882 30.6684706,17.388 C30.7658824,17.4854118 31.0202353,17.5557647 31.4315294,17.5990588 L31.4315294,17.9887059 L24.7425882,17.9887059 L24.7425882,17.5990588 C25.1538824,17.5557647 25.4082353,17.4854118 25.5056471,17.388 C25.6030588,17.2905882 25.6517647,17.1661176 25.6517647,17.0145882 L25.6517647,1.88329412 C25.6517647,1.73176471 25.6030588,1.60729412 25.5056471,1.50988235 C25.4082353,1.41247059 25.1538824,1.34211765 24.7425882,1.29882353 L24.7425882,0.909176471 L31.4315294,0.909176471 L31.4315294,1.29882353 C31.0202353,1.34211765 30.7658824,1.41247059 30.6684706,1.50988235 C30.5710588,1.60729412 30.5223529,1.73176471 30.5223529,1.88329412 L30.5223529,7.04611765 L38.9647059,7.04611765 L38.9647059,1.88329412 C38.9647059,1.73176471 38.916,1.60729412 38.8185882,1.50988235 C38.7211765,1.41247059 38.4668235,1.34211765 38.0555294,1.29882353 L38.0555294,0.909176471 L44.7444706,0.909176471 L44.7444706,1.29882353 C44.3331765,1.34211765 44.0788235,1.41247059 43.9814118,1.50988235 C43.884,1.60729412 43.8352941,1.73176471 43.8352941,1.88329412 L43.8352941,17.0145882 Z" id="Path"></path>
                        <path d="M53.9336471,17.5990588 C54.3449412,17.5557647 54.5992941,17.4854118 54.6967059,17.388 C54.7941176,17.2905882 54.8428235,17.1661176 54.8428235,17.0145882 L54.8428235,4.87058824 L49.2578824,4.87058824 C49.0847059,4.87058824 48.9548235,4.93011765 48.8682353,5.04917647 C48.7816471,5.16823529 48.7167059,5.41176471 48.6734118,5.77976471 L48.2837647,5.77976471 L48.2837647,0 L48.6734118,0 C48.7167059,0.368 48.7816471,0.611529412 48.8682353,0.730588235 C48.9548235,0.849647059 49.0847059,0.909176471 49.2578824,0.909176471 L65.2983529,0.909176471 C65.4715294,0.909176471 65.6014118,0.849647059 65.688,0.730588235 C65.7745882,0.611529412 65.8395294,0.368 65.8828235,0 L66.2724706,0 L66.2724706,5.77976471 L65.8828235,5.77976471 C65.8395294,5.41176471 65.7745882,5.16823529 65.688,5.04917647 C65.6014118,4.93011765 65.4715294,4.87058824 65.2983529,4.87058824 L59.7134118,4.87058824 L59.7134118,17.0145882 C59.7134118,17.1661176 59.7621176,17.2905882 59.8595294,17.388 C59.9569412,17.4854118 60.2112941,17.5557647 60.6225882,17.5990588 L60.6225882,17.9887059 L53.9336471,17.9887059 L53.9336471,17.5990588 Z" id="Path"></path>
                    </g>
                </g>
                <g id="标签-la-copy-2" transform="translate(876.529412, 283.210000)">
                    <rect id="Rectangle" stroke="#000000" stroke-width="1.41176471" fill="#65B2FF" x="0.705882353" y="0.705882353" width="81.3529412" height="30.3529412"></rect>
                    <g id="AHT" transform="translate(8.390118, 6.540706)" fill="#000000" fill-rule="nonzero">
                        <path d="M5.16282353,17.2743529 C5.16282353,17.3825882 5.20070588,17.4637647 5.27647059,17.5178824 C5.35223529,17.572 5.50917647,17.5990588 5.74729412,17.5990588 L5.74729412,17.9887059 L0,17.9887059 L0,17.5990588 C0.238117647,17.5557647 0.411294118,17.4854118 0.519529412,17.388 C0.627764706,17.2905882 0.736,17.112 0.844235294,16.8522353 C0.887529412,16.744 0.995764706,16.4517647 1.16894118,15.9755294 C1.34211765,15.4992941 1.56941176,14.8985882 1.85082353,14.1734118 C2.13223529,13.4482353 2.44611765,12.6418824 2.79247059,11.7543529 C3.13882353,10.8668235 3.48517647,9.96305882 3.83152941,9.04305882 C4.17788235,8.12305882 4.51882353,7.22470588 4.85435294,6.348 C5.18988235,5.47129412 5.48752941,4.68658824 5.74729412,3.99388235 C6.00705882,3.30117647 6.21811765,2.73835294 6.38047059,2.30541176 C6.54282353,1.87247059 6.624,1.64517647 6.624,1.62352941 C6.624,1.51529412 6.55364706,1.43952941 6.41294118,1.39623529 C6.27223529,1.35294118 6.12611765,1.32047059 5.97458824,1.29882353 L5.97458824,0.909176471 L14.4494118,0.909176471 L14.4494118,1.29882353 C14.2762353,1.32047059 14.1355294,1.35294118 14.0272941,1.39623529 C13.9190588,1.43952941 13.8649412,1.54776471 13.8649412,1.72094118 C13.8649412,1.76423529 13.9677647,2.04564706 14.1734118,2.56517647 C14.3790588,3.08470588 14.6442353,3.76117647 14.9689412,4.59458824 C15.2936471,5.428 15.6670588,6.36964706 16.0891765,7.41952941 C16.5112941,8.46941176 16.9496471,9.54094118 17.4042353,10.6341176 C17.8588235,11.7272941 18.2971765,12.7934118 18.7192941,13.8324706 C19.1414118,14.8715294 19.5256471,15.8023529 19.872,16.6249412 C20.0451765,17.0145882 20.1912941,17.2743529 20.3103529,17.4042353 C20.4294118,17.5341176 20.5863529,17.5990588 20.7811765,17.5990588 L20.7811765,17.9887059 L14.3844706,17.9887059 L14.3844706,17.5990588 C14.7957647,17.5774118 15.0014118,17.4475294 15.0014118,17.2094118 C15.0014118,17.1877647 14.9472941,17.0416471 14.8390588,16.7710588 C14.7308235,16.5004706 14.6117647,16.1974118 14.4818824,15.8618824 C14.352,15.5263529 14.2275294,15.2070588 14.1084706,14.904 C13.9894118,14.6009412 13.9190588,14.3952941 13.8974118,14.2870588 L6.20188235,14.2870588 C5.98541176,14.8715294 5.81223529,15.3477647 5.68235294,15.7157647 C5.55247059,16.0837647 5.44964706,16.376 5.37388235,16.5924706 C5.29811765,16.8089412 5.244,16.9658824 5.21152941,17.0632941 C5.17905882,17.1607059 5.16282353,17.2310588 5.16282353,17.2743529 Z M13.0531765,11.6894118 L9.90352941,3.96141176 L7.01364706,11.6894118 L13.0531765,11.6894118 Z" id="Shape"></path>
                        <path d="M43.8352941,17.0145882 C43.8352941,17.1661176 43.884,17.2905882 43.9814118,17.388 C44.0788235,17.4854118 44.3331765,17.5557647 44.7444706,17.5990588 L44.7444706,17.9887059 L38.0555294,17.9887059 L38.0555294,17.5990588 C38.4668235,17.5557647 38.7211765,17.4854118 38.8185882,17.388 C38.916,17.2905882 38.9647059,17.1661176 38.9647059,17.0145882 L38.9647059,11.0075294 L30.5223529,11.0075294 L30.5223529,17.0145882 C30.5223529,17.1661176 30.5710588,17.2905882 30.6684706,17.388 C30.7658824,17.4854118 31.0202353,17.5557647 31.4315294,17.5990588 L31.4315294,17.9887059 L24.7425882,17.9887059 L24.7425882,17.5990588 C25.1538824,17.5557647 25.4082353,17.4854118 25.5056471,17.388 C25.6030588,17.2905882 25.6517647,17.1661176 25.6517647,17.0145882 L25.6517647,1.88329412 C25.6517647,1.73176471 25.6030588,1.60729412 25.5056471,1.50988235 C25.4082353,1.41247059 25.1538824,1.34211765 24.7425882,1.29882353 L24.7425882,0.909176471 L31.4315294,0.909176471 L31.4315294,1.29882353 C31.0202353,1.34211765 30.7658824,1.41247059 30.6684706,1.50988235 C30.5710588,1.60729412 30.5223529,1.73176471 30.5223529,1.88329412 L30.5223529,7.04611765 L38.9647059,7.04611765 L38.9647059,1.88329412 C38.9647059,1.73176471 38.916,1.60729412 38.8185882,1.50988235 C38.7211765,1.41247059 38.4668235,1.34211765 38.0555294,1.29882353 L38.0555294,0.909176471 L44.7444706,0.909176471 L44.7444706,1.29882353 C44.3331765,1.34211765 44.0788235,1.41247059 43.9814118,1.50988235 C43.884,1.60729412 43.8352941,1.73176471 43.8352941,1.88329412 L43.8352941,17.0145882 Z" id="Path"></path>
                        <path d="M53.9336471,17.5990588 C54.3449412,17.5557647 54.5992941,17.4854118 54.6967059,17.388 C54.7941176,17.2905882 54.8428235,17.1661176 54.8428235,17.0145882 L54.8428235,4.87058824 L49.2578824,4.87058824 C49.0847059,4.87058824 48.9548235,4.93011765 48.8682353,5.04917647 C48.7816471,5.16823529 48.7167059,5.41176471 48.6734118,5.77976471 L48.2837647,5.77976471 L48.2837647,0 L48.6734118,0 C48.7167059,0.368 48.7816471,0.611529412 48.8682353,0.730588235 C48.9548235,0.849647059 49.0847059,0.909176471 49.2578824,0.909176471 L65.2983529,0.909176471 C65.4715294,0.909176471 65.6014118,0.849647059 65.688,0.730588235 C65.7745882,0.611529412 65.8395294,0.368 65.8828235,0 L66.2724706,0 L66.2724706,5.77976471 L65.8828235,5.77976471 C65.8395294,5.41176471 65.7745882,5.16823529 65.688,5.04917647 C65.6014118,4.93011765 65.4715294,4.87058824 65.2983529,4.87058824 L59.7134118,4.87058824 L59.7134118,17.0145882 C59.7134118,17.1661176 59.7621176,17.2905882 59.8595294,17.388 C59.9569412,17.4854118 60.2112941,17.5557647 60.6225882,17.5990588 L60.6225882,17.9887059 L53.9336471,17.9887059 L53.9336471,17.5990588 Z" id="Path"></path>
                    </g>
                </g>
                <g id="标签-lb" transform="translate(969.529412, 283.210000)">
                    <rect id="Rectangle-Copy" stroke="#000000" stroke-width="1.41176471" fill="#FFD633" x="0.705882353" y="0.705882353" width="85.0588235" height="31.5937353"></rect>
                    <g id="AUT" transform="translate(8.581422, 7.162927)" fill="#000000" fill-rule="nonzero">
                        <path d="M5.39399473,17.9491244 C5.39399473,18.0615875 5.43357331,18.1459349 5.51273047,18.2021665 C5.59188762,18.2583981 5.75585601,18.2865139 6.00463565,18.2865139 L6.00463565,18.6913814 L0,18.6913814 L0,18.2865139 C0.248779631,18.2415286 0.429710272,18.1684276 0.542791923,18.0672107 C0.655873573,17.9659938 0.768955224,17.7804296 0.882036874,17.5105179 C0.927269535,17.3980547 1.04035119,17.0944041 1.22128183,16.5995661 C1.40221247,16.1047281 1.63968393,15.4805574 1.93369622,14.7270541 C2.22770852,13.9735508 2.5556453,13.1357 2.91750658,12.2135019 C3.27936787,11.2913038 3.64122915,10.3522362 4.00309043,9.39629912 C4.36495171,8.44036205 4.72115891,7.50691761 5.07171203,6.59596581 C5.42226514,5.68501401 5.73323968,4.86965592 6.00463565,4.14989153 C6.27603161,3.43012715 6.49654083,2.84531859 6.6661633,2.39546584 C6.83578578,1.9456131 6.92059701,1.70944041 6.92059701,1.68694778 C6.92059701,1.57448459 6.84709394,1.49576036 6.7000878,1.45077509 C6.55308165,1.40578981 6.40042142,1.37205086 6.24210711,1.34955822 L6.24210711,0.944690756 L15.0964004,0.944690756 L15.0964004,1.34955822 C14.9154697,1.37205086 14.7684636,1.40578981 14.6553819,1.45077509 C14.5423003,1.49576036 14.4857594,1.60822355 14.4857594,1.78816464 C14.4857594,1.83314992 14.593187,2.1255542 14.8080421,2.66537749 C15.0228973,3.20520078 15.2999473,3.90809569 15.6391923,4.77406221 C15.9784372,5.64002874 16.3685689,6.61845845 16.8095874,7.70935134 C17.2506058,8.80024424 17.7085865,9.91362977 18.1835294,11.0495079 C18.6584723,12.1853861 19.116453,13.2931485 19.5574715,14.3727951 C19.9984899,15.4524416 20.3999298,16.419625 20.761791,17.2743452 C20.9427217,17.6792127 21.0953819,17.9491244 21.2197717,18.0840802 C21.3441615,18.219036 21.5081299,18.2865139 21.7116769,18.2865139 L21.7116769,18.6913814 L15.0285514,18.6913814 L15.0285514,18.2865139 C15.4582616,18.2640213 15.6731168,18.1290655 15.6731168,17.8816464 C15.6731168,17.8591538 15.6165759,17.7073285 15.5034943,17.4261705 C15.3904126,17.1450126 15.2660228,16.8301157 15.1303248,16.4814798 C14.9946269,16.1328439 14.864583,15.8010775 14.7401932,15.4861806 C14.6158033,15.1712837 14.5423003,14.9576036 14.5196839,14.8451404 L6.47957858,14.8451404 C6.25341528,15.4524416 6.07248464,15.9472797 5.93678665,16.3296545 C5.80108867,16.7120293 5.69366111,17.0156799 5.61450395,17.2406063 C5.5353468,17.4655327 5.47880597,17.6286043 5.44488147,17.7298211 C5.41095698,17.831038 5.39399473,17.9041391 5.39399473,17.9491244 Z M13.6376471,12.146024 L10.346971,4.11615258 L7.32769096,12.146024 L13.6376471,12.146024 Z" id="Shape"></path>
                        <path d="M40.5736962,1.95685942 C40.5736962,1.79941096 40.5228095,1.6700783 40.421036,1.56886143 C40.3192625,1.46764457 40.0535206,1.3945435 39.6238104,1.34955822 L39.6238104,0.944690756 L46.6122564,0.944690756 L46.6122564,1.34955822 C46.1825461,1.3945435 45.9168042,1.46764457 45.8150307,1.56886143 C45.7132572,1.6700783 45.6623705,1.79941096 45.6623705,1.95685942 L45.6623705,10.9988995 C45.6623705,12.4834136 45.419245,13.7317549 44.9329939,14.7439236 C44.4467428,15.7560922 43.779561,16.5658272 42.9314486,17.1731284 C42.0833363,17.7804296 41.0882177,18.2021665 39.9460931,18.4383392 C38.8039684,18.6745119 37.5883406,18.7925982 36.2992098,18.7925982 C35.010079,18.7925982 33.7944513,18.6745119 32.6523266,18.4383392 C31.5102019,18.2021665 30.5150834,17.7804296 29.666971,17.1731284 C28.8188586,16.5658272 28.1516769,15.7560922 27.6654258,14.7439236 C27.1791747,13.7317549 26.9360492,12.4834136 26.9360492,10.9988995 L26.9360492,1.95685942 C26.9360492,1.79941096 26.8851624,1.6700783 26.7833889,1.56886143 C26.6816155,1.46764457 26.4158736,1.3945435 25.9861633,1.34955822 L25.9861633,0.944690756 L32.9746093,0.944690756 L32.9746093,1.34955822 C32.544899,1.3945435 32.2791572,1.46764457 32.1773837,1.56886143 C32.0756102,1.6700783 32.0247234,1.79941096 32.0247234,1.95685942 L32.0247234,10.9988995 C32.0247234,12.3034725 32.3978929,13.2369169 33.1442318,13.7992328 C33.8905707,14.3615487 34.94223,14.6427067 36.2992098,14.6427067 C37.6561896,14.6427067 38.707849,14.3615487 39.4541879,13.7992328 C40.2005268,13.2369169 40.5736962,12.3034725 40.5736962,10.9988995 L40.5736962,1.95685942 Z" id="Path"></path>
                        <path d="M56.3485865,18.2865139 C56.7782968,18.2415286 57.0440386,18.1684276 57.1458121,18.0672107 C57.2475856,17.9659938 57.2984723,17.8366612 57.2984723,17.6792127 L57.2984723,5.06084333 L51.4634592,5.06084333 C51.2825285,5.06084333 51.1468306,5.12269809 51.0563652,5.24640759 C50.9658999,5.37011709 50.8980509,5.62315926 50.8528183,6.00553409 L50.4457243,6.00553409 L50.4457243,0 L50.8528183,0 C50.8980509,0.38237483 50.9658999,0.635416996 51.0563652,0.7591265 C51.1468306,0.882836004 51.2825285,0.944690756 51.4634592,0.944690756 L68.2221598,0.944690756 C68.4030904,0.944690756 68.5387884,0.882836004 68.6292537,0.7591265 C68.7197191,0.635416996 68.787568,0.38237483 68.8328007,0 L69.2398946,0 L69.2398946,6.00553409 L68.8328007,6.00553409 C68.787568,5.62315926 68.7197191,5.37011709 68.6292537,5.24640759 C68.5387884,5.12269809 68.4030904,5.06084333 68.2221598,5.06084333 L62.3871466,5.06084333 L62.3871466,17.6792127 C62.3871466,17.8366612 62.4380334,17.9659938 62.5398068,18.0672107 C62.6415803,18.1684276 62.9073222,18.2415286 63.3370325,18.2865139 L63.3370325,18.6913814 L56.3485865,18.6913814 L56.3485865,18.2865139 Z" id="Path"></path>
                    </g>
                </g>
            </g>
        </g>
    </g>
</svg>