<?xml version="1.0" encoding="UTF-8"?>
<svg width="240px" height="100px" viewBox="0 0 240 100" version="1.1" xmlns="http://www.w3.org/2000/svg" xmlns:xlink="http://www.w3.org/1999/xlink">
    <title>logo copy 2</title>
    <g id="logo-copy-2" stroke="none" stroke-width="1" fill="none" fill-rule="evenodd">
        <path d="M148.722222,14 L116.738312,61.4583856 L179,53 L70,86 L115.017446,34.9776607 L79.0833333,41 L148.722222,14 Z M109.7881,45.3043478 L78.3846154,80.7826087 L112.971154,69.1690295 L88.0465336,73.2243346 L109.7881,45.3043478 Z M143.365385,18.173913 L113.703022,29.6100443 L134.230369,24.5549336 L118.565145,30.9194856 L132.231733,28.7206462 L123.613871,33.1010192 L130.405434,32.5463254 L112.961357,61.7023931 L143.365385,18.173913 Z" id="Combined-Shape" fill="#FFD53F"></path>
        <path d="M116.433657,75.7719626 C116.454153,75.7121495 116.469525,75.647352 116.479773,75.5775701 C116.490022,75.5077882 116.495146,75.423053 116.495146,75.3233645 C116.495146,75.1638629 116.356796,75.0043614 116.080097,74.8448598 C115.803398,74.6853583 115.434466,74.54081 114.973301,74.411215 C114.512136,74.2816199 113.984358,74.1719626 113.389968,74.082243 C112.795577,73.9925234 112.170442,73.9476636 111.514563,73.9476636 C110.899676,73.9476636 110.254045,74.0174455 109.57767,74.1570093 C108.901294,74.2965732 108.281284,74.5258567 107.717638,74.8448598 C107.153991,75.1638629 106.692826,75.5875389 106.334142,76.1158879 C105.975458,76.6442368 105.796117,77.2872274 105.796117,78.0448598 C105.796117,78.8024922 105.975458,79.4454829 106.334142,79.9738318 C106.692826,80.5021807 107.153991,80.9258567 107.717638,81.2448598 C108.281284,81.5638629 108.901294,81.7931464 109.57767,81.9327103 C110.254045,82.0722741 110.899676,82.1420561 111.514563,82.1420561 C111.781014,82.1420561 112.201187,82.0971963 112.775081,82.0074766 C113.348975,81.917757 113.922869,81.7931464 114.496764,81.6336449 C115.070658,81.4741433 115.57794,81.294704 116.018608,81.0953271 C116.459277,80.8959502 116.679612,80.6866044 116.679612,80.4672897 C116.679612,80.3676012 116.659115,80.2878505 116.618123,80.2280374 C116.577131,80.1682243 116.536138,80.0984424 116.495146,80.0186916 L116.833333,79.8093458 L120,84.5046729 L119.631068,84.7140187 C119.590076,84.6143302 119.533711,84.5495327 119.461974,84.5196262 C119.390237,84.4897196 119.303128,84.4747664 119.200647,84.4747664 C119.057174,84.4747664 118.770227,84.5595016 118.339806,84.728972 C117.909385,84.8984424 117.350863,85.0778816 116.664239,85.2672897 C115.977616,85.4566978 115.173139,85.6261682 114.250809,85.7757009 C113.328479,85.9252336 112.29342,86 111.145631,86 C109.915858,86 108.696332,85.8454829 107.487055,85.5364486 C106.277778,85.2274143 105.191478,84.7389408 104.228155,84.071028 C103.264833,83.4031153 102.485976,82.5657321 101.891586,81.5588785 C101.297195,80.5520249 101,79.3806854 101,78.0448598 C101,76.7090343 101.297195,75.5376947 101.891586,74.5308411 C102.485976,73.5239875 103.264833,72.6866044 104.228155,72.0186916 C105.191478,71.3507788 106.277778,70.847352 107.487055,70.5084112 C108.696332,70.1694704 109.915858,70 111.145631,70 C112.375405,70 113.436084,70.0647975 114.32767,70.1943925 C115.219256,70.3239875 115.972492,70.4685358 116.587379,70.6280374 C117.181769,70.7875389 117.642934,70.9221184 117.970874,71.0317757 C118.298813,71.141433 118.544768,71.1962617 118.708738,71.1962617 C118.893204,71.1962617 119.046926,71.1165109 119.169903,70.9570093 L119.508091,71.046729 L116.7411,75.9813084 L116.433657,75.7719626 Z M137.076087,81.7741348 C137.240338,81.7741348 137.363527,81.7207043 137.445652,81.6138434 C137.527778,81.5069824 137.589372,81.2884032 137.630435,80.9581056 L138,80.9581056 L138,86 L137.630435,86 C137.589372,85.6891318 137.527778,85.4996964 137.445652,85.431694 C137.363527,85.3636916 137.240338,85.3296903 137.076087,85.3296903 L121,85.3296903 L121,84.9799636 C121.390097,84.941105 121.631341,84.8779599 121.723732,84.7905282 C121.816123,84.7030965 121.862319,84.5913783 121.862319,84.4553734 L121.862319,70.8743169 C121.862319,70.7383121 121.816123,70.6265938 121.723732,70.5391621 C121.631341,70.4517304 121.390097,70.3885853 121,70.3497268 L121,70 L127.344203,70 L127.344203,70.3497268 C126.954106,70.3885853 126.712862,70.4517304 126.620471,70.5391621 C126.52808,70.6265938 126.481884,70.7383121 126.481884,70.8743169 L126.481884,81.7741348 L137.076087,81.7741348 Z M153.730263,70.9073724 C153.730263,70.7662256 153.685855,70.6502836 153.597039,70.5595463 C153.508224,70.4688091 153.276316,70.4032766 152.901316,70.362949 L152.901316,70 L159,70 L159,70.362949 C158.625,70.4032766 158.393092,70.4688091 158.304276,70.5595463 C158.215461,70.6502836 158.171053,70.7662256 158.171053,70.9073724 L158.171053,79.0132325 C158.171053,80.3440454 157.958882,81.463138 157.534539,82.3705104 C157.110197,83.2778828 156.527961,84.0037807 155.787829,84.5482042 C155.047697,85.0926276 154.179276,85.4706994 153.182566,85.6824197 C152.185855,85.8941399 151.125,86 150,86 C148.875,86 147.814145,85.8941399 146.817434,85.6824197 C145.820724,85.4706994 144.952303,85.0926276 144.212171,84.5482042 C143.472039,84.0037807 142.889803,83.2778828 142.465461,82.3705104 C142.041118,81.463138 141.828947,80.3440454 141.828947,79.0132325 L141.828947,70.9073724 C141.828947,70.7662256 141.784539,70.6502836 141.695724,70.5595463 C141.606908,70.4688091 141.375,70.4032766 141,70.362949 L141,70 L147.098684,70 L147.098684,70.362949 C146.723684,70.4032766 146.491776,70.4688091 146.402961,70.5595463 C146.314145,70.6502836 146.269737,70.7662256 146.269737,70.9073724 L146.269737,79.0132325 C146.269737,80.1827347 146.595395,81.0195337 147.246711,81.5236295 C147.898026,82.0277253 148.815789,82.2797732 150,82.2797732 C151.184211,82.2797732 152.101974,82.0277253 152.753289,81.5236295 C153.404605,81.0195337 153.730263,80.1827347 153.730263,79.0132325 L153.730263,70.9073724 Z M171.653061,82.7756654 C172.755102,82.7756654 173.530612,82.6387833 173.979592,82.365019 C174.428571,82.0912548 174.653061,81.6197719 174.653061,80.9505703 C174.653061,80.2813688 174.428571,79.8098859 173.979592,79.5361217 C173.530612,79.2623574 172.755102,79.1254753 171.653061,79.1254753 L166.44898,79.1254753 L166.44898,82.7756654 L171.653061,82.7756654 Z M170.612245,76.0228137 C171.265306,76.0228137 171.806122,76.0076046 172.234694,75.9771863 C172.663265,75.9467681 173,75.8808619 173.244898,75.7794677 C173.489796,75.6780735 173.663265,75.5361217 173.765306,75.3536122 C173.867347,75.1711027 173.918367,74.9277567 173.918367,74.6235741 C173.918367,74.3193916 173.867347,74.0760456 173.765306,73.8935361 C173.663265,73.7110266 173.489796,73.5690748 173.244898,73.4676806 C173,73.3662864 172.663265,73.3003802 172.234694,73.269962 C171.806122,73.2395437 171.265306,73.2243346 170.612245,73.2243346 L166.44898,73.2243346 L166.44898,76.0228137 L170.612245,76.0228137 Z M161.857143,70.9125475 C161.857143,70.7705957 161.811224,70.6539924 161.719388,70.5627376 C161.627551,70.4714829 161.387755,70.4055767 161,70.365019 L161,70 L172.663265,70 C173.5,70 174.265306,70.0811153 174.959184,70.243346 C175.653061,70.4055767 176.255102,70.6539924 176.765306,70.9885932 C177.27551,71.3231939 177.673469,71.7591888 177.959184,72.2965779 C178.244898,72.833967 178.387755,73.47782 178.387755,74.2281369 C178.387755,75.1406844 178.112245,75.8757921 177.561224,76.4334601 C177.010204,76.991128 176.306122,77.3612167 175.44898,77.5437262 L175.44898,77.6045627 C176.489796,77.8884664 177.341837,78.3244613 178.005102,78.9125475 C178.668367,79.5006337 179,80.3624842 179,81.4980989 C179,82.1064639 178.882653,82.6844106 178.647959,83.2319392 C178.413265,83.7794677 178.045918,84.2560203 177.545918,84.661597 C177.045918,85.0671736 176.403061,85.391635 175.617347,85.634981 C174.831633,85.878327 173.897959,86 172.816327,86 L161,86 L161,85.634981 C161.387755,85.5944233 161.627551,85.5285171 161.719388,85.4372624 C161.811224,85.3460076 161.857143,85.2294043 161.857143,85.0874525 L161.857143,70.9125475 Z" id="Combined-Shape" fill="#FFFFFF" fill-rule="nonzero"></path>
    </g>
</svg>