<?xml version="1.0" encoding="UTF-8"?>
<svg width="100" height="100" viewBox="0 0 100 100" fill="none" version="1.1" xmlns="http://www.w3.org/2000/svg" xmlns:xlink="http://www.w3.org/1999/xlink"><path d="M16.7716 70.374C17.374 69.7721 18.1908 69.434 19.0423 69.434H97.6199C99.0512 69.434 99.7678 71.1649 98.7551 72.1766L83.2286 87.6909C82.6261 88.293 81.8093 88.6311 80.9576 88.6311H2.38023C0.948799 88.6311 0.232214 86.9002 1.2448 85.8883L16.7716 70.374Z" fill="#00FFA3"></path><path d="M16.7716 12.4495C17.374 11.8476 18.1908 11.5094 19.0423 11.5094H97.6199C99.0512 11.5094 99.7678 13.2404 98.7551 14.2521L83.2286 29.7666C82.6261 30.3685 81.8093 30.7066 80.9576 30.7066H2.38023C0.948799 30.7066 0.232214 28.9757 1.2448 27.964L16.7716 12.4495Z" fill="#00FFA3"></path><path d="M83.2286 41.3414C82.6261 40.7395 81.8093 40.4014 80.9576 40.4014H2.38023C0.948799 40.4014 0.232214 42.1322 1.2448 43.144L16.7716 58.6584C17.374 59.2603 18.1908 59.5986 19.0423 59.5986H97.6199C99.0512 59.5986 99.7678 57.8676 98.7551 56.8557L83.2286 41.3414Z" fill="#00FFA3"></path></svg>