<?xml version="1.0" encoding="UTF-8"?>
<svg width="32px" height="32px" viewBox="0 0 32 32" version="1.1" xmlns="http://www.w3.org/2000/svg" xmlns:xlink="http://www.w3.org/1999/xlink">
    <title>check</title>
    <g id="check" stroke="none" stroke-width="1" fill="none" fill-rule="evenodd">
        <circle id="Oval" fill="#00D14B" cx="16" cy="16" r="16"></circle>
        <path d="M25.3077734,6.56276206 C24.9626198,6.1954741 24.4783701,5.99118197 23.9745068,6.00029218 C23.4757199,6.01030053 23.0039487,6.23548867 22.6647536,6.6218114 L12.4388733,18.3491084 L12.2377577,18.4391837 L12.0426455,18.3421026 L9.50518637,15.2285015 C9.13747493,14.7806273 8.61117228,14.5129036 8.04734807,14.4888836 C7.47847544,14.4684527 6.92847404,14.6946395 6.53848042,15.1094019 C5.90311507,15.7779605 5.8200673,16.83084 6.34236765,17.5979809 C8.41676942,20.6392577 9.97257075,22.9202152 11.0097716,24.4408536 C11.5803571,25.2656948 12.2377577,26 13.1590338,26 L13.4107492,26 C14.4276704,26 15.0984235,25.4346749 15.7081908,24.4641903 C17.9155851,21.112841 21.2266766,16.0858169 25.6414653,9.38311819 C26.1967847,8.53891294 26.0977277,7.39595811 25.4088315,6.66885069 L25.3077734,6.56276206 Z" id="arrow" fill="#FFFFFF"></path>
    </g>
</svg>