<?xml version="1.0" encoding="UTF-8"?>
<svg width="32px" height="32px" viewBox="0 0 32 32" version="1.1" xmlns="http://www.w3.org/2000/svg" xmlns:xlink="http://www.w3.org/1999/xlink">
    <title>false</title>
    <g id="Page-1" stroke="none" stroke-width="1" fill="none" fill-rule="evenodd">
        <g id="领取步骤-01" transform="translate(-100.000000, -374.000000)">
            <g id="false" transform="translate(100.000000, 374.000000)">
                <circle id="Oval" fill="#FF0000" cx="16" cy="16" r="16"></circle>
                <path d="M11.7573593,8.92893219 L15.9991458,13.1711458 L20.2426407,8.92893219 C20.9825815,8.18899142 22.1580656,8.15004717 22.943853,8.81209944 L23.0710678,8.92893219 C23.8110086,9.66887295 23.8499528,10.8443571 23.1879006,11.6301445 L23.0710678,11.7573593 L18.8281458,15.9991458 L23.0710678,20.2426407 C23.8521164,21.0236893 23.8521164,22.2900192 23.0710678,23.0710678 C22.2900192,23.8521164 21.0236893,23.8521164 20.2426407,23.0710678 L15.9991458,18.8281458 L11.7573593,23.0710678 C11.0174185,23.8110086 9.84193439,23.8499528 9.05614696,23.1879006 L8.92893219,23.0710678 C8.18899142,22.331127 8.15004717,21.1556429 8.81209944,20.3698555 L8.92893219,20.2426407 L13.1711458,15.9991458 L8.92893219,11.7573593 C8.1478836,10.9763107 8.1478836,9.70998077 8.92893219,8.92893219 C9.70998077,8.1478836 10.9763107,8.1478836 11.7573593,8.92893219 Z" id="Path" fill="#FFFFFF"></path>
            </g>
        </g>
    </g>
</svg>