<?xml version="1.0" encoding="UTF-8"?>
<svg width="48px" height="48px" viewBox="0 0 48 48" version="1.1" xmlns="http://www.w3.org/2000/svg" xmlns:xlink="http://www.w3.org/1999/xlink">
    <title>host</title>
    <g id="Page-1" stroke="none" stroke-width="1" fill="none" fill-rule="evenodd">
        <g id="twitter-领取" transform="translate(-38.000000, -252.000000)">
            <g id="host" transform="translate(38.000000, 252.000000)">
                <path d="M13.518,3 L33.518,3 C37.936278,3 41.518,6.581722 41.518,11 L41.518,18.4648162 C41.518,18.7991694 41.6851011,19.1114008 41.9632998,19.2968665 L44.518,21 C46.3407221,22.215148 47.272109,24.3933821 46.8914081,26.5506876 L45.6844207,33.3902827 C45.0097985,37.2131421 41.6880808,40 37.8061522,40 L9.22984777,40 C5.34791919,40 2.02620155,37.2131421 1.35157929,33.3902827 L0.144591932,26.5506876 C-0.236109045,24.3933821 0.695277949,22.215148 2.518,21 L5.0727002,19.2968665 C5.35089886,19.1114008 5.518,18.7991694 5.518,18.4648162 L5.518,11 C5.518,6.581722 9.099722,3 13.518,3 Z" id="Rectangle" fill="#FFD500"></path>
                <path d="M33.518,7 L13.518,7 C11.3758046,7 9.62692112,8.68396847 9.52289531,10.8003597 L9.518,11 L9.518,18.4648162 C9.518,20.0569743 8.76017172,21.5488064 7.48640525,22.4883369 L7.29150098,22.6250677 L4.73680078,24.3282012 C4.27705021,24.6347016 4.02338838,25.1638805 4.06499207,25.7071802 L4.08372617,25.8555463 L5.29071353,32.6951413 C5.61639324,34.5406597 7.17591527,35.9032855 9.03010033,35.9950653 L9.22984777,36 L37.8061522,36 C39.6801867,36 41.2931003,34.7010127 41.7057137,32.8909917 L41.7452865,32.6951413 L42.9522738,25.8555463 C43.0482992,25.3114027 42.840952,24.7624202 42.4194091,24.4171565 L42.2991992,24.3282012 L39.744499,22.6250677 C38.4197435,21.7418973 37.5988316,20.2838265 37.5236535,18.702831 L37.518,18.4648162 L37.518,11 C37.518,8.85780461 35.8340315,7.10892112 33.7176403,7.00489531 L33.518,7 Z" id="Rectangle备份" fill="#000000" fill-rule="nonzero"></path>
                <path d="M17.5703432,23 L29.4656568,23 C30.1468713,23 30.8078028,23.2318423 31.339742,23.6573936 L35.518,27 C36.4866551,27.7749241 36.6437052,29.1883744 35.8687811,30.1570295 C35.4425348,30.6898374 34.7972028,31 34.1148758,31 L12.9211242,31 C11.6806404,31 10.6750295,29.9943891 10.6750295,28.7539053 C10.6750295,28.0715783 10.9851921,27.4262463 11.518,27 L15.696258,23.6573936 C16.2281972,23.2318423 16.8891287,23 17.5703432,23 Z M8.518,38 L15.518,38 L16.5564761,41.6346662 C16.9570365,43.0366278 16.1452405,44.4978606 14.7432789,44.8984211 C14.5074125,44.9658115 14.2633047,45 14.018,45 L12.7809042,45 C11.4414632,45 10.2643052,44.1120681 9.8963324,42.8241634 L8.518,38 L8.518,38 Z M31.518,38 L38.518,38 L39.5564761,41.6346662 C39.9570365,43.0366278 39.1452405,44.4978606 37.7432789,44.8984211 C37.5074125,44.9658115 37.2633047,45 37.018,45 L35.7809042,45 C34.4414632,45 33.2643052,44.1120681 32.8963324,42.8241634 L31.518,38 L31.518,38 Z" id="Combined-Shape" fill="#FFD500"></path>
            </g>
        </g>
    </g>
</svg>