<?xml version="1.0" encoding="UTF-8"?>
<svg width="64px" height="64px" viewBox="0 0 64 64" version="1.1" xmlns="http://www.w3.org/2000/svg" xmlns:xlink="http://www.w3.org/1999/xlink">
    <title>link</title>
    <defs>
        <path d="M35.6275952,26.2010591 C36.1236225,26.2010591 36.5991088,26.4031353 36.948412,26.762391 C41.1385541,30.8937099 41.4484171,37.6397166 37.655328,42.1526117 L28.6142444,51.7738717 C24.7262065,55.9108237 18.1221228,55.5692405 13.9178329,51.0147979 C9.84715529,46.8893675 9.56383591,40.2668612 13.2667261,35.7953688 L16.5222603,32.3036295 C17.2463947,31.639313 18.3502361,31.6571525 19.0533773,32.3445358 C19.7565185,33.031919 19.8209416,34.1561621 19.2010999,34.922434 L15.9641687,38.3762197 C13.5475765,41.4240302 13.856452,45.8600503 16.6710847,48.5288313 C19.4801456,51.5081959 23.6286264,51.7738717 25.972611,49.2689282 L35.0136945,39.5907377 C37.4302868,36.5429271 37.1214112,32.1069071 34.3067785,29.438126 C33.5854943,28.697958 33.5854943,27.502559 34.3067785,26.762391 C34.6560817,26.4031353 35.131568,26.2010591 35.6275952,26.2010591 Z M50.0821671,12.9852021 C54.1528447,17.1106325 54.4361641,23.7331388 50.7332739,28.2046312 L47.4777397,31.6963705 C46.7536053,32.360687 45.6497639,32.3428475 44.9466227,31.6554642 C44.2434815,30.968081 44.1790584,29.8438379 44.7989001,29.077566 L48.0358313,25.6237803 C50.4524235,22.5759698 50.143548,18.1399497 47.3289153,15.4711687 C44.5198544,12.4918041 40.3713736,12.2261283 38.027389,14.7310718 L28.9863055,24.4092623 C26.5697132,27.4570729 26.8785888,31.8930929 29.6932215,34.561874 C30.4145057,35.302042 30.4145057,36.497441 29.6932215,37.237609 C29.3439183,37.5968647 28.868432,37.7989409 28.3724048,37.7989409 C27.8763775,37.7989409 27.4008912,37.5968647 27.051588,37.237609 C22.8614459,33.1062901 22.5515829,26.3602834 26.344672,21.8473883 L35.3857556,12.2261283 C39.2737935,8.08917628 45.8778772,8.43075948 50.0821671,12.9852021 Z" id="path-1"></path>
    </defs>
    <g id="Page-1" stroke="none" stroke-width="1" fill="none" fill-rule="evenodd">
        <g id="弹窗" transform="translate(-403.000000, -465.000000)">
            <g id="Group-2-Copy-2" transform="translate(340.000000, 437.000000)">
                <g id="link" transform="translate(63.000000, 28.000000)">
                    <rect id="Rectangle" x="0" y="0" width="64" height="64"></rect>
                    <rect id="矩形" fill="#3CB8F8" x="0" y="0" width="64" height="64" rx="21.3333333"></rect>
                    <mask id="mask-2" fill="white">
                        <use xlink:href="#path-1"></use>
                    </mask>
                    <use id="Combined-Shape" fill="#FFFFFF" xlink:href="#path-1"></use>
                </g>
            </g>
        </g>
    </g>
</svg>