<?xml version="1.0" encoding="UTF-8"?>
<svg width="47px" height="46px" viewBox="0 0 47 46" version="1.1" xmlns="http://www.w3.org/2000/svg" xmlns:xlink="http://www.w3.org/1999/xlink">
    <title>listener</title>
    <g id="Page-1" stroke="none" stroke-width="1" fill="none" fill-rule="evenodd">
        <g id="twitter-é¢†å–" transform="translate(-38.000000, -399.000000)">
            <g id="listener" transform="translate(38.718000, 399.200000)">
                <path d="M21.4233167,2.4 C16.7442057,2.4 13.5415438,3.09932076 10.7146181,4.61117714 C8.0781258,6.02118866 6.02118866,8.0781258 4.61117714,10.7146181 C3.09932076,13.5415438 2.4,16.7442057 2.4,21.4233167 L2.4,24.1766833 C2.4,28.8557943 3.09932076,32.0584562 4.61117714,34.8853819 C6.02118866,37.5218742 8.0781258,39.5788113 10.7146181,40.9888229 C13.5415438,42.5006792 16.7442057,43.2 21.4233167,43.2 L24.1766833,43.2 C28.8557943,43.2 32.0584562,42.5006792 34.8853819,40.9888229 C37.5218742,39.5788113 39.5788113,37.5218742 40.9888229,34.8853819 C42.5006792,32.0584562 43.2,28.8557943 43.2,24.1766833 L43.2,21.4233167 C43.2,16.7442057 42.5006792,13.5415438 40.9888229,10.7146181 C39.5788113,8.0781258 37.5218742,6.02118866 34.8853819,4.61117714 C32.0584562,3.09932076 28.8557943,2.4 24.1766833,2.4 L21.4233167,2.4 Z" id="Combined-Shape" fill="#FFD500"></path>
                <path d="M24.1766833,0 L21.4233167,0 C16.4456699,0 12.8353221,0.755347385 9.58278085,2.49482547 C6.5280442,4.12851651 4.12851651,6.5280442 2.49482547,9.58278085 C0.755347385,12.8353221 0,16.4456699 0,21.4233167 L0,24.1766833 C0,29.1543301 0.755347385,32.7646779 2.49482547,36.0172191 C4.12851651,39.0719558 6.5280442,41.4714835 9.58278085,43.1051745 C12.8353221,44.8446526 16.4456699,45.6 21.4233167,45.6 L24.1766833,45.6 C29.1543301,45.6 32.7646779,44.8446526 36.0172191,43.1051745 C39.0719558,41.4714835 41.4714835,39.0719558 43.1051745,36.0172191 C44.8446526,32.7646779 45.6,29.1543301 45.6,24.1766833 L45.6,21.4233167 C45.6,16.4456699 44.8446526,12.8353221 43.1051745,9.58278085 C41.4714835,6.5280442 39.0719558,4.12851651 36.0172191,2.49482547 C32.7646779,0.755347385 29.1543301,0 24.1766833,0 Z M21.4233167,4.8 L24.1766833,4.8 C28.4173642,4.8 31.2623409,5.39521848 33.7535446,6.72752882 C35.9717926,7.91386082 37.6861392,9.6282074 38.8724712,11.8464554 C40.2047815,14.3376591 40.8,17.1826358 40.8,21.4233167 L40.8,24.1766833 C40.8,28.4173642 40.2047815,31.2623409 38.8724712,33.7535446 C37.6861392,35.9717926 35.9717926,37.6861392 33.7535446,38.8724712 C31.2623409,40.2047815 28.4173642,40.8 24.1766833,40.8 L21.4233167,40.8 C17.1826358,40.8 14.3376591,40.2047815 11.8464554,38.8724712 C9.6282074,37.6861392 7.91386082,35.9717926 6.72752882,33.7535446 C5.39521848,31.2623409 4.8,28.4173642 4.8,24.1766833 L4.8,21.4233167 C4.8,17.1826358 5.39521848,14.3376591 6.72752882,11.8464554 C7.91386082,9.6282074 9.6282074,7.91386082 11.8464554,6.72752882 C14.3376591,5.39521848 17.1826358,4.8 21.4233167,4.8 Z" id="Combined-Shapeå¤‡ä»½" fill="#000000" fill-rule="nonzero"></path>
                <path d="M13.62,13.62 C11.93088,13.62 10.56,14.99088 10.56,16.68 C10.56,18.36912 11.93088,19.74 13.62,19.74 C15.30912,19.74 16.68,18.36912 16.68,16.68 C16.68,14.99088 15.30912,13.62 13.62,13.62 Z M31.98,13.62 C30.29088,13.62 28.92,14.99088 28.92,16.68 C28.92,18.36912 30.29088,19.74 31.98,19.74 C33.66912,19.74 35.04,18.36912 35.04,16.68 C35.04,14.99088 33.66912,13.62 31.98,13.62 Z M15.2875403,23.821228 L30.2466632,23.82 C31.2039587,23.82 31.98,24.5811108 31.98,25.52 L31.978698,25.5858797 L31.978698,25.5858797 L31.9683158,25.7540352 C31.7656111,30.1731112 28.8687281,34.02 22.8020822,34.02 C16.8365471,34.02 13.9524714,30.3002723 13.6439523,25.9540054 L13.6250903,25.6491224 L13.6250903,25.6491224 C13.5523763,24.7129466 14.2672351,23.8962187 15.2217646,23.8249102 L15.2875403,23.821228 L15.2875403,23.821228 Z" id="Combined-Shape-Copy" fill="#000000" fill-rule="nonzero"></path>
            </g>
        </g>
    </g>
</svg>