<?xml version="1.0" encoding="UTF-8"?>
<svg width="48px" height="48px" viewBox="0 0 48 48" version="1.1" xmlns="http://www.w3.org/2000/svg" xmlns:xlink="http://www.w3.org/1999/xlink">
    <title>speaker</title>
    <g id="Page-1" stroke="none" stroke-width="1" fill="none" fill-rule="evenodd">
        <g id="twitter-é¢†å–" transform="translate(-38.000000, -326.000000)">
            <g id="speaker" transform="translate(38.000000, 326.000000)">
                <path d="M34.2238806,25.2042509 C35.2637416,25.269425 35.5821686,26.0707399 35.507671,26.6896076 C34.8560785,31.8963141 30.4744133,36.0379279 25.2741098,36.7916422 L25.2741098,40.746071 L27.118,40.746071 C27.7807417,40.746071 28.318,41.2954017 28.318,41.9730355 C28.318,42.6506693 27.7807417,43.2 27.118,43.2 L19.918,43.2 C19.2552583,43.2 18.718,42.6506693 18.718,41.9730355 C18.718,41.2954017 19.2552583,40.746071 19.918,40.746071 L21.8350824,40.746071 L21.8350824,36.7916422 L21.7808517,36.7835466 L21.7618902,36.7916422 C21.3571822,36.7329852 20.9574323,36.6538091 20.5640128,36.5552089 C20.1950655,36.4689184 19.8837854,36.376422 19.6262277,36.279662 C15.4038196,34.8529405 12.08836,31.1646695 11.528329,26.6896076 C11.4538314,26.0707399 11.7722584,25.269425 12.8121194,25.2042509 C13.8519805,25.1390768 14.3535184,25.8366135 14.4293568,26.3849872 C14.9740308,30.9341181 19.0638336,34.0327718 23.4814039,34.0327718 L23.5545961,34.0327718 C27.9721664,34.0327718 32.0619692,30.9341181 32.6066432,26.3849872 C32.6824816,25.8366135 33.1840195,25.1390768 34.2238806,25.2042509 Z M23.518,4.8 C26.1689668,4.8 28.318,7.3072054 28.318,10.4 L28.318,24.4 C28.318,27.4927946 26.1689668,30 23.518,30 C20.8670332,30 18.718,27.4927946 18.718,24.4 L18.718,10.4 C18.718,7.3072054 20.8670332,4.8 23.518,4.8 Z" id="Shape" fill="#000000"></path>
                <path d="M23.518,0 C28.8967782,0 32.9649506,4.62999299 33.1137791,10.0900776 L33.118,10.4 L33.1183465,20.4696286 C33.5696746,20.4036944 34.0396456,20.3832852 34.5241352,20.413651 C38.3874774,20.655789 40.6755617,23.9213244 40.2705199,27.2856537 C39.6729869,32.0603842 36.9065576,36.2152735 33.0095888,38.8249133 L32.6409675,39.0650117 L32.4388,39.1896 L32.496964,39.3013441 C32.8135257,39.9433692 33.0194257,40.6491376 33.090413,41.3925361 L33.1125055,41.7133632 L33.118,41.9730355 C33.118,45.1910819 30.5941435,47.856336 27.3800763,47.994384 L27.118,48 L19.918,48 C16.5801248,48 13.918,45.2780561 13.918,41.9730355 C13.918,41.1359086 14.0887901,40.3361892 14.3980919,39.608634 L14.539036,39.3013441 L14.596,39.1896 L14.5400657,39.1553966 C10.5781124,36.7026317 7.71855627,32.7080106 6.88848553,28.0889029 L6.81664045,27.65406 L6.76273312,27.2632766 C6.36043834,23.9213244 8.64852258,20.655789 12.5118648,20.413651 C12.9965843,20.3832708 13.4667714,20.4037137 13.9183258,20.4699533 L13.918,10.4 C13.918,4.80635798 18.0377354,0 23.518,0 Z M12.8121194,25.2042509 C11.7722584,25.269425 11.4538314,26.0707399 11.528329,26.6896076 C12.073224,31.0437218 15.2266183,34.6529998 19.2858942,36.1590551 L19.6262277,36.279662 C19.8837854,36.376422 20.1950655,36.4689184 20.5640128,36.5552089 C20.8262925,36.6209424 21.0913856,36.6780429 21.3588857,36.726186 L21.7618902,36.7916422 L21.7808517,36.7835466 L21.8350824,36.7916422 L21.8350824,40.746071 L19.918,40.746071 C19.2552583,40.746071 18.718,41.2954017 18.718,41.9730355 C18.718,42.6054937 19.1860117,43.1261857 19.7872468,43.1928003 L19.918,43.2 L27.118,43.2 L27.2487532,43.1928003 C27.8499883,43.1261857 28.318,42.6054937 28.318,41.9730355 C28.318,41.3405773 27.8499883,40.8198853 27.2487532,40.7532706 L27.118,40.746071 L25.2741098,40.746071 L25.2741098,36.7916422 C30.4744133,36.0379279 34.8560785,31.8963141 35.507671,26.6896076 C35.5821686,26.0707399 35.2637416,25.269425 34.2238806,25.2042509 C33.7709023,25.1758601 33.4200761,25.2922012 33.1620923,25.4778967 L33.0584011,25.5615698 C32.7901528,25.7966369 32.6447258,26.1096185 32.6066432,26.3849872 C32.074073,30.8330263 28.1521847,33.8943376 23.8485799,34.0281993 L23.4814039,34.0327718 C19.0638336,34.0327718 14.9740308,30.9341181 14.4293568,26.3849872 C14.3912742,26.1096185 14.2458472,25.7966369 13.9788152,25.5615069 C13.7140752,25.3283952 13.3298089,25.1718043 12.8121194,25.2042509 Z M23.518,4.8 C20.9450028,4.8 18.8448479,7.16189159 18.7235352,10.1286749 L18.718,10.4 L18.718,24.4 C18.718,27.4927946 20.8670332,30 23.518,30 C26.0909972,30 28.1911521,27.6381084 28.3124648,24.6713251 L28.318,24.4 L28.318,10.4 C28.318,7.3072054 26.1689668,4.8 23.518,4.8 Z" id="Shapeå¤‡ä»½" fill="#FFD500" fill-rule="nonzero"></path>
            </g>
        </g>
    </g>
</svg>